<svg xmlns="http://www.w3.org/2000/svg" viewBox="0 0 500 372.6088"><defs><style>.cls-1{fill:#ebebeb;}.cls-2{fill:#f5f5f5;}.cls-3{fill:#f0f0f0;}.cls-4{fill:#e0e0e0;}.cls-5{fill:#fafafa;}.cls-6{fill:#407bff;}.cls-10,.cls-12,.cls-13,.cls-14,.cls-15,.cls-19,.cls-20,.cls-7,.cls-9{fill:#fff;}.cls-7{opacity:0.9;}.cls-8{opacity:0.1;}.cls-10,.cls-11,.cls-18,.cls-19,.cls-20,.cls-8{isolation:isolate;}.cls-10,.cls-11{opacity:0.3;}.cls-12,.cls-19{opacity:0.6;}.cls-13{opacity:0.4;}.cls-14,.cls-18{opacity:0.2;}.cls-15{opacity:0.8;}.cls-16{fill:#b97964;}.cls-17{fill:#263238;}.cls-20{opacity:0.7;}.cls-21{fill:#e4897b;}</style></defs><title>Acc</title><g id="Background_Complete" data-name="Background Complete"><rect class="cls-1" y="327.4458" width="500" height="0.25"/><rect class="cls-1" x="416.7791" y="343.5418" width="33.1221" height="0.25"/><rect class="cls-1" x="322.5269" y="346.2554" width="8.6933" height="0.25"/><rect class="cls-1" x="396.5858" y="334.2557" width="19.1924" height="0.25"/><rect class="cls-1" x="52.459" y="335.9359" width="43.1934" height="0.25"/><rect class="cls-1" x="104.5557" y="335.9359" width="6.333" height="0.25"/><rect class="cls-1" x="131.4713" y="340.1581" width="93.6758" height="0.25"/><path class="cls-1" d="M237.0137,337.7998H43.915a5.7144,5.7144,0,0,1-5.708-5.708V60.6602a5.71438,5.71438,0,0,1,5.708-5.7076H237.0137a5.71411,5.71411,0,0,1,5.707,5.7076V332.0918A5.71413,5.71413,0,0,1,237.0137,337.7998ZM43.915,55.2026a5.46391,5.46391,0,0,0-5.458,5.4576V332.0918a5.46393,5.46393,0,0,0,5.458,5.458H237.0137a5.46365,5.46365,0,0,0,5.457-5.458V60.6602a5.46363,5.46363,0,0,0-5.457-5.4576Z" transform="translate(0 -54.9526)"/><path class="cls-1" d="M453.3105,337.7998H260.2119a5.71413,5.71413,0,0,1-5.707-5.708V60.6602a5.71411,5.71411,0,0,1,5.707-5.7076H453.3105a5.7144,5.7144,0,0,1,5.7081,5.7076V332.0918A5.71442,5.71442,0,0,1,453.3105,337.7998ZM260.2119,55.2026a5.46363,5.46363,0,0,0-5.457,5.4576V332.0918a5.46365,5.46365,0,0,0,5.457,5.458H453.3105a5.464,5.464,0,0,0,5.4581-5.458V60.6602a5.46393,5.46393,0,0,0-5.4581-5.4576Z" transform="translate(0 -54.9526)"/><polygon class="cls-2" points="134.387 81.514 78.877 81.514 79.727 74.01 135.237 74.01 134.387 81.514"/><polygon class="cls-2" points="130.412 116.596 74.903 116.596 75.753 109.092 131.262 109.092 130.412 116.596"/><polygon class="cls-2" points="126.438 151.678 70.928 151.678 71.779 144.174 127.288 144.174 126.438 151.678"/><polygon class="cls-2" points="122.464 186.759 66.954 186.759 67.804 179.255 123.314 179.255 122.464 186.759"/><polygon class="cls-2" points="118.489 221.841 62.98 221.841 63.83 214.337 119.34 214.337 118.489 221.841"/><polygon class="cls-2" points="114.515 256.922 59.006 256.922 59.856 249.419 115.365 249.419 114.515 256.922"/><polygon class="cls-2" points="110.541 292.004 55.031 292.004 55.881 284.5 111.391 284.5 110.541 292.004"/><polygon class="cls-1" points="54.807 327.699 46.115 327.699 76.547 59.077 85.239 59.077 54.807 327.699"/><polygon class="cls-1" points="111.369 327.699 102.677 327.699 133.109 59.077 141.801 59.077 111.369 327.699"/><rect class="cls-2" x="339.6438" y="43.6807" width="104.6961" height="284.018"/><rect class="cls-1" x="345.3751" y="49.9168" width="93.2336" height="46.3291"/><rect class="cls-3" x="357.0333" y="67.4139" width="28.8321" height="28.832"/><rect class="cls-3" x="396.2201" y="75.7246" width="20.5213" height="20.5213"/><rect class="cls-1" x="345.3751" y="101.1064" width="93.2336" height="46.3291"/><rect class="cls-3" x="357.0333" y="118.6034" width="13.8796" height="28.8321"/><rect class="cls-3" x="385.8654" y="135.6196" width="30.876" height="11.8159"/><rect class="cls-3" x="380.0003" y="117.9876" width="29.978" height="17.632"/><rect class="cls-1" x="345.3751" y="152.296" width="93.2336" height="46.3291"/><rect class="cls-3" x="380.0003" y="169.793" width="5.8651" height="28.8321"/><rect class="cls-3" x="396.2201" y="159.6054" width="36" height="39.0197"/><rect class="cls-1" x="345.3751" y="203.4856" width="93.2336" height="46.3291"/><rect class="cls-3" x="357.0333" y="220.9826" width="28.8321" height="28.8321"/><rect class="cls-3" x="396.2201" y="229.2934" width="20.5213" height="20.5213"/><rect class="cls-1" x="345.3751" y="254.6752" width="93.2336" height="46.3291"/><rect class="cls-3" x="357.0333" y="272.1722" width="28.8321" height="28.8321"/><rect class="cls-3" x="396.2201" y="280.483" width="20.5213" height="20.5213"/><rect class="cls-3" x="354.286" y="29.3964" width="31.5794" height="14.2843"/><rect class="cls-3" x="397.9673" y="36.5386" width="16.2528" height="7.1421"/><rect class="cls-1" x="97.3636" y="301.3374" width="90.6731" height="81.3139" transform="translate(285.4003 629.0361) rotate(180)"/><rect class="cls-4" x="156.4802" y="301.3374" width="31.5565" height="81.3139" transform="translate(344.5169 629.0361) rotate(180)"/><rect class="cls-2" x="79.319" y="236.824" width="90.6731" height="66.1896" transform="translate(249.3111 484.885) rotate(180)"/><rect class="cls-1" x="138.4356" y="236.824" width="31.5565" height="66.1896" transform="translate(308.4277 484.885) rotate(180)"/><rect class="cls-5" x="100.6007" y="204.4254" width="87.4361" height="32.3964" transform="translate(288.6375 386.2946) rotate(180)"/><rect class="cls-3" x="157.6069" y="204.4254" width="30.4299" height="32.3964" transform="translate(345.6437 386.2946) rotate(180)"/><rect class="cls-3" x="65.6772" y="29.3964" width="123.8642" height="7.1422"/><rect class="cls-2" x="74.9028" y="19.3001" width="17.9873" height="10.0963"/><rect class="cls-3" x="97.04" y="10.3331" width="19.0634" height="19.0633"/><rect class="cls-1" x="122.97" y="19.8648" width="9.5316" height="9.5316"/><path class="cls-2" d="M148.6401,79.7514a4.934,4.934,0,1,1-4.9339-4.934A4.93392,4.93392,0,0,1,148.6401,79.7514Z" transform="translate(0 -54.9526)"/><polygon class="cls-1" points="154.881 29.396 160.872 10.333 170.765 10.333 176.231 29.733 154.881 29.396"/></g><g id="Background_Simple" data-name="Background Simple"><path class="cls-6" d="M104.5557,101.625c27.9192-59.4488,127.0587-51.0616,165.317-9.2554s50.6958,68.5991,85.2083,52.9829,78.5176-11.4396,81.0425,38.1644S398.2106,291.7801,334.0339,309.1318s-64.1612,78.7591-149.0998,66.3685c-46.31-6.7556-47.3651-56.8603-40.8254-98.3012S72.1773,170.5686,104.5557,101.625Z" transform="translate(0 -54.9526)"/><path class="cls-7" d="M104.5557,101.625c27.9192-59.4488,127.0587-51.0616,165.317-9.2554s50.6958,68.5991,85.2083,52.9829,78.5176-11.4396,81.0425,38.1644S398.2106,291.7801,334.0339,309.1318s-64.1612,78.7591-149.0998,66.3685c-46.31-6.7556-47.3651-56.8603-40.8254-98.3012S72.1773,170.5686,104.5557,101.625Z" transform="translate(0 -54.9526)"/></g><g id="Shadow"><ellipse id="_Path_" data-name="&lt;Path&gt;" class="cls-2" cx="250.00027" cy="361.2854" rx="193.88917" ry="11.3234"/></g><g id="Screen"><path class="cls-6" d="M327.622,118.3727V414.8432a4.32889,4.32889,0,0,1-4.3964,4.3346H185.2502a3.83708,3.83708,0,0,1-2.7593-1.1119,3.95091,3.95091,0,0,1-1.1738-2.8623V118.0123a3.50332,3.50332,0,0,1,3.3667-3.6344h39.1863a2.76255,2.76255,0,0,1,2.5227,1.7606l1.6266,3.9948a2.75751,2.75751,0,0,0,2.5224,1.7503h47.9481a2.72823,2.72823,0,0,0,2.5225-1.7194l1.6268-4.0154a2.76132,2.76132,0,0,1,2.5225-1.7709h38.6199A3.9548,3.9548,0,0,1,327.622,118.3727Z" transform="translate(0 -54.9526)"/><g class="cls-8"><path class="cls-9" d="M247.1382,121.879,205.0196,279.6436v.0094l-.4689,1.7726v.0094l-.7597,2.8416v.0094l-.4783,1.7725L181.3202,368.439V268.7365l41.2089-154.3603h1.3411a2.75959,2.75959,0,0,1,2.523,1.7632l1.6224,3.9952a2.75521,2.75521,0,0,0,2.5228,1.7444Z" transform="translate(0 -54.9526)"/><polygon class="cls-9" points="327.624 147.497 327.624 247.199 301.355 345.598 300.718 347.99 296.385 364.224 269.769 364.224 274.101 347.999 274.795 345.392 278.275 332.356 278.969 329.749 280.366 324.534 281.06 321.927 282.448 316.713 283.142 314.105 305.041 232.091 305.041 232.081 306.054 228.292 306.054 228.283 327.624 147.497"/><path class="cls-9" d="M261.5624,121.879,219.7062,278.6589l-.2532.9379-2.2883,8.5907-.2533.9378L182.4925,418.0699a3.96613,3.96613,0,0,1-1.1723-2.8698v-15.165l29.6077-110.9098.2532-.9378,2.2885-8.5907.253-.9379L255.5789,121.879Z" transform="translate(0 -54.9526)"/></g><rect class="cls-10" x="181.3171" y="78.7507" width="146.3049" height="272.3473"/><path class="cls-6" d="M299.4695,253.38h0a5.096,5.096,0,0,0,5.096-5.096V167.8321a5.096,5.096,0,0,0-5.096-5.096h0a5.096,5.096,0,0,0-5.096,5.096V248.284A5.096,5.096,0,0,0,299.4695,253.38Z" transform="translate(0 -54.9526)"/><path class="cls-11" d="M299.4697,251.3799a3.0996,3.0996,0,0,1-3.0962-3.0957V167.832a3.096,3.096,0,0,1,6.1919,0v80.4522A3.09911,3.09911,0,0,1,299.4697,251.3799Z" transform="translate(0 -54.9526)"/><circle class="cls-6" cx="299.4695" cy="175.75958" r="7.38862" transform="translate(78.0096 388.25589) rotate(-80.7825)"/><path class="cls-6" d="M269.4695,253.38h0a5.096,5.096,0,0,0,5.096-5.096V167.8321a5.096,5.096,0,0,0-5.096-5.096h0a5.096,5.096,0,0,0-5.096,5.096V248.284A5.096,5.096,0,0,0,269.4695,253.38Z" transform="translate(0 -54.9526)"/><path class="cls-11" d="M269.4697,251.3799a3.0996,3.0996,0,0,1-3.0962-3.0957V167.832a3.096,3.096,0,0,1,6.1919,0v80.4522A3.09911,3.09911,0,0,1,269.4697,251.3799Z" transform="translate(0 -54.9526)"/><circle class="cls-6" cx="269.4695" cy="235.75957" r="7.38862" transform="translate(-6.41016 409.0323) rotate(-80.7825)"/><path class="cls-6" d="M239.4695,253.38h0a5.096,5.096,0,0,0,5.096-5.096V167.8321a5.096,5.096,0,0,0-5.096-5.096h0a5.096,5.096,0,0,0-5.096,5.096V248.284A5.096,5.096,0,0,0,239.4695,253.38Z" transform="translate(0 -54.9526)"/><path class="cls-11" d="M239.4697,251.3799a3.0996,3.0996,0,0,1-3.0962-3.0957V167.832a3.096,3.096,0,0,1,6.1919,0v80.4522A3.09911,3.09911,0,0,1,239.4697,251.3799Z" transform="translate(0 -54.9526)"/><circle class="cls-6" cx="239.4695" cy="195.75958" r="7.38862" transform="translate(7.87881 345.82699) rotate(-80.7825)"/><path class="cls-6" d="M209.4695,253.38h0a5.096,5.096,0,0,0,5.096-5.096V167.8321a5.096,5.096,0,0,0-5.096-5.096h0a5.096,5.096,0,0,0-5.096,5.096V248.284A5.096,5.096,0,0,0,209.4695,253.38Z" transform="translate(0 -54.9526)"/><path class="cls-11" d="M209.4697,251.3799a3.0996,3.0996,0,0,1-3.0962-3.0957V167.832a3.096,3.096,0,0,1,6.1919,0v80.4522A3.09911,3.09911,0,0,1,209.4697,251.3799Z" transform="translate(0 -54.9526)"/><circle class="cls-6" cx="209.4695" cy="225.75958" r="7.38862" transform="translate(-46.92833 341.40889) rotate(-80.7825)"/><circle class="cls-12" cx="299.4695" cy="175.75958" r="7.38862" transform="translate(78.0096 388.25589) rotate(-80.7825)"/><path class="cls-12" d="M299.4697,181.1484a5.38865,5.38865,0,1,1,5.3887-5.3886A5.39481,5.39481,0,0,1,299.4697,181.1484Z" transform="translate(0 -54.9526)"/><circle class="cls-12" cx="269.4695" cy="235.75957" r="7.38862" transform="translate(-6.41016 409.0323) rotate(-80.7825)"/><path class="cls-12" d="M269.4697,241.1484a5.38865,5.38865,0,1,1,5.3887-5.3886A5.39455,5.39455,0,0,1,269.4697,241.1484Z" transform="translate(0 -54.9526)"/><circle class="cls-12" cx="239.4695" cy="195.75958" r="7.38862" transform="translate(7.87881 345.82699) rotate(-80.7825)"/><path class="cls-12" d="M239.4697,201.1484a5.38865,5.38865,0,1,1,5.3887-5.3886A5.39481,5.39481,0,0,1,239.4697,201.1484Z" transform="translate(0 -54.9526)"/><circle class="cls-12" cx="209.4695" cy="225.75958" r="7.38862" transform="translate(-46.92833 341.40889) rotate(-80.7825)"/><path class="cls-12" d="M209.4697,231.1484a5.38865,5.38865,0,1,1,5.3887-5.3886A5.39481,5.39481,0,0,1,209.4697,231.1484Z" transform="translate(0 -54.9526)"/><rect class="cls-6" x="188.3895" y="216.6111" width="132.16" height="123.797" rx="2.7511"/><rect class="cls-11" x="188.3895" y="216.6111" width="132.16" height="123.797" rx="2.7511"/><path class="cls-12" d="M242.5453,351.807v10.6422l5.48.5161a28.42291,28.42291,0,0,0,4.0867,9.8296l-3.52,4.2515,7.525,7.5255,4.2519-3.52a28.42093,28.42093,0,0,0,9.8292,4.0867l.5161,5.48h10.6422l.5161-5.48a28.4181,28.4181,0,0,0,9.8296-4.0867l4.252,3.52,7.525-7.5255-3.5195-4.2515a28.44214,28.44214,0,0,0,4.0867-9.8296l5.4795-.5161V351.807l-5.4795-.5161a28.433,28.433,0,0,0-4.0867-9.8297l3.5195-4.2519-7.525-7.5246-4.2515,3.5196a28.4246,28.4246,0,0,0-9.8301-4.0867l-.5161-5.4795H270.7142l-.5161,5.4795a28.42612,28.42612,0,0,0-9.8296,4.0867l-4.2515-3.5196-7.525,7.5246,3.52,4.2519a28.42433,28.42433,0,0,0-4.0872,9.8297Zm33.49-9.0856a14.4067,14.4067,0,1,1-14.4062,14.4067A14.4067,14.4067,0,0,1,276.0353,342.7214Z" transform="translate(0 -54.9526)"/><path class="cls-13" d="M199.4132,321.247v8.3396l4.2937.4044a22.28554,22.28554,0,0,0,3.2027,7.7029l-2.758,3.3315,5.8965,5.8969,3.332-2.7584a22.27292,22.27292,0,0,0,7.7024,3.2026l.4044,4.2938h8.3391l.4043-4.2938a22.2754,22.2754,0,0,0,7.7029-3.2026l3.3315,2.7584,5.897-5.8969-2.7585-3.3315a22.28554,22.28554,0,0,0,3.2027-7.7029l4.2937-.4044V321.247l-4.2937-.4043a22.28034,22.28034,0,0,0-3.2027-7.7025l2.7585-3.3314-5.897-5.897-3.3315,2.758a22.28429,22.28429,0,0,0-7.7029-3.2022l-.4043-4.2937h-8.3391l-.4044,4.2937a22.2883,22.2883,0,0,0-7.7029,3.2022l-3.3315-2.758-5.8965,5.897,2.758,3.3314a22.28034,22.28034,0,0,0-3.2027,7.7025Zm26.2434-7.1192a11.2893,11.2893,0,1,1-11.289,11.289A11.28908,11.28908,0,0,1,225.6566,314.1278Z" transform="translate(0 -54.9526)"/><path class="cls-14" d="M245.9229,295.5012v7.0045l3.607.3398a18.70585,18.70585,0,0,0,2.6895,6.4699l-2.3168,2.7979,4.9533,4.9532,2.7978-2.3167a18.70616,18.70616,0,0,0,6.47,2.6894l.3397,3.6071h7.0041l.3397-3.6066a18.71218,18.71218,0,0,0,6.4699-2.6899l2.7984,2.3167,4.9532-4.9532-2.3167-2.7979a18.7249,18.7249,0,0,0,2.6894-6.4699l3.6071-.3398-.0005-7.0045-3.6061-.3392a18.71828,18.71828,0,0,0-2.6899-6.47l2.3167-2.7983-4.9532-4.9533-2.7984,2.3168a18.70835,18.70835,0,0,0-6.4699-2.69l-.3397-3.606h-7.0041l-.3397,3.606a18.72649,18.72649,0,0,0-6.47,2.69l-2.7978-2.3168-4.9533,4.9533,2.3168,2.7983a18.70884,18.70884,0,0,0-2.69,6.47Zm22.0425-5.9796a9.48215,9.48215,0,1,1-9.4821,9.4821A9.482,9.482,0,0,1,267.9654,289.5216Z" transform="translate(0 -54.9526)"/><polygon class="cls-12" points="233.689 268.312 227.809 262.432 219.776 264.584 217.624 272.617 223.504 278.497 231.537 276.345 233.689 268.312"/><polygon class="cls-15" points="277.334 291.955 267.833 295.941 266.535 306.162 274.737 312.396 284.238 308.41 285.536 298.19 277.334 291.955"/><polygon class="cls-13" points="273.872 247.461 273.872 240.641 267.966 237.232 262.06 240.641 262.06 247.461 267.966 250.871 273.872 247.461"/></g><g id="Character_2" data-name="Character 2"><path class="cls-16" d="M411.1922,237.6109l10.6381,8.6412s2.6018.0539,3.419.913,3.9581,7.2437,3.5116,8.1149-5.6958,2.5919-6.8029,1.5622-3.0291-6.9375-2.9915-7.5682l-13.5948-9.1191Z" transform="translate(0 -54.9526)"/><path class="cls-17" d="M417.0901,241.41,414.71,246.6s-14.6299-6.85-17.7998-10.84c-.8101-1.03-1.9302-2.67-3.1402-4.54-1.99-3.09-4.24-6.81-5.8-9.42-1.1599-1.95-1.94-3.28-1.94-3.28l8.2801-13.06c1.81,1.39,7.3501,23.71,8.3398,24.91C403.6401,231.57,417.0901,241.41,417.0901,241.41Z" transform="translate(0 -54.9526)"/><path class="cls-18" d="M393.77,231.22c-1.99-3.09-4.24-6.81-5.8-9.42l3.8501-9.5S393.9102,223.2,393.77,231.22Z" transform="translate(0 -54.9526)"/><path class="cls-16" d="M326.3265,188.0494l-11.2176-7.9753s-1.3342-2.2344-2.485-2.5195c-1.1509-.2853-8.2534.1443-8.7895.9633-.536.8192.5657,6.2323,2.0083,6.6849,1.4424.4526,7.5275-.8001,8.057-1.1449l11.3938,7.8706Z" transform="translate(0 -54.9526)"/><polygon class="cls-16" points="414.85 356.84 408.573 357.948 405.998 349.389 403.649 341.533 410.887 339.005 412.989 348.447 414.85 356.84"/><polygon class="cls-18" points="413.023 348.641 406.029 349.561 403.664 341.619 410.895 339.048 413.023 348.641"/><polygon class="cls-16" points="372.941 356.998 366.567 356.998 365.52 348.445 364.573 340.463 372.14 339.312 372.568 348.693 372.941 356.998"/><polygon class="cls-18" points="372.568 349.253 365.52 348.944 364.573 340.712 372.14 339.437 372.568 349.253"/><path class="cls-6" d="M413.6139,396.7273l-10.3195,1.8189c-10.4139-25.945-17.8212-47.6019-23.0519-65.574-2.8177-9.6976-5.0503-18.3208-6.7372-25.9732l.4345,28.2444v63.7075H363.5333c-25.4924-121-7.4262-149.1292-7.4262-149.1292l30.4968-5.0984a138.83624,138.83624,0,0,1,2.5541,17.124l1.3759,10.1122,11.9216,61.5734Z" transform="translate(0 -54.9526)"/><polygon class="cls-6" points="401.676 342.319 414.477 338.075 414.304 343.52 403.718 346.896 401.676 342.319"/><polygon class="cls-19" points="401.676 342.319 414.477 338.075 414.304 343.52 403.718 346.896 401.676 342.319"/><polygon class="cls-6" points="362.166 342.911 375.509 340.958 374.392 346.289 363.38 347.773 362.166 342.911"/><polygon class="cls-19" points="362.166 342.911 375.509 340.958 374.392 346.289 363.38 347.773 362.166 342.911"/><path class="cls-16" d="M382.524,192.3305a1.49235,1.49235,0,0,1-.2661.1459,11.22764,11.22764,0,0,1-4.155,1.4027c-4.255.4156-7.0037-.5172-8.6014-2.6259l-.0095-.0012c-2.2143-3.1393-2.2126-8.1904-1.0686-14.1334a22.67784,22.67784,0,0,1,2.2193-6.827c.0118-.0175.0208-.0865.0325-.1039.0471-.0699.0886-.1709.1358-.2407a8.24769,8.24769,0,0,1,6.6589-4.2092,16.71466,16.71466,0,0,1,3.5935.0634C392.7609,167.2001,392.3453,186.823,382.524,192.3305Z" transform="translate(0 -54.9526)"/><path class="cls-18" d="M382.2579,192.4764a10.95053,10.95053,0,0,1-4.1337,1.2392c-4.255.4156-6.9861-.6527-8.5802-2.7895a11.74111,11.74111,0,0,0,7.4899.3572A6.12651,6.12651,0,0,1,382.2579,192.4764Z" transform="translate(0 -54.9526)"/><path class="cls-16" d="M383.1336,202.0414c1.05,3.2681-3.1402,5.0524-3.1402,5.0524-7.3685-2.3257-9.0507-5.9579-9.0507-5.9579,5.5976-3.6555,3.036-12.1918,3.036-12.1918l1.2586.4731,8.5866.8212s-1.8973,4.7151-2.1065,5.7679c.0009.0094-.0075.0197-.0067.029C380.6504,201.5371,383.1336,202.0414,383.1336,202.0414Z" transform="translate(0 -54.9526)"/><path class="cls-17" d="M370.648,170.2136s-1.7102,8.1089,5.5952,12.6374c0,0,2.2257,8.9437,7.1177,9.7027,6.6694,1.0347,13.805-7.7183,12.7493-17.7159C394.7412,161.8728,375.8246,158.3708,370.648,170.2136Z" transform="translate(0 -54.9526)"/><path class="cls-16" d="M372.6177,179.9871c.1691-1.2776,1.4758-3.2902,3.4243-2.7404,2.0166.5691,2.4964,5.7854-2.7036,6.2602C372.5923,183.5753,372.265,182.6527,372.6177,179.9871Z" transform="translate(0 -54.9526)"/><path class="cls-17" d="M365.8929,410.7431h7.1141a.65026.65026,0,0,1,.6315.5089l1.4607,6.597a1.09371,1.09371,0,0,1-1.0838,1.3194c-2.9121-.0471-3.1465-.2262-6.8031-.2262-2.2524,0-9.0473.2356-12.1573.2356s-3.5152-3.0723-2.243-3.355c5.7111-1.244,10.0086-2.9687,11.8369-4.6085A1.79012,1.79012,0,0,1,365.8929,410.7431Z" transform="translate(0 -54.9526)"/><path class="cls-6" d="M363.4426,412.0436a2.21507,2.21507,0,0,1-1.4231-.3769,1.03658,1.03658,0,0,1-.3675-.9425.52742.52742,0,0,1,.3016-.49c.8199-.4241,3.2136,1.0461,3.4775,1.2157a.1603.1603,0,0,1,.0848.1696.17894.17894,0,0,1-.1319.1508A8.86937,8.86937,0,0,1,363.4426,412.0436Zm-1.1026-1.5361a.40592.40592,0,0,0-.2262.047c-.0471,0-.1037.066-.1131.2073a.72576.72576,0,0,0,.2356.6316,3.6009,3.6009,0,0,0,2.6388.1319A7.18979,7.18979,0,0,0,362.34,410.5075Z" transform="translate(0 -54.9526)"/><path class="cls-6" d="M365.3369,411.7798h-.0848c-.7634-.4147-2.243-2.0452-2.0922-2.8273a.57468.57468,0,0,1,.5654-.4618.9422.9422,0,0,1,.7446.2262c.8576.6973,1.0366,2.8273,1.046,2.9308a.18855.18855,0,0,1-.0848.1603A.16037.16037,0,0,1,365.3369,411.7798Zm-1.489-3.0064h-.0849c-.2261,0-.245.132-.2544.1791-.0943.4806.8482,1.7152,1.6115,2.2901a4.15539,4.15539,0,0,0-.8764-2.3184A.60292.60292,0,0,0,363.8479,408.7734Z" transform="translate(0 -54.9526)"/><path class="cls-17" d="M408.3288,410.7431h7.1141a.65007.65007,0,0,1,.6314.5089l1.4608,6.597a1.09371,1.09371,0,0,1-1.0838,1.3194c-2.9121-.0471-3.1465-.2262-6.8031-.2262-2.2524,0-9.0473.2356-12.1573.2356s-3.5153-3.0723-2.243-3.355c5.7111-1.244,10.0086-2.9687,11.8369-4.6085A1.79012,1.79012,0,0,1,408.3288,410.7431Z" transform="translate(0 -54.9526)"/><path class="cls-6" d="M405.8785,412.0436a2.21492,2.21492,0,0,1-1.4231-.3769,1.03658,1.03658,0,0,1-.3675-.9425.52749.52749,0,0,1,.3015-.49c.82-.4241,3.2137,1.0461,3.4776,1.2157a.1603.1603,0,0,1,.0848.1696.17894.17894,0,0,1-.1319.1508A8.86937,8.86937,0,0,1,405.8785,412.0436Zm-1.1027-1.5361a.40541.40541,0,0,0-.2261.047c-.0472,0-.1037.066-.1131.2073a.72576.72576,0,0,0,.2356.6316,3.6009,3.6009,0,0,0,2.6388.1319A7.19027,7.19027,0,0,0,404.7758,410.5075Z" transform="translate(0 -54.9526)"/><path class="cls-6" d="M407.7728,411.7798h-.0849c-.7633-.4147-2.2429-2.0452-2.0922-2.8273a.57479.57479,0,0,1,.5655-.4618.94187.94187,0,0,1,.7445.2262c.8576.6973,1.0367,2.8273,1.0461,2.9308a.18855.18855,0,0,1-.0848.1603A.16015.16015,0,0,1,407.7728,411.7798Zm-1.4891-3.0064h-.0848c-.2262,0-.245.132-.2545.1791-.0942.4806.8482,1.7152,1.6116,2.2901a4.15551,4.15551,0,0,0-.8765-2.3184A.60273.60273,0,0,0,406.2837,408.7734Z" transform="translate(0 -54.9526)"/><path class="cls-17" d="M356.1071,249.9349s-5.8186-35.4484,4.1805-51.3419c0,0,19.9712-1.2414,34.0218,6.8685,0,0-5.8058,15.7826-6.67,44.4734Z" transform="translate(0 -54.9526)"/><path class="cls-18" d="M354.2857,222.8063c-.4302-4.81.961-9.44,1.201-13.52a39.21994,39.21994,0,0,0,6.5736-7.4949S363.8791,216.1516,354.2857,222.8063Z" transform="translate(0 -54.9526)"/><path class="cls-17" d="M362.7617,198.5248s-19.791-2.3196-22.768-3.5684c-1.8642-.7819-16.4113-10.288-16.4113-10.288l-3.4108,5.0789s14.8844,12.0196,17.3998,13.4009c5.9021,3.2411,19.1638,7.8127,19.1638,7.8127S364.748,205.3919,362.7617,198.5248Z" transform="translate(0 -54.9526)"/><path class="cls-17" d="M381.0634,167.8012s-8.5631-5.3651-12.5946-1.5507c-6.2224,5.8874,2.6473,14.3473,12.0399,18.3567Z" transform="translate(0 -54.9526)"/></g><g id="Character_1" data-name="Character 1"><g id="_Group_" data-name="&lt;Group&gt;"><path class="cls-6" d="M199.5305,274.1899l-70.1421-78.099a17.08376,17.08376,0,0,0-18.6663-23.9294,1.202,1.202,0,0,0-.6926,1.9831l9.2002,10.2438a1.50568,1.50568,0,0,1,.311,1.4732l-1.9926,6.1064a1.50543,1.50543,0,0,1-1.12,1.0059l-6.2848,1.3276a1.50529,1.50529,0,0,1-1.4312-.4671l-9.2005-10.2442a1.20213,1.20213,0,0,0-2.0462.4789,17.08165,17.08165,0,0,0,21.7911,21.1146l70.1421,78.099a17.08363,17.08363,0,0,0,18.6661,23.9295,1.20193,1.20193,0,0,0,.6926-1.983l-9.2002-10.2438a1.50573,1.50573,0,0,1-.311-1.4732l1.9928-6.1066a1.50543,1.50543,0,0,1,1.12-1.0059l6.2846-1.3275a1.50529,1.50529,0,0,1,1.4312.4671l9.2005,10.2442a1.20207,1.20207,0,0,0,2.0462-.4788,17.08176,17.08176,0,0,0-21.7909-21.1148Z" transform="translate(0 -54.9526)"/><path class="cls-20" d="M199.5305,274.1899l-70.1421-78.099a17.08376,17.08376,0,0,0-18.6663-23.9294,1.202,1.202,0,0,0-.6926,1.9831l9.2002,10.2438a1.50568,1.50568,0,0,1,.311,1.4732l-1.9926,6.1064a1.50543,1.50543,0,0,1-1.12,1.0059l-6.2848,1.3276a1.50529,1.50529,0,0,1-1.4312-.4671l-9.2005-10.2442a1.20213,1.20213,0,0,0-2.0462.4789,17.08165,17.08165,0,0,0,21.7911,21.1146l70.1421,78.099a17.08363,17.08363,0,0,0,18.6661,23.9295,1.20193,1.20193,0,0,0,.6926-1.983l-9.2002-10.2438a1.50573,1.50573,0,0,1-.311-1.4732l1.9928-6.1066a1.50543,1.50543,0,0,1,1.12-1.0059l6.2846-1.3275a1.50529,1.50529,0,0,1,1.4312.4671l9.2005,10.2442a1.20207,1.20207,0,0,0,2.0462-.4788,17.08176,17.08176,0,0,0-21.7909-21.1148Z" transform="translate(0 -54.9526)"/><path class="cls-21" d="M120.2857,182.156s-20.8209,2.7316-23.5237,6.4465-2.853,7.1611,9.46,10.6936l3.6038-2.624s-5.1054-1.9521-4.5047-3.1533,14.9646-.7508,14.9646-.7508Z" transform="translate(0 -54.9526)"/><path class="cls-6" d="M128.1099,181.89,125.21,192.01l-4.8699.74-10.2,1.55-.3-4.08-.5901-8.06S119.27,180.14,128.1099,181.89Z" transform="translate(0 -54.9526)"/><path class="cls-18" d="M122.97,186.17l-2.6299,6.58-10.2,1.55-.3-4.08C115.02,186.19,122.97,186.17,122.97,186.17Z" transform="translate(0 -54.9526)"/><polygon class="cls-21" points="120.965 356.778 129.075 357.628 129.485 352.928 130.595 340.138 122.485 339.278 121.255 353.408 120.965 356.778"/><polygon class="cls-21" points="80.485 355.748 88.345 355.748 88.415 353.968 88.425 353.748 88.825 342.348 88.835 342.118 88.995 337.748 81.125 337.748 80.485 355.748"/><polygon class="cls-18" points="122.485 339.278 121.255 353.408 129.485 352.928 130.595 340.138 122.485 339.278"/><polygon class="cls-18" points="80.535 354.748 80.545 354.748 88.415 353.748 88.425 353.748 88.835 342.748 88.825 342.748 80.945 343.378 80.545 354.403 80.535 354.748"/><path class="cls-17" d="M89.4349,410.2278h-9.55a.68992.68992,0,0,0-.67.54l-1.55,7a1.16032,1.16032,0,0,0,1.15,1.4c3.09-.05,5.34-.24,9.22-.24,2.39,0,9.6.25,12.9.25s3.73-3.26,2.38-3.56c-6.06-1.32-10.62-3.15-12.56-4.89A1.8996,1.8996,0,0,0,89.4349,410.2278Z" transform="translate(0 -54.9526)"/><path class="cls-17" d="M129.9349,409.9778h-9.55a.68992.68992,0,0,0-.67.54l-1.55,7a1.16032,1.16032,0,0,0,1.15,1.4c3.09-.05,5.34-.24,9.22-.24,2.39,0,9.6.25,12.9.25s3.73-3.26,2.38-3.56c-6.06-1.32-10.62-3.15-12.56-4.89A1.8996,1.8996,0,0,0,129.9349,409.9778Z" transform="translate(0 -54.9526)"/><path class="cls-17" d="M131.3399,406.7009H119.8101s-3.3083-99.6844-15.7783-133.2044c1.5286,62.3334-13.1617,134.2044-13.1617,134.2044H79.48s5.2051-56.2716,5.2051-80.8787c0-43.608-11.9598-64.907-.315-93.1213h41.7198C136.3059,295.25,140.24,338.7009,131.3399,406.7009Z" transform="translate(0 -54.9526)"/><polygon class="cls-6" points="132.633 348.498 132.07 351.748 118.445 351.748 118.445 348.748 132.633 348.498"/><polygon class="cls-6" points="92.178 349.748 90.87 352.748 79.445 352.748 78.695 349.748 92.178 349.748"/><path class="cls-21" d="M162.026,185.5493a11.171,11.171,0,0,1-.9346.6917,11.05576,11.05576,0,0,1-7.8776,1.7069,9.852,9.852,0,0,1-8.3397-8.5106c-.7961-5.5416,2.0223-9.1685,6.2949-15.6793a10.66235,10.66235,0,0,1,18.1512.2149C173.5952,171.0128,167.5477,180.9292,162.026,185.5493Z" transform="translate(0 -54.9526)"/><path class="cls-18" d="M154.8811,188.0883a10.94262,10.94262,0,0,1-1.6673-.1404,9.90734,9.90734,0,0,1-7.0669-4.7681,11.612,11.612,0,0,1,2.6873-1.2931A15.35336,15.35336,0,0,1,154.8811,188.0883Z" transform="translate(0 -54.9526)"/><path class="cls-21" d="M136.3059,186.8749c1.0052,5.0763,9.3102,9.6291,9.3102,9.6291s5.66,2.1989,5.7614-.0037c-2.4325-2.512-2.8158-4.8-2.1436-6.8658a10.02682,10.02682,0,0,1,2.0647-3.3739,20.765,20.765,0,0,1,1.5427-1.595l-4.2054-13.8079C146.4813,176.3182,141.7659,185.8055,136.3059,186.8749Z" transform="translate(0 -54.9526)"/><path class="cls-17" d="M172.7881,164.924c-.8496-4.7471-3.2495-4.9622-3.2495-4.9622-.231-3.7819-9.1509-7.6019-14.9829-6.3767-5.8318,1.2253-9.8162,6.389-11.4128,11.1292-2.3255,6.9038-.9232,15.4752-.9232,15.4752l.0042.0034c4.7214,3.5954,9.6448,4.2605,11.1408,1.5941s5.1875-3.5808,5.1875-3.5808c2.2471,1.9542,5.8072.0172,5.8072.0172s4.0342-1.3937,4.726-5.3338C169.7773,168.9497,173.5039,168.9249,172.7881,164.924Z" transform="translate(0 -54.9526)"/><path class="cls-21" d="M158.3667,175.9635a5.04069,5.04069,0,0,0,.0225,4.316c.8724,1.4827,3.0357.3092,4.244-1.705,1.0591-1.7934,1.9338-4.7753.3429-5.475C161.3849,172.3999,159.1685,173.9551,158.3667,175.9635Z" transform="translate(0 -54.9526)"/><path class="cls-17" d="M159.3934,153.5437c8.7714-2.6182,15.829,11.7792,15.4819,19.4106-.2819,6.1995-6.7928,5.4475-6.7928,5.4475s3.5932-.2388,3.247-4.595c0,0-1.5573,5.3305-5.0469,1.8336s.6437-11.8374.6437-11.8374Z" transform="translate(0 -54.9526)"/><path class="cls-18" d="M103.0701,314.25a284.68429,284.68429,0,0,0-4.4099-28.78C86.8501,270.63,93.3,256.93,93.3,256.93c1.5799,9.53,10.73,16.57,10.73,16.57C104.3599,286.91,103.9399,300.76,103.0701,314.25Z" transform="translate(0 -54.9526)"/><path class="cls-6" d="M136.2864,184.5934s2.5371-1.8791,7.2187.8901a15.29146,15.29146,0,0,1,6.2236,8.0671Z" transform="translate(0 -54.9526)"/><path class="cls-6" d="M130.595,253.3809s0-24.3313,25.4378-53.7795c0,0-11.4233-15.946-27.9229-17.7147,0,0-30.4615,10.4575-47.0542,54.9924Z" transform="translate(0 -54.9526)"/><path class="cls-19" d="M156.03,199.6q-4.03485,4.68-7.25,9.16a114.37107,114.37107,0,0,0-10,16.55c-8.1799,16.66-8.1799,28.07-8.1799,28.07l-49.54-16.5c16.5898-44.54,47.0498-54.99,47.0498-54.99C144.6099,183.66,156.03,199.6,156.03,199.6Z" transform="translate(0 -54.9526)"/><path class="cls-6" d="M130.8999,249.89c-.1099.82-.1799,1.5-.22,2.04L81.73,235.12c.24-.63.49-1.25.74-1.86Z" transform="translate(0 -54.9526)"/><path class="cls-6" d="M131.76,244.94c-.1501.71-.29,1.37-.4001,1.99-16.96-6.55-36.2698-13.86-47.1997-17.64.2697-.62.5498-1.22.8298-1.82C97.1799,231.67,118.28,239.73,131.76,244.94Z" transform="translate(0 -54.9526)"/><path class="cls-6" d="M133.05,239.92c-.1999.67-.3801,1.32-.55,1.94-13.46-5.82-33.75-14.37-45.6099-18.29.3099-.61.6199-1.2.93-1.79C99.8999,225.8,119.74,234.15,133.05,239.92Z" transform="translate(0 -54.9526)"/><path class="cls-6" d="M134.72,234.79c-.23.66-.46,1.3-.67,1.92-13.1398-6.34-31.9899-15.01-44.1201-18.71.3401-.6.6902-1.19,1.0401-1.76C103.3101,220.06,121.75,228.53,134.72,234.79Z" transform="translate(0 -54.9526)"/><path class="cls-6" d="M136.79,229.62c-.28.63-.54,1.25-.78,1.87-12.5701-6.72-30.02-15.36-42.72-18.91.3899-.59.7901-1.18,1.19-1.75C107.3501,214.54,124.4102,222.98,136.79,229.62Z" transform="translate(0 -54.9526)"/><path class="cls-6" d="M139.23,224.39c-.3101.62-.6099,1.24-.8999,1.85C126.51,219.27,110.4299,210.78,97.04,207.3c.44-.59.8799-1.16,1.3301-1.73C111.8599,209.23,127.5901,217.52,139.23,224.39Z" transform="translate(0 -54.9526)"/><path class="cls-6" d="M142.04,219.17c-.3501.61-.6801,1.21-1.01,1.8-10.9699-7.08-25.78-15.32-39.79-18.84.5-.58,1-1.14,1.52-1.69C116.78,204.13,131.25,212.18,142.04,219.17Z" transform="translate(0 -54.9526)"/><path class="cls-6" d="M145.1602,214.06c-.3702.56-.7203,1.12-1.0701,1.68-10.0801-7.09-23.7-15.02-38.1301-18.63.57-.56,1.1301-1.1,1.6899-1.62C121.8799,199.29,135.22,207.08,145.1602,214.06Z" transform="translate(0 -54.9526)"/><path class="cls-6" d="M148.6401,208.95c-.3901.55-.77,1.09-1.1501,1.62-9.1499-6.99-21.6301-14.57-36.1599-18.33.6599-.54,1.2998-1.06,1.9299-1.55C127.45,194.64,139.6299,202.07,148.6401,208.95Z" transform="translate(0 -54.9526)"/><path class="cls-6" d="M152.45,203.92c-.42.53-.8299,1.05-1.23,1.58a91.62817,91.62817,0,0,0-33.71-17.9c.77-.52,1.51-.99,2.22-1.43A94.16839,94.16839,0,0,1,152.45,203.92Z" transform="translate(0 -54.9526)"/><path class="cls-6" d="M156.03,199.6c-.27.31-.53.62-.79.93a82.04784,82.04784,0,0,0-30.4199-17.2c1.2299-.61,2.1599-1,2.7099-1.22a83.68719,83.68719,0,0,1,25.6499,14.07.00979.00979,0,0,1,.01.01A40.60551,40.60551,0,0,1,156.03,199.6Z" transform="translate(0 -54.9526)"/><path class="cls-18" d="M148.78,208.76a114.37107,114.37107,0,0,0-10,16.55,25.01093,25.01093,0,0,1,9.24-19.81Z" transform="translate(0 -54.9526)"/><path class="cls-21" d="M156.0328,207.1231v30.8248l11.9346,21.4724,4.9116,5.4688s-5.7361,3.5438-7.3186,1.2669a36.87547,36.87547,0,0,1-3.1648-6.7357s-11.8574-15.9255-13.7143-19.7334-2.5344-26.8065-2.5344-26.8065Z" transform="translate(0 -54.9526)"/><path class="cls-6" d="M156.0328,199.6014c1.8793,5.2008,1.8643,22.9227,1.8643,22.9227l-13.3235,1.1656-1.0685-6.9997a24.49679,24.49679,0,0,1,4.5828-12.6131A11.15464,11.15464,0,0,1,156.0328,199.6014Z" transform="translate(0 -54.9526)"/></g></g></svg>