<svg id="Layer_1" data-name="Layer 1" xmlns="http://www.w3.org/2000/svg" viewBox="0 0 700 700"><defs><style>.cls-1{opacity:0.41;}.cls-2,.cls-3,.cls-5{fill:#e1e2fe;}.cls-3{opacity:0.32;}.cls-4{opacity:0.83;}.cls-5,.cls-9{opacity:0.81;}.cls-10,.cls-6{opacity:0.66;}.cls-10,.cls-13,.cls-20,.cls-7{fill:#fff;}.cls-8{opacity:0.84;}.cls-11{fill:#3e479b;}.cls-12{fill:#6d6cd4;}.cls-13{opacity:0.12;}.cls-14{fill:#c384ef;}.cls-15{fill:#c5d9ff;}.cls-16{fill:#599af2;}.cls-17{opacity:0.35;}.cls-18{fill:#ecf1f7;}.cls-19{fill:#4c65ba;opacity:0.36;}.cls-20{opacity:0.47;}.cls-21{fill:#bb8ff9;opacity:0.39;}</style></defs><title>Untitled-1</title><g class="cls-1"><path class="cls-2" d="M1.217,453.37946a271.87184,271.87184,0,0,1-.83539-40.06075c3.35191-62.706,28.38747-123.15185,67.222-167.07277,13.85509-15.66955,29.77694-29.91808,38.357-50.01837,14.44906-33.84957,11.57691-71.58209,29.87757-105.24678,18.322-33.7043,45.99323-60.79279,77.88608-75.76733,95.09216-44.64834,233.40987,10.42638,227.16168,146.17373-.02241.48664-.0391,1.19391-.05131,2.08851-.38531,28.14272,19.66928,50.57878,43.89927,49.7888,89.42326-2.916,169.8203,72.17563,190.7242,172.16032,13.44335,64.30055-.7408,136.51823-39.74984,184.92335-29.11837,36.13223-69.38536,57.44115-109.93241,72.85765-81.29781,30.91028-167.81367,41.56553-253.257,36.75171-79.98019-4.50628-165.08138-25.94067-219.66745-93.71271C23.73244,550.09191,5.86747,502.55966,1.217,453.37946Z"/></g><path class="cls-3" d="M28.26287,182.16935c-8.99206,29.36764-11.446,61.45378-5.62408,91.81206,7.82747,40.81673,34.79005,76.69732,30.19364,120.22956-2.7581,26.12274-2.26722,50.06691-2.82286,75.73263-1.1408,52.70181,31.33737,96.33078,69.43668,118.16752,30.94447,17.73579,66.12958,22.4138,100.09321,19.0245,30.56782-3.05039,60.671-12.15,89.72712-23.42739,28.00107-10.868,55.18251-24.37455,85.37506-23.36307,25.11021.841,48.39308,11.42315,72.22383,18.7711,56.8944,17.54268,124.20172,15.0485,172.55877-22.97089,53.00648-41.67557,74.41516-120.75615,55.89286-189.86316-9.935-37.06749-23.1997-69.19445-18.40174-108.68883,2.36011-19.42773,5.88157-39.20085,2.63136-58.46262-2.99133-17.72738-11.56222-33.67924-21.72892-47.56765-27.413-37.44829-66.435-61.32621-107.00291-75.37567-46.02011-15.93766-97.11394-24.6269-144.9676-16.37506C312.89,75.84169,292.66081,60.25188,195.48813,44.61,130.39254,34.13229,69.28828,92.815,39.62339,153.3537A195.90593,195.90593,0,0,0,28.26287,182.16935Z"/><g class="cls-4"><path class="cls-5" d="M73.2541,266.98077c13.3891-20.029,34.086-33.6335,44.22647-56.65,12.14027-27.55532,9.58186-60.07482,20.42507-88.22631,16.02216-41.59707,45.03976-76.92794,81.37663-96.331,17.51226-9.35129,36.73239-15.03868,55.481-13.40826,28.90246,2.51311,53.83323,22.0211,73.32893,45.31863,29.015,34.6732,49.53138,83.91718,84.35375,111.69839,19.2161,15.33063,41.79819-.93455,62.15711-6.09289A124.8258,124.8258,0,0,1,563.5468,165.924c40.50841,13.07513,75.39429,45.97473,92.8404,89.35872,18.62585,46.31766,15.97827,110.35114-18.98288,150.17252-16.17394,18.4222-38.10765,30.73539-50.11081,52.80187-15.06361,27.69306-16.82959,65.12487-21.03482,95.91529a217.77962,217.77962,0,0,1-36.729,94.621q-.32758.46763-.65765.93279c-33.47244,47.1795-90.599,63.08895-138.75573,39.43392L287.6494,638.82747C183.68017,587.757,104.75112,505.4625,66.85738,386.1957c-8.2001-25.80907-11.17891-80.83122-.73168-106.02484A76.1617,76.1617,0,0,1,73.2541,266.98077Z"/></g><g class="cls-6"><path class="cls-7" d="M566.29761,288.79349h-14.006a10.55563,10.55563,0,0,1-10.66275-10.42031V262.97836a6.95183,6.95183,0,0,0-4.64883-6.49091c-1.65422-.5933-3.30144-1.26006-4.8977-1.98275a7.28989,7.28989,0,0,0-8.05539,1.34843L512.88575,266.74a10.84244,10.84244,0,0,1-15.08191,0l-9.90412-9.6764a10.26574,10.26574,0,0,1,0-14.73577l11.14294-10.88667a6.8828,6.8828,0,0,0,1.37914-7.87177c-.743-1.5718-1.42651-3.18111-2.02744-4.78552a7.10307,7.10307,0,0,0-6.64486-4.54146H475.99471A10.55588,10.55588,0,0,1,465.33014,203.823V190.13773a10.55605,10.55605,0,0,1,10.66457-10.4203H491.7495a7.10176,7.10176,0,0,0,6.64486-4.54059c.60272-1.60861,1.28619-3.2181,2.02744-4.78463a6.8839,6.8839,0,0,0-1.37914-7.87265l-11.14294-10.88685a10.26553,10.26553,0,0,1,0-14.7356l9.90412-9.67727a10.85451,10.85451,0,0,1,15.08191,0l11.14115,10.88684a7.28546,7.28546,0,0,0,8.05539,1.34826c1.60864-.7276,3.25748-1.39366,4.89949-1.98171a6.95374,6.95374,0,0,0,4.647-6.49178V115.58663a10.55546,10.55546,0,0,1,10.66275-10.41943h14.006a10.55588,10.55588,0,0,1,10.66455,10.41943v15.39482a6.953,6.953,0,0,0,4.64881,6.49178c1.64022.58805,3.28906,1.25411,4.8959,1.981a7.28871,7.28871,0,0,0,8.05721-1.34756l11.14115-10.88684a10.85448,10.85448,0,0,1,15.08189,0l9.90412,9.67727a10.26553,10.26553,0,0,1,0,14.7356L619.5483,162.51956a6.87665,6.87665,0,0,0-1.379,7.87089c.74107,1.56829,1.42454,3.17778,2.02726,4.78639a7.10175,7.10175,0,0,0,6.64485,4.54059h15.7548a10.55605,10.55605,0,0,1,10.66457,10.4203V203.823a10.55588,10.55588,0,0,1-10.66457,10.41943h-15.7548a7.10307,7.10307,0,0,0-6.64485,4.54146c-.60093,1.60441-1.2844,3.21372-2.02565,4.78376a6.87694,6.87694,0,0,0,1.37735,7.87353l11.14294,10.88667a10.26574,10.26574,0,0,1,0,14.73577l-9.90412,9.6764a10.84242,10.84242,0,0,1-15.08189,0l-11.14115-10.88684a7.29124,7.29124,0,0,0-8.05721-1.34843c-1.59446.72269-3.24168,1.38945-4.8959,1.98275a6.95184,6.95184,0,0,0-4.64881,6.49091v15.39482A10.556,10.556,0,0,1,566.29761,288.79349Zm-37.25549-38.44927a11.01627,11.01627,0,0,1,4.54887.97937c1.50708.68149,3.063,1.31143,4.626,1.87142a10.47784,10.47784,0,0,1,7.00052,9.78335v15.39482a7.00338,7.00338,0,0,0,7.074,6.91379h14.006a7.00369,7.00369,0,0,0,7.07584-6.91379V262.97836a10.47782,10.47782,0,0,1,7.00049-9.78335c1.56307-.56,3.11913-1.18993,4.62424-1.87142a10.95446,10.95446,0,0,1,12.10312,2.05026l11.14115,10.88684a7.20426,7.20426,0,0,0,10.00745,0l9.904-9.67622a6.81105,6.81105,0,0,0,0-9.77739l-11.143-10.88685a10.337,10.337,0,0,1-2.09742-11.82589c.70088-1.48185,1.34577-3.00315,1.9153-4.51761a10.69708,10.69708,0,0,1,10.01267-6.84086h15.7548a7.00308,7.00308,0,0,0,7.07586-6.91292V190.13773a7.0037,7.0037,0,0,0-7.07586-6.91379h-15.7548a10.69747,10.69747,0,0,1-10.01267-6.84015c-.57133-1.51868-1.21622-3.0391-1.9153-4.5192a10.3348,10.3348,0,0,1,2.09742-11.82414l11.143-10.88685a6.81414,6.81414,0,0,0,0-9.77738l-9.904-9.6771a7.20578,7.20578,0,0,0-10.00745,0L597.1013,140.586a10.954,10.954,0,0,1-12.10312,2.05025c-1.51749-.6857-3.07353-1.31582-4.62244-1.87055a10.47813,10.47813,0,0,1-7.00229-9.78422V115.58663a7.003,7.003,0,0,0-7.07584-6.91292h-14.006a7.00264,7.00264,0,0,0-7.074,6.91292v15.39482a10.479,10.479,0,0,1-7.00052,9.78422c-1.55068.55473-3.10674,1.18485-4.626,1.87143a10.949,10.949,0,0,1-12.10131-2.05113l-11.14115-10.88685a7.2058,7.2058,0,0,0-10.00747,0l-9.904,9.6771a6.81414,6.81414,0,0,0,0,9.77738l11.14295,10.88685a10.3404,10.3404,0,0,1,2.09742,11.825c-.69906,1.47922-1.344,2.99964-1.9153,4.51832a10.69747,10.69747,0,0,1-10.01268,6.84015H475.99471a7.0037,7.0037,0,0,0-7.07586,6.91379V203.823a7.00308,7.00308,0,0,0,7.07586,6.91292H491.7495a10.69708,10.69708,0,0,1,10.01268,6.84086c.56953,1.51446,1.21444,3.03576,1.91709,4.52024a10.34158,10.34158,0,0,1-2.09921,11.82326l-11.14295,10.88685a6.81105,6.81105,0,0,0,0,9.77739l9.904,9.67622a7.206,7.206,0,0,0,10.00747,0l11.14115-10.88684A10.80386,10.80386,0,0,1,529.04212,250.34422Zm30.25336-5.23751c-27.1588,0-49.2554-21.5896-49.2554-48.12637,0-26.53764,22.0966-48.12724,49.2554-48.12724s49.2554,21.5896,49.2554,48.12724C608.55088,223.51711,586.4543,245.10671,559.29548,245.10671Zm0-92.7471c-25.18054,0-45.66669,20.01693-45.66669,44.62073s20.48615,44.61986,45.66669,44.61986,45.66669-20.01605,45.66669-44.61986S584.476,152.35961,559.29548,152.35961Z"/><g class="cls-8"><path class="cls-7" d="M540.22059,538.96393H522.74716a9.83211,9.83211,0,0,1-9.23588-6.31155q-.9881-2.63172-2.18716-5.15878a9.503,9.503,0,0,1,1.92877-10.92191l12.35681-12.0738a9.45659,9.45659,0,0,0,0-13.59248l-10.98343-10.73186a10.00061,10.00061,0,0,0-13.91109,0l-12.35665,12.07381a10.06666,10.06666,0,0,1-11.17811,1.88457q-2.58441-1.17-5.27971-2.137a9.62783,9.62783,0,0,1-6.45932-9.02437V465.89731a9.726,9.726,0,0,0-9.83665-9.61135h-15.533a9.72585,9.72585,0,0,0-9.83646,9.61135v17.07321a9.628,9.628,0,0,1-6.45951,9.02437q-2.69343.96516-5.27989,2.137a10.066,10.066,0,0,1-11.17776-1.88457l-12.35682-12.07381a10.0006,10.0006,0,0,0-13.91108,0l-10.98344,10.73186a9.45657,9.45657,0,0,0,0,13.59248l12.35682,12.0738a9.50275,9.50275,0,0,1,1.92876,10.92174q-1.19747,2.52573-2.18714,5.159a9.83216,9.83216,0,0,1-9.23591,6.31155H355.45588a9.72572,9.72572,0,0,0-9.83648,9.61118v15.17724a9.72572,9.72572,0,0,0,9.83648,9.61118H372.9293a9.83216,9.83216,0,0,1,9.23591,6.31155q.98778,2.63172,2.18714,5.159a9.50269,9.50269,0,0,1-1.92876,10.92173l-12.35682,12.07381a9.45656,9.45656,0,0,0,0,13.59247l10.98344,10.73186a10.0006,10.0006,0,0,0,13.91108,0l12.35682-12.0738a10.06634,10.06634,0,0,1,11.17794-1.88458q2.58441,1.17,5.27971,2.13705a9.628,9.628,0,0,1,6.45951,9.02436v17.07321a9.72585,9.72585,0,0,0,9.83646,9.61136h15.533a9.726,9.726,0,0,0,9.83665-9.61136V629.35694a9.62781,9.62781,0,0,1,6.45932-9.02436q2.69344-.96518,5.27971-2.13705a10.06632,10.06632,0,0,1,11.17793,1.88458l12.35683,12.0738a10.00061,10.00061,0,0,0,13.91109,0l10.98343-10.73186a9.45658,9.45658,0,0,0,0-13.59247l-12.35681-12.07381a9.50274,9.50274,0,0,1-1.92877-10.92173q1.19749-2.52547,2.18716-5.159a9.83211,9.83211,0,0,1,9.23588-6.31155h17.47343a9.72587,9.72587,0,0,0,9.83665-9.61118V548.57511A9.72587,9.72587,0,0,0,540.22059,538.96393Zm-92.38236,68.62878c-29.06926,0-52.63452-23.02552-52.63452-51.429s23.56526-51.429,52.63452-51.429,52.63453,23.02552,52.63453,51.429S476.9075,607.59271,447.83823,607.59271Z"/></g><path class="cls-7" d="M266.93658,641.21772h-11.765a9.152,9.152,0,0,1-9.24595-9.0333v-12.932a5.561,5.561,0,0,0-3.71665-5.19122c-1.38686-.495-2.7791-1.05827-4.13455-1.673a5.83577,5.83577,0,0,0-6.44407,1.077l-9.35989,9.14463a9.3961,9.3961,0,0,1-13.07475,0l-8.319-8.12932a8.88609,8.88609,0,0,1,0-12.77441l9.35991-9.14463a5.50161,5.50161,0,0,0,1.10118-6.29577c-.62461-1.31828-1.20024-2.676-1.71289-4.04073a5.67712,5.67712,0,0,0-5.31111-3.6331H191.07772a9.15184,9.15184,0,0,1-9.245-9.03348V558.063a9.1518,9.1518,0,0,1,9.245-9.03331h13.23606a5.674,5.674,0,0,0,5.31039-3.63152c.51606-1.37315,1.09241-2.73263,1.71361-4.04073a5.50369,5.50369,0,0,0-1.10118-6.29559l-9.35991-9.14639a8.88629,8.88629,0,0,1,0-12.77458l8.319-8.12933a9.41381,9.41381,0,0,1,13.07475,0l9.35989,9.14639a5.82378,5.82378,0,0,0,6.44317,1.07527c1.33787-.6061,2.72921-1.16767,4.13545-1.67278a5.56074,5.56074,0,0,0,3.71665-5.18964v-12.9336a9.15216,9.15216,0,0,1,9.24595-9.03348h11.765a9.152,9.152,0,0,1,9.24506,9.03348v12.9336a5.56034,5.56034,0,0,0,3.71754,5.18964c1.40624.50511,2.79758,1.06668,4.13456,1.67278a5.82565,5.82565,0,0,0,6.44406-1.07527l9.35991-9.14639a9.4129,9.4129,0,0,1,13.074,0l8.31989,8.12933a8.88627,8.88627,0,0,1,0,12.77458l-9.35989,9.14639a5.50585,5.50585,0,0,0-1.10228,6.29734c.62212,1.30635,1.19863,2.66741,1.71379,4.04056a5.67676,5.67676,0,0,0,5.31111,3.62994H331.0295a9.152,9.152,0,0,1,9.24524,9.03331v11.4954a9.152,9.152,0,0,1-9.24524,9.03348H317.79434a5.67732,5.67732,0,0,0-5.31111,3.6331c-.51265,1.363-1.089,2.72421-1.71379,4.04073a5.503,5.503,0,0,0,1.10228,6.29577l9.35989,9.14463a8.88607,8.88607,0,0,1,0,12.77441l-8.31989,8.12932a9.39518,9.39518,0,0,1-13.074,0l-9.35991-9.14463a5.83543,5.83543,0,0,0-6.44406-1.077c-1.36066.61644-2.752,1.178-4.13635,1.67454a5.55787,5.55787,0,0,0-3.71575,5.18964v12.932A9.1518,9.1518,0,0,1,266.93658,641.21772Zm-31.29426-32.85813a9.56667,9.56667,0,0,1,3.94076.84752c1.2661.57349,2.56539,1.09912,3.86127,1.56145a9.08649,9.08649,0,0,1,6.07,8.48384v12.932a5.59977,5.59977,0,0,0,5.65724,5.52679h11.765a5.59888,5.59888,0,0,0,5.65635-5.52679v-12.932a9.08286,9.08286,0,0,1,6.06923-8.48209c1.2939-.46233,2.59248-.988,3.86288-1.5632A9.50227,9.50227,0,0,1,293.0152,610.986l9.35989,9.14481a5.88887,5.88887,0,0,0,7.99924,0l8.31988-8.1295a5.4372,5.4372,0,0,0,0-7.816l-9.35989-9.14464a8.95987,8.95987,0,0,1-1.82055-10.249c.58352-1.231,1.12219-2.49979,1.59984-3.77354a9.27612,9.27612,0,0,1,8.68073-5.93267H331.0295a5.59907,5.59907,0,0,0,5.65653-5.527V558.063a5.59893,5.59893,0,0,0-5.65653-5.5268H317.79434a9.27706,9.27706,0,0,1-8.68073-5.92933c-.48106-1.28234-1.019-2.55117-1.59913-3.77354a8.96366,8.96366,0,0,1,1.81984-10.25077l9.35989-9.14638a5.4372,5.4372,0,0,0,0-7.816l-8.31988-8.12933a5.75909,5.75909,0,0,0-7.99924,0l-9.35989,9.14639a9.48877,9.48877,0,0,1-10.491,1.7771c-1.24762-.5649-2.54781-1.09052-3.862-1.5632a9.08043,9.08043,0,0,1-6.06923-8.48033v-12.9336a5.59891,5.59891,0,0,0-5.65635-5.527h-11.765a5.5998,5.5998,0,0,0-5.65724,5.527v12.9336a9.08092,9.08092,0,0,1-6.06815,8.48033c-1.31419.47268-2.61456.9983-3.86307,1.5632a9.487,9.487,0,0,1-10.49-1.7771l-9.36007-9.14639a5.76019,5.76019,0,0,0-8.00013,0l-8.319,8.12933a5.43761,5.43761,0,0,0,0,7.816l9.35991,9.14638a8.96147,8.96147,0,0,1,1.81982,10.249c-.58011,1.22254-1.11806,2.49295-1.60074,3.77529a9.27221,9.27221,0,0,1-8.67912,5.92933H191.07772a5.59877,5.59877,0,0,0-5.65634,5.5268v11.4954a5.59891,5.59891,0,0,0,5.65634,5.527h13.23606a9.27432,9.27432,0,0,1,8.68,5.93092c.47838,1.27392,1.01722,2.54433,1.59985,3.77529a8.95853,8.95853,0,0,1-1.81982,10.249l-9.35991,9.14464a5.43761,5.43761,0,0,0,0,7.816l8.319,8.1295a5.8902,5.8902,0,0,0,8.00013,0l9.36007-9.14481A9.3647,9.3647,0,0,1,235.64232,608.35959Zm25.41183-3.84034c-22.97275,0-41.66275-18.26192-41.66275-40.70851,0-22.44642,18.69-40.70834,41.66275-40.70834,22.97259,0,41.66259,18.26192,41.66259,40.70834C302.71674,586.25733,284.02674,604.51925,261.05415,604.51925Zm0-77.91034c-20.99431,0-38.074,16.68837-38.074,37.20183s17.07973,37.202,38.074,37.202,38.07388-16.68855,38.07388-37.202S282.04848,526.60891,261.05415,526.60891Z"/></g><g class="cls-9"><path class="cls-7" d="M647.59729,451.03566H624.20591a1.75373,1.75373,0,1,1,0-3.50652h23.39138a1.75373,1.75373,0,1,1,0,3.50652Z"/><path class="cls-7" d="M647.59729,488.69982H624.20591a1.75373,1.75373,0,1,1,0-3.50652h23.39138a1.75373,1.75373,0,1,1,0,3.50652Z"/><path class="cls-7" d="M664.13389,526.73725H521.90669a4.81737,4.81737,0,0,1-4.86611-4.75466V405.79672a4.81589,4.81589,0,0,1,4.86611-4.7529h142.2272A4.81589,4.81589,0,0,1,669,405.79672V521.98259A4.81737,4.81737,0,0,1,664.13389,526.73725ZM521.90669,404.55033a1.264,1.264,0,0,0-1.2774,1.24639V521.98259a1.26432,1.26432,0,0,0,1.2774,1.24814h142.2272a1.26442,1.26442,0,0,0,1.2774-1.24814V405.79672a1.26409,1.26409,0,0,0-1.2774-1.24639Z"/><path class="cls-10" d="M664.13389,526.73725H521.90669a4.81737,4.81737,0,0,1-4.86611-4.75466V405.79672a4.81589,4.81589,0,0,1,4.86611-4.7529h142.2272A4.81589,4.81589,0,0,1,669,405.79672V521.98259A4.81737,4.81737,0,0,1,664.13389,526.73725ZM521.90669,404.55033a1.264,1.264,0,0,0-1.2774,1.24639V521.98259a1.26432,1.26432,0,0,0,1.2774,1.24814h142.2272a1.26442,1.26442,0,0,0,1.2774-1.24814V405.79672a1.26409,1.26409,0,0,0-1.2774-1.24639Z"/><path class="cls-7" d="M647.59729,432.75655H536.12659a1.75373,1.75373,0,1,1,0-3.50651h111.4707a1.75373,1.75373,0,1,1,0,3.50651Z"/><path class="cls-7" d="M647.59729,469.313H536.12659a1.75373,1.75373,0,1,1,0-3.50652h111.4707a1.75373,1.75373,0,1,1,0,3.50652Z"/><path class="cls-7" d="M596.22528,451.03566H536.12659a1.75373,1.75373,0,1,1,0-3.50652h60.09869a1.75373,1.75373,0,1,1,0,3.50652Z"/><path class="cls-7" d="M596.22528,488.69982H536.12659a1.75373,1.75373,0,1,1,0-3.50652h60.09869a1.75373,1.75373,0,1,1,0,3.50652Z"/><path class="cls-7" d="M576.6573,506.1484H536.12659a1.75373,1.75373,0,1,1,0-3.50651H576.6573a1.75373,1.75373,0,1,1,0,3.50651Z"/></g><g class="cls-9"><path class="cls-7" d="M192.48844,259.29547H165.94886a1.75373,1.75373,0,1,1,0-3.50651h26.53958a1.75373,1.75373,0,1,1,0,3.50651Z"/><path class="cls-7" d="M192.48844,302.02847H165.94886a1.75373,1.75373,0,1,1,0-3.50651h26.53958a1.75373,1.75373,0,1,1,0,3.50651Z"/><path class="cls-7" d="M211.66292,345.18191H49.47352a4.81585,4.81585,0,0,1-4.86521-4.75379V207.80285a4.81584,4.81584,0,0,1,4.86521-4.75378h162.1894a4.81584,4.81584,0,0,1,4.86521,4.75378V340.42812A4.81584,4.81584,0,0,1,211.66292,345.18191ZM49.47352,206.55558a1.26407,1.26407,0,0,0-1.2765,1.24727V340.42812a1.26395,1.26395,0,0,0,1.2765,1.24727h162.1894a1.26394,1.26394,0,0,0,1.2765-1.24727V207.80285a1.264,1.264,0,0,0-1.2765-1.24727Z"/><path class="cls-10" d="M211.66292,345.18191H49.47352a4.81585,4.81585,0,0,1-4.86521-4.75379V207.80285a4.81584,4.81584,0,0,1,4.86521-4.75378h162.1894a4.81584,4.81584,0,0,1,4.86521,4.75378V340.42812A4.81584,4.81584,0,0,1,211.66292,345.18191ZM49.47352,206.55558a1.26407,1.26407,0,0,0-1.2765,1.24727V340.42812a1.26395,1.26395,0,0,0,1.2765,1.24727h162.1894a1.26394,1.26394,0,0,0,1.2765-1.24727V207.80285a1.264,1.264,0,0,0-1.2765-1.24727Z"/><path class="cls-7" d="M192.48844,238.5569H66.02052a1.75373,1.75373,0,1,1,0-3.50652H192.48844a1.75373,1.75373,0,1,1,0,3.50652Z"/><path class="cls-7" d="M192.48844,280.03317H66.02052a1.75373,1.75373,0,1,1,0-3.50652H192.48844a1.75373,1.75373,0,1,1,0,3.50652Z"/><path class="cls-7" d="M134.20421,259.29547H66.02052a1.75373,1.75373,0,1,1,0-3.50651h68.18369a1.75373,1.75373,0,1,1,0,3.50651Z"/><path class="cls-7" d="M134.20421,302.02847H66.02052a1.75373,1.75373,0,1,1,0-3.50651h68.18369a1.75373,1.75373,0,1,1,0,3.50651Z"/><path class="cls-7" d="M112.00356,321.82362h-45.983a1.75373,1.75373,0,1,1,0-3.50652h45.983a1.75373,1.75373,0,1,1,0,3.50652Z"/></g><path class="cls-11" d="M659.73018,200.49H579.07806a8.60766,8.60766,0,0,0-8.001,6.41342l-2.67179,8.66091a8.60745,8.60745,0,0,1-8.001,6.41324H444.945c-4.67843,0-8.471,4.27619-8.471,9.55121h0V359.25828c0,5.27485,3.79254,9.551,8.471,9.551H659.73018a9.30812,9.30812,0,0,0,9.04445-9.551v-149.217A9.30817,9.30817,0,0,0,659.73018,200.49Z"/><path class="cls-12" d="M577.33269,223.32513l2.85267-8.66091a9.09254,9.09254,0,0,1,8.54238-6.41342h71.00244a9.30813,9.30813,0,0,1,9.04445,9.551V367.01889a9.30817,9.30817,0,0,1-9.04445,9.55122H445.51831a9.30814,9.30814,0,0,1-9.04426-9.55122V239.28958a9.30813,9.30813,0,0,1,9.04426-9.55121h123.272A9.09237,9.09237,0,0,0,577.33269,223.32513Z"/><path class="cls-13" d="M582.58477,232.12683l2.68866-8.16352a8.57034,8.57034,0,0,1,8.05181-6.04487h66.92441a8.7735,8.7735,0,0,1,8.525,9.00244V367.56749a8.77354,8.77354,0,0,1-8.525,9.00262H458.34113a8.77351,8.77351,0,0,1-8.5248-9.00262V247.17433a8.77351,8.77351,0,0,1,8.5248-9.00262H574.533A8.57033,8.57033,0,0,0,582.58477,232.12683Z"/><path class="cls-7" d="M644.30124,365.80231h-52.986a1.75373,1.75373,0,1,1,0-3.50652h52.986a6.13736,6.13736,0,0,0,6.19968-6.05925V315.1651a1.79484,1.79484,0,0,1,3.58871,0v41.07144A9.69031,9.69031,0,0,1,644.30124,365.80231Z"/><path class="cls-14" d="M27.10276,345.75785h81.17267c3.62908,0,6.86036,2.895,8.05252,7.2143l2.6892,9.7425c1.19217,4.3195,4.42345,7.2143,8.05253,7.2143H243.27389c4.70857,0,8.5257,4.81041,8.5257,10.744V524.3551c0,5.93354-3.81713,10.744-8.5257,10.744H27.10276c-5.02724,0-9.10276-4.81041-9.10276-10.744V356.50181C18,350.56809,22.07552,345.75785,27.10276,345.75785Z"/><path class="cls-13" d="M110.03192,371.44481l-2.871-9.74267c-1.27291-4.31932-4.72292-7.2143-8.59747-7.2143H27.10276c-5.02724,0-9.10276,4.81024-9.10276,10.744V533.08491c0,5.93372,4.07552,10.744,9.10276,10.744H242.69683c5.02743,0,9.10276-4.81024,9.10276-10.744V389.40307c0-5.93372-4.07533-10.744-9.10276-10.744H118.6294C114.75484,378.65911,111.30485,375.76414,110.03192,371.44481Z"/><path class="cls-13" d="M104.74611,381.34581l-2.70625-9.183c-1.19969-4.07123-4.45161-6.8-8.10366-6.8H26.57989c-4.73854,0-8.57989,4.53392-8.57989,10.12681V533.70206c0,5.59289,3.84135,10.12681,8.57989,10.12681h203.2114c4.73853,0,8.57988-4.53392,8.57988-10.12681V398.27262c0-5.59289-3.84135-10.127-8.57988-10.127H112.84978C109.19772,388.14564,105.94582,385.417,104.74611,381.34581Z"/><path class="cls-7" d="M34.58558,407.43479a1.68381,1.68381,0,0,1-1.60541-1.75326v-24.3366a5.7483,5.7483,0,0,1,5.47314-5.9772H71.9078a1.76006,1.76006,0,0,1,0,3.50651H38.45331a2.37583,2.37583,0,0,0-2.26232,2.47069v24.3366A1.6838,1.6838,0,0,1,34.58558,407.43479Z"/><rect class="cls-15" x="169.22517" y="134.87684" width="369.25848" height="135.49291" rx="38.6403"/><ellipse class="cls-16" cx="353.85441" cy="145.23683" rx="97.51062" ry="95.27723"/><rect class="cls-16" x="169.22517" y="114.91706" width="369.25848" height="135.49291" rx="38.6403"/><ellipse class="cls-16" cx="353.85441" cy="125.2771" rx="97.51062" ry="95.27719"/><g class="cls-17"><rect class="cls-18" x="169.22517" y="114.91706" width="369.25848" height="135.49291" rx="38.6403"/><ellipse class="cls-18" cx="353.85441" cy="125.2771" rx="97.51062" ry="95.27719"/></g><path class="cls-7" d="M331.05139,139.45845a4.52271,4.52271,0,0,1-3.19879-1.31074,4.311,4.311,0,0,1,.05437-6.19794l26.168-25.13626,25.75348,25.16274a4.31093,4.31093,0,0,1,0,6.19811,4.559,4.559,0,0,1-6.34321,0l-19.46284-19.01617L334.196,138.20083A4.52687,4.52687,0,0,1,331.05139,139.45845Z"/><path class="cls-7" d="M353.85406,174.31985a4.4352,4.4352,0,0,1-4.48589-4.38314V112.98585a4.48709,4.48709,0,0,1,8.97177,0v56.95086A4.43509,4.43509,0,0,1,353.85406,174.31985Z"/><path class="cls-7" d="M396.25627,201.36349H310.78254a11,11,0,0,1-11.11208-10.85775V160.16458a4.48709,4.48709,0,0,1,8.97178,0v30.34116a2.11878,2.11878,0,0,0,2.1403,2.09146h85.47373a2.78258,2.78258,0,0,0,2.81068-2.7463V160.16458a4.48709,4.48709,0,0,1,8.97178,0V189.8509A11.66278,11.66278,0,0,1,396.25627,201.36349Z"/><path class="cls-19" d="M489.49831,491.3816,244.8838,570.35a11.46778,11.46778,0,0,1-14.40994-7.08648L149.65432,324.2517a11.09181,11.09181,0,0,1,7.25279-14.07988l244.61434-78.96843a11.46754,11.46754,0,0,1,14.40992,7.08649l80.81954,239.01184A11.09177,11.09177,0,0,1,489.49831,491.3816Z"/><path class="cls-7" d="M475.8548,481.14011,222.569,562.90788a6.87728,6.87728,0,0,1-8.64171-4.24986L130.24277,311.17351a6.65192,6.65192,0,0,1,4.3495-8.44383l253.28584-81.76784a6.8773,6.8773,0,0,1,8.64172,4.24986l83.68449,247.48454A6.652,6.652,0,0,1,475.8548,481.14011Z"/><polygon class="cls-15" points="452.028 464.256 231.105 535.576 158.113 319.713 379.036 248.393 452.028 464.256"/><path class="cls-20" d="M229.22786,537.40406l-16.52493-48.872,24.17121-56.92772a16.84194,16.84194,0,0,1,20.49925-9.38606l44.74315,13.57915a6.03869,6.03869,0,0,0,6.91381-2.57518l37.25207-60.57976a31.336,31.336,0,0,1,38.633-12.16409L425.9437,377.7241l.3786,1.12314,28.93918,85.58785-2.5548.82351Zm-10.78623-48.66322,14.2086,42.02,215.81226-69.67127L421.591,381.62107,382.788,365.30929a25.865,25.865,0,0,0-31.89179,10.04178l-37.25206,60.57975a11.46468,11.46468,0,0,1-13.12391,4.89L255.777,427.24168a11.44311,11.44311,0,0,0-13.93155,6.37958Z"/><path class="cls-20" d="M302.98751,369.07774a28.63788,28.63788,0,0,1-27.20888-19.20289,27.87383,27.87383,0,0,1,18.20462-35.3425c14.99-4.83426,31.21729,3.14026,36.171,17.78766a27.87255,27.87255,0,0,1-18.20461,35.3418A29.0988,29.0988,0,0,1,302.98751,369.07774Zm-.03858-50.6998a23.64554,23.64554,0,0,0-7.27647,1.14891,22.632,22.632,0,0,0-14.78225,28.69748c4.0215,11.89532,17.2014,18.37413,29.37017,14.44386a22.63191,22.63191,0,0,0,14.78244-28.69748A23.25424,23.25424,0,0,0,302.94893,318.37794Z"/><rect class="cls-19" x="360.76465" y="325.5314" width="213.77997" height="208.88353" rx="6.3572"/><rect class="cls-7" x="349.91491" y="314.93016" width="213.77997" height="208.88353" rx="6.3572"/><rect class="cls-21" x="367.99824" y="332.71941" width="177.36749" height="173.30504"/><path class="cls-20" d="M548.30326,507.53365H365.55253V467.44158l31.58334-35.73628a13.61679,13.61679,0,0,1,17.99452-2.10251l29.06171,20.284a3.9927,3.9927,0,0,0,4.84512-.21408l41.7925-35.14385a24.66592,24.66592,0,0,1,31.783.2295l25.69049,22.25637ZM370.9356,502.27388H542.9202v-62.893L519.04164,418.6928a19.17435,19.17435,0,0,0-24.70037-.17813L452.549,453.6587a9.45861,9.45861,0,0,1-11.48459.50845l-29.0637-20.284A8.16781,8.16781,0,0,0,401.21,435.14326L370.9356,469.39681Z"/><path class="cls-20" d="M467.61348,403.99911c-12.38879,0-22.46624-9.84682-22.46624-21.95183s10.07745-21.95323,22.46624-21.95323,22.468,9.84822,22.468,21.95323S480.00222,403.99911,467.61348,403.99911Zm0-38.64529a16.69726,16.69726,0,1,0,17.08493,16.69346A16.91054,16.91054,0,0,0,467.61348,365.35382Z"/><path class="cls-19" d="M431.08546,550.74637,314.57961,593.3997a6.88912,6.88912,0,0,1-8.8064-3.91409l-43.653-113.83729a6.6404,6.6404,0,0,1,4.00579-8.60458l116.50577-42.6533a6.889,6.889,0,0,1,8.80628,3.914l43.65314,113.83733A6.6404,6.6404,0,0,1,431.08546,550.74637Z"/><path class="cls-7" d="M422.06311,546.73638,305.55743,589.38964a6.88913,6.88913,0,0,1-8.80644-3.9141L253.098,471.6382a6.64038,6.64038,0,0,1,4.00577-8.60456l116.50571-42.65328a6.88912,6.88912,0,0,1,8.80642,3.9141l43.653,113.83736A6.6404,6.6404,0,0,1,422.06311,546.73638Z"/><polygon class="cls-16" points="413.255 537.689 305.964 576.969 265.763 472.135 373.055 432.855 413.255 537.689"/><path class="cls-20" d="M304.27639,579.62266l-9.7595-25.44975,10.94055-28.93557a9.64732,9.64732,0,0,1,11.53626-5.83326l22.28572,5.83326a1.59464,1.59464,0,0,0,1.79775-.74987l17.12784-30.516a16.804,16.804,0,0,1,20.45815-7.32107l21.103,7.92384,16.84128,43.92206ZM300.261,554.15923l7.16773,18.6934L409.679,535.418,395.5746,498.63552l-18.84252-7.07474a11.33143,11.33143,0,0,0-13.80631,4.94138L345.797,527.01637a7.01188,7.01188,0,0,1-7.91077,3.30278l-22.2866-5.83344a4.24826,4.24826,0,0,0-5.0922,2.57343Z"/><path class="cls-20" d="M337.48236,495.02452a15.4892,15.4892,0,0,1-14.502-9.80895A15.03063,15.03063,0,0,1,332.037,465.762a15.59344,15.59344,0,0,1,19.91054,8.84851h0a15.03106,15.03106,0,0,1-9.05666,19.45361A15.70665,15.70665,0,0,1,337.48236,495.02452Zm-.02978-24.965a10.256,10.256,0,0,0-3.52645.62662,9.80074,9.80074,0,0,0-5.90432,12.68376,10.16873,10.16873,0,0,0,12.9809,5.77,9.80052,9.80052,0,0,0,5.9036-12.68376A10.09938,10.09938,0,0,0,337.45258,470.05954Z"/></svg>