<svg xmlns="http://www.w3.org/2000/svg" viewBox="0 0 500 350.15319"><defs><style>.cls-1{fill:#ebebeb;}.cls-2{fill:#e0e0e0;}.cls-3{fill:#f0f0f0;}.cls-4{fill:#f5f5f5;}.cls-5{fill:#263238;}.cls-6{fill:#325ffa;}.cls-11,.cls-7{fill:#407bff;}.cls-7,.cls-9{opacity:0.3;}.cls-8,.cls-9{fill:#fff;}.cls-10{opacity:0.2;}</style></defs><title>404</title><g id="Background_Complete" data-name="Background Complete"><rect class="cls-1" y="304.99019" width="500" height="0.25"/><rect class="cls-1" x="428.2222" y="321.08619" width="21.679" height="0.25"/><rect class="cls-1" x="310.5576" y="315.89739" width="34.1091" height="0.25"/><rect class="cls-1" x="396.5858" y="311.80009" width="44.5253" height="0.25"/><rect class="cls-1" x="161.8767" y="316.84179" width="11.1376" height="0.25"/><rect class="cls-1" x="114.5846" y="316.84179" width="38.3888" height="0.25"/><rect class="cls-1" x="66.3067" y="312.61959" width="27.6954" height="0.25"/><path class="cls-1" d="M216.0725,200.878l.4503-13.141-8.0676-2.6358a78.29811,78.29811,0,0,0-2.1514-13.1962l6.8382-5.0422-4.645-12.3426-8.4584.6814a77.436,77.436,0,0,0-7.0402-11.35l4.3812-7.3129-9.0083-9.6106-7.5618,3.8715a82.544,82.544,0,0,0-10.8395-7.8343l1.2249-8.3939-11.9978-5.4452-5.4972,6.4424a81.16272,81.16272,0,0,0-13.0163-3.0494l-2.0444-8.228-13.1757-.4514-2.6019,8.0687a81.17668,81.17668,0,0,0-13.1954,2.1514l-5.078-6.8047-12.3423,4.6112.6822,8.4593a80.49076,80.49076,0,0,0-11.3504,7.074l-7.2781-4.38-9.6459,8.9716,3.8713,7.5956a77.426,77.426,0,0,0-7.8005,10.8416l-8.392-1.2588-5.4789,11.9958,6.4762,5.4983a78.37991,78.37991,0,0,0-3.0495,13.018l-8.2638,2.0763-.4502,13.1409,8.1022,2.6387A77.6534,77.6534,0,0,0,51.82,210.7322l-6.8374,5.0422,4.645,12.3443,8.4584-.6831a77.437,77.437,0,0,0,7.0402,11.3501l-4.382,7.3128,9.0091,9.6124,7.5609-3.8733a80.49637,80.49637,0,0,0,10.8396,7.836l-1.2596,8.3911,11.9977,5.4451,5.5319-6.4412a81.16432,81.16432,0,0,0,13.0172,3.0495l2.0436,8.2279,13.1756.4514,2.6029-8.0687a81.17267,81.17267,0,0,0,13.1945-2.1514l5.0433,6.8035,12.3423-4.6112-.6476-8.4563a82.5517,82.5517,0,0,0,11.3505-7.0758l7.2789,4.3817,9.645-8.9732-3.8704-7.5956a77.43476,77.43476,0,0,0,7.8006-10.8416l8.3918,1.2604,5.479-11.9974-6.4771-5.4984a77.57381,77.57381,0,0,0,3.0495-13.0163Zm-88.7963,42.5711a52.16019,52.16019,0,1,1,53.8982-50.3281A52.147,52.147,0,0,1,127.2762,243.4491Z" transform="translate(0 -77.40821)"/><path class="cls-1" d="M440.9573,157.4232l3.3141-3.0946-1.3245-2.61a26.99263,26.99263,0,0,0,2.6932-3.7424l2.897.438,1.877-4.1424-2.2287-1.8963a26.70072,26.70072,0,0,0,1.0509-4.4844l2.8516-.7148.1468-4.5402-2.7879-.8998a28.47154,28.47154,0,0,0-.7328-4.5535l2.3455-1.7481-1.5978-4.2534-2.9114.2305a27.992,27.992,0,0,0-2.4304-3.9175l1.5078-2.5049-3.1027-3.3229-2.602,1.3331a27.9922,27.9922,0,0,0-3.7422-2.6931l.421-2.8975-4.134-1.8852-1.8964,2.2291a27.7583,27.7583,0,0,0-4.4927-1.0427l-.7067-2.8428-4.5397-.1644-.9082,2.7961a26.70027,26.70027,0,0,0-4.5457.7415l-1.7394-2.3532-4.2611,1.5891.2384,2.9199a27.02823,27.02823,0,0,0-3.9179,2.4308l-2.5214-1.5088-3.3141,3.0945,1.3322,2.6191a26.79853,26.79853,0,0,0-2.6928,3.742l-2.8967-.4377-1.8775,4.1427,2.2292,1.896a26.701,26.701,0,0,0-1.051,4.4844l-2.8517.7146-.1471,4.5408,2.7882.8992a27.76879,27.76879,0,0,0,.7323,4.5539l-2.3532,1.739,1.5978,4.2533,2.9196-.2217a27.99338,27.99338,0,0,0,2.4305,3.9177l-1.508,2.5047,3.1028,3.3229,2.6022-1.3329a27.98016,27.98016,0,0,0,3.742,2.6928l-.4292,2.8888,4.134,1.8852,1.9041-2.2199a28.46283,28.46283,0,0,0,4.4931,1.0423l.7065,2.8434,4.54.1638.9083-2.7959a26.69979,26.69979,0,0,0,4.5458-.7415l1.7389,2.3536,4.2616-1.5895-.2387-2.9201a26.75645,26.75645,0,0,0,3.9176-2.4304Zm-23.6163-19.131a6.47159,6.47159,0,1,1,9.1439.3132A6.46994,6.46994,0,0,1,417.341,138.2922Z" transform="translate(0 -77.40821)"/><path class="cls-1" d="M319.9893,292.3364l-10.3414-7.1417c-.0025-.0076-.0031-.017-.0057-.0245a56.81116,56.81116,0,0,0-4.159-10.7717l2.6494-10.3977L293.133,247.9359l-10.5585,1.9332a56.8548,56.8548,0,0,0-10.4544-4.8824.14462.14462,0,0,1-.0259-.0084l-6.4198-10.8097-21.9647-.7526-7.1417,10.3413-.0406.0099a56.81531,56.81531,0,0,0-10.7602,4.1537l-10.3931-2.6491-16.0639,15.0005,1.9292,10.5377-.0059.0092a55.69981,55.69981,0,0,0-4.8848,10.4937l-10.8077,6.417-.7526,21.9656,10.3505,7.1476a55.09206,55.09206,0,0,0,4.147,10.8181l.0018.0039-2.6417,10.3661,14.9996,16.0629,10.4934-1.9204a57.2807,57.2807,0,0,0,10.5459,4.8931l.0093.0022,6.4091,10.7944,21.9646.7525,7.1368-10.334a57.22946,57.22946,0,0,0,10.8513-4.1581l.0028-.0018,10.3457,2.6363,16.0639-14.9986L303.5392,331.22a55.70647,55.70647,0,0,0,4.8848-10.4955l.001-.0018,10.8117-6.4207ZM251.537,325.7259a24.71434,24.71434,0,1,1,25.5462-23.8535A24.72288,24.72288,0,0,1,251.537,325.7259Z" transform="translate(0 -77.40821)"/><path class="cls-1" d="M343.5483,229.9541c-.0239,0-.0478,0-.0722-.001l-17.3169-.5927a2.11148,2.11148,0,0,1-1.7432-1.0323l-4.6626-7.8525a47.41513,47.41513,0,0,1-7.2827-3.3779l-7.5068,1.373a2.0986,2.0986,0,0,1-1.9234-.6357l-11.8257-12.6631a2.11446,2.11446,0,0,1-.5029-1.9629l1.8882-7.4102a45.86969,45.86969,0,0,1-2.8589-7.4697l-7.5312-5.2012a2.1106,2.1106,0,0,1-.9107-1.8095l.5933-17.3174a2.11091,2.11091,0,0,1,1.0322-1.7432l7.8657-4.6709a46.28751,46.28751,0,0,1,3.3701-7.248l-1.3794-7.5332a2.11174,2.11174,0,0,1,.6358-1.9229l12.665-11.8271a2.11164,2.11164,0,0,1,1.9629-.503l7.4346,1.8955a46.903,46.903,0,0,1,7.4492-2.8711l5.1968-7.5253a2.04392,2.04392,0,0,1,1.8096-.9102l17.3169.5938a2.1095,2.1095,0,0,1,1.7431,1.0322l4.6724,7.8662a47.02726,47.02726,0,0,1,7.2265,3.3721l7.5538-1.3838a2.11369,2.11369,0,0,1,1.9238.6357l11.8257,12.666a2.11453,2.11453,0,0,1,.5029,1.9629l-1.8955,7.4375a46.91264,46.91264,0,0,1,2.8716,7.4463l7.5249,5.1963a2.11056,2.11056,0,0,1,.9106,1.8096l-.5932,17.3183a2.111,2.111,0,0,1-1.0323,1.7432l-7.8691,4.6728a46.26268,46.26268,0,0,1-3.3662,7.2432l1.3794,7.5361a2.11051,2.11051,0,0,1-.6363,1.9229l-12.6645,11.8242a2.10388,2.10388,0,0,1-1.9624.5029l-7.4014-1.8857a47.37109,47.37109,0,0,1-7.4883,2.8701l-5.1919,7.5186A2.11243,2.11243,0,0,1,343.5483,229.9541Zm-16.0908-4.7754,15.0093.5147,4.9707-7.1983a2.11219,2.11219,0,0,1,1.189-.8388,43.11383,43.11383,0,0,0,8.1547-3.126l.0137-.0069a2.10106,2.10106,0,0,1,1.4585-.1533l7.0381,1.793,10.9766-10.249-1.313-7.1739a2.114,2.114,0,0,1,.268-1.4697,41.96707,41.96707,0,0,0,3.6504-7.834,2.12043,2.12043,0,0,1,.941-1.1728l7.5229-4.4678.5142-15.0098-7.2032-4.9746a2.11205,2.11205,0,0,1-.8037-1.0693c-.0176-.0537-.0342-.1113-.0483-.169a42.67177,42.67177,0,0,0-3.1143-8.0546,2.11373,2.11373,0,0,1-.1635-1.4776l1.8042-7.0781-10.25-10.9785-7.1885,1.3164a2.10984,2.10984,0,0,1-1.4624-.2637,42.74147,42.74147,0,0,0-7.8462-3.666,2.31182,2.31182,0,0,1-.4409-.2051,2.11184,2.11184,0,0,1-.709-.7207l-4.4722-7.5293-15.0093-.5146-4.9746,7.2041a2.10926,2.10926,0,0,1-1.2431.8525,42.76184,42.76184,0,0,0-8.0537,3.1123,2.10987,2.10987,0,0,1-1.4771.1631l-7.0752-1.8037-10.977,10.251,1.3129,7.1728a2.10983,2.10983,0,0,1-.1884,1.3242q-.0432.08655-.0952.17a41.96645,41.96645,0,0,0-3.6543,7.8593,2.11288,2.11288,0,0,1-.9165,1.1221l-7.5284,4.4707-.5141,15.0088,7.2099,4.9795a2.109,2.109,0,0,1,.8389,1.1865,41.6171,41.6171,0,0,0,3.1099,8.1172,2.07252,2.07252,0,0,1,.1709.4541,2.10939,2.10939,0,0,1-.002,1.0332l-1.7978,7.0537,10.25,10.9756,7.1377-1.3057a2.11923,2.11923,0,0,1,1.4545.2598,43.26142,43.26142,0,0,0,7.8877,3.665,2.10675,2.10675,0,0,1,1.1744.9336Zm24.7837-94.8115h0ZM336.728,206.2139c-.3701,0-.7392-.0069-1.1108-.0196a31.56789,31.56789,0,1,1,1.1108.0196Zm-.0381-59.0938a27.44911,27.44911,0,1,0,.9507.0166C337.3232,147.126,337.0054,147.1201,336.6899,147.1201Z" transform="translate(0 -77.40821)"/><polygon class="cls-2" points="383.439 27.915 376.265 25.988 374.339 18.815 377.148 16.007 380.111 22.143 386.248 25.107 383.439 27.915"/><path class="cls-2" d="M383.8845,100.5215a3.34745,3.34745,0,1,0-4.734-4.734l3.5677-5.3532,4.7857,2.4192,1.0487,5.0286Z" transform="translate(0 -77.40821)"/><path class="cls-3" d="M376.5818,93.981l5.2568-5.2568,7.1731,1.9262,1.9267,7.1735-5.2568,5.2569-7.1736-1.9267Zm9.5453,4.2979a3.34745,3.34745,0,1,0-4.7342-.0097A3.35982,3.35982,0,0,0,386.1271,98.2789Z" transform="translate(0 -77.40821)"/><polygon class="cls-2" points="90.221 219.3 94.07 218.266 95.104 214.417 93.597 212.91 92.007 216.203 88.714 217.793 90.221 219.3"/><path class="cls-2" d="M89.9818,294.1314a1.79634,1.79634,0,1,1,2.5404-2.5404l-1.9145-2.8727-2.5681,1.2982-.5628,2.6985Z" transform="translate(0 -77.40821)"/><path class="cls-3" d="M93.9006,290.6216l-2.8209-2.8209-3.8492,1.0336-1.0339,3.8495,2.8209,2.8209,3.8495-1.0339Zm-5.1222,2.3063a1.7963,1.7963,0,1,1,2.5405-.0052A1.803,1.803,0,0,1,88.7784,292.9279Z" transform="translate(0 -77.40821)"/><path class="cls-3" d="M76.3625,85.6624l3.1948,3.1949a2.14524,2.14524,0,0,0,3.025,0h0a2.1453,2.1453,0,0,0,0-3.0249l-3.1949-3.1949a2.14512,2.14512,0,0,0-3.0249,0h0A2.14512,2.14512,0,0,0,76.3625,85.6624Z" transform="translate(0 -77.40821)"/><path class="cls-2" d="M74.1118,77.7053a4.45506,4.45506,0,1,1-2.9548,5.7855A4.59827,4.59827,0,0,1,74.1118,77.7053Z" transform="translate(0 -77.40821)"/><rect class="cls-3" x="74.92975" y="76.83886" width="1.3699" height="10.10172" transform="translate(24.1067 103.32703) rotate(-109.75764)"/></g><g id="Shadow"><ellipse id="_Path_" data-name="&lt;Path&gt;" class="cls-4" cx="250.00028" cy="338.82979" rx="193.88918" ry="11.3234"/></g><g id="Oops_" data-name="Oops!"><path class="cls-5" d="M86.7156,120.6463q-1.5015-6.605,1.3418-11.1231,2.84325-4.51605,9.4131-6.0097,6.73455-1.53075,11.1997,1.2568,4.4655,2.7876,5.9463,9.3008a17.0346,17.0346,0,0,1,.1718,8.1181,11.63893,11.63893,0,0,1-3.5293,5.7569,15.572,15.572,0,0,1-7.1162,3.3877,17.68866,17.68866,0,0,1-7.8838.2646,11.65267,11.65267,0,0,1-5.8945-3.499A15.65976,15.65976,0,0,1,86.7156,120.6463Zm8.3442-1.8574q.9288,4.0854,2.8526,5.5244a5.89463,5.89463,0,0,0,8.2978-1.8477q1.07445-2.083.0454-6.6094-.86565-3.8085-2.8017-5.2177a5.38774,5.38774,0,0,0-4.5669-.8086,5.19214,5.19214,0,0,0-3.6426,2.705Q94.12225,114.66775,95.0598,118.7889Z" transform="translate(0 -77.40821)"/><path class="cls-5" d="M118.593,117.3474a10.02463,10.02463,0,0,1,1.3428-8.0556,11.55708,11.55708,0,0,1,7.4927-4.751q5.86965-1.3344,9.643,1.3877a10.91422,10.91422,0,0,1,2.6353,14.2734q-2.33565,3.55965-7.6167,4.7598a11.894,11.894,0,0,1-8.1616-.6602A9.8475,9.8475,0,0,1,118.593,117.3474Zm7.5039-1.7246a6.04815,6.04815,0,0,0,1.9366,3.6241,3.55532,3.55532,0,0,0,5.3217-1.1914,6.251,6.251,0,0,0,.1407-4.1915,5.91215,5.91215,0,0,0-1.9087-3.5439,3.34955,3.34955,0,0,0-2.877-.6523,3.47763,3.47763,0,0,0-2.4184,1.8759A5.97912,5.97912,0,0,0,126.0969,115.6228Z" transform="translate(0 -77.40821)"/><path class="cls-5" d="M148.5847,128.5662l-6.1328-26.9766,7.0108-1.5947.6567,2.8887a9.576,9.576,0,0,1,2.1074-3.0713,7.84077,7.84077,0,0,1,3.4287-1.6885,7.19288,7.19288,0,0,1,6.7447,1.6201,12.74079,12.74079,0,0,1,3.83,6.9287q1.109,4.8765-.645,7.9747a7.83916,7.83916,0,0,1-5.3232,3.9101,8.40228,8.40228,0,0,1-3.2896.1279,7.712,7.712,0,0,1-2.9458-1.1679l2.1211,9.3291Zm3.6089-18.8574a5.2741,5.2741,0,0,0,1.7573,3.2197,3.20563,3.20563,0,0,0,2.7207.5615,2.79554,2.79554,0,0,0,1.9453-1.5742,5.97961,5.97961,0,0,0,.0528-3.8535,5.5613,5.5613,0,0,0-1.7129-3.2774,2.88421,2.88421,0,0,0-2.4981-.6035,3.09741,3.09741,0,0,0-2.1367,1.666A5.73057,5.73057,0,0,0,152.1936,109.7088Z" transform="translate(0 -77.40821)"/><path class="cls-5" d="M169.4348,110.2986l7.2749-2.3896a3.76894,3.76894,0,0,0,1.7193,1.6035,3.93269,3.93269,0,0,0,2.3378.0683,3.83193,3.83193,0,0,0,2.1905-1.1748,1.47208,1.47208,0,0,0,.372-1.3408,1.398,1.398,0,0,0-1.1298-1.0566,15.87885,15.87885,0,0,0-3.3955-.0401,34.48016,34.48016,0,0,1-5.7056-.0263,5.87269,5.87269,0,0,1-3.0029-1.377,5.21457,5.21457,0,0,1-1.7544-2.9072,5.27844,5.27844,0,0,1,.3662-3.582,6.85123,6.85123,0,0,1,2.6172-2.7901,16.84513,16.84513,0,0,1,5.124-1.8896,18.75926,18.75926,0,0,1,5.2832-.6397,6.90718,6.90718,0,0,1,3.1548,1.0244,8.88056,8.88056,0,0,1,2.5395,2.6163l-6.9438,2.3144a2.4826,2.4826,0,0,0-1.2334-1.1709,3.84148,3.84148,0,0,0-2.2686-.1045,3.10616,3.10616,0,0,0-1.747.8701,1.37815,1.37815,0,0,0-.3311,1.2256,1.19293,1.19293,0,0,0,.9824.916,12.13381,12.13381,0,0,0,3.3521-.0664,22.52338,22.52338,0,0,1,5.8247-.0859,6.28275,6.28275,0,0,1,3.2768,1.5166,5.42242,5.42242,0,0,1,1.6641,2.8506,6.1965,6.1965,0,0,1-.2734,3.5224,7.0952,7.0952,0,0,1-2.6416,3.2784,15.90491,15.90491,0,0,1-5.774,2.3086q-5.3547,1.21725-7.9746.206A7.042,7.042,0,0,1,169.4348,110.2986Z" transform="translate(0 -77.40821)"/><path class="cls-5" d="M193.8486,85.5661l8.2085-.0461.0357,6.3033-1.5135,12.6706-5.0763.0284-1.6186-12.653Zm.401,20.8881,7.6611-.0432.0386,6.774-7.6612.0432Z" transform="translate(0 -77.40821)"/></g><g id="_404" data-name="404"><path class="cls-5" d="M128.6802,171.5811a.49258.49258,0,0,1-.1807-.0342c-4.501-1.7432-7.1938-3.4463-8.5923-5.4922a5.17512,5.17512,0,0,1-3.2319-.4443,6.43774,6.43774,0,0,1-2.7808-2.6221,2.55584,2.55584,0,0,1-2.4253.375,6.17788,6.17788,0,0,1-2.9521-2.4112,2.28015,2.28015,0,0,1-1.5523.4297c-2.9731-.2422-7.0014-6.1601-7.2905-12.4668a.5.5,0,0,1,.999-.0449c.274,5.9854,4.1094,11.3311,6.3726,11.5147a1.27061,1.27061,0,0,0,.9316-.2793,12.26806,12.26806,0,0,1-1.0229-9.4121c.8603-3.0049,1.6196-4.1797,2.5322-3.962,1.7227.4288,1.4966,6.9717.5845,11.2881a6.12787,6.12787,0,0,1-.8452,2.1826,5.40959,5.40959,0,0,0,2.5429,2.2071,1.58019,1.58019,0,0,0,1.6739-.3457c-.7862-1.9356-.9488-4.5742.1176-7.9385,1.4039-4.4287,1.9688-4.5488,2.3067-4.6201a.66126.66126,0,0,1,.6445.2197c.9238,1.043-.1797,7.9219-1.3437,11.3242a5.01908,5.01908,0,0,1-.5572,1.1573,5.48086,5.48086,0,0,0,2.4932,2.5009,4.36235,4.36235,0,0,0,2.273.4307c-.0904-.1895-.1714-.3809-.2437-.5762-.7925-2.1474-.4053-4.626,1.1846-7.5781,1.0551-1.958,1.9155-2.8711,2.7075-2.8721h.001a1.10857,1.10857,0,0,1,.9863.6621c.8721,1.6094.2407,6.919-1.4829,9.5537a3.906,3.906,0,0,1-1.6177,1.3985c1.3399,1.7617,3.8838,3.3144,7.9487,4.8896a.4998.4998,0,0,1-.1806.9659Zm-5.6543-16.4698c-.003,0-.5655.0039-1.8272,2.3467-1.4463,2.6846-1.8149,4.8945-1.1274,6.7568a5.44627,5.44627,0,0,0,.3003.67,2.95286,2.95286,0,0,0,1.3213-1.1045c1.3999-2.1407,2.0708-6.5381,1.5498-8.2569C123.1362,155.1719,123.0269,155.1113,123.0259,155.1113Zm-7.1724-4.2129a22.62065,22.62065,0,0,0-1.3398,3.5293,11.32831,11.32831,0,0,0-.3848,6.5479c.0332-.084.0645-.168.0928-.251A33.05481,33.05481,0,0,0,115.8535,150.8984Zm-6.5859-3.1504c-.1685.1553-.6548.7852-1.3521,3.2208a11.25221,11.25221,0,0,0,.7271,8.246,6.36374,6.36374,0,0,0,.4502-1.4023C110.1304,152.9023,109.8281,148.459,109.2676,147.748Z" transform="translate(0 -77.40821)"/><path class="cls-5" d="M166.6982,223.9971a9.00363,9.00363,0,0,1-4.5615-1.1885.50031.50031,0,0,1,.5059-.8633c3.5674,2.0947,8.1782.6328,9.1274-.8926a.86639.86639,0,0,0,.147-.6709,8.13589,8.13589,0,0,1-5.1309-1.4658c-2.5449-1.5908-2.7412-2.0635-2.7251-2.4424a.61435.61435,0,0,1,.3409-.5234c.9956-.5049,5.5053,1.5742,7.3852,2.8096a3.23146,3.23146,0,0,1,.6216.5224,3.53626,3.53626,0,0,0,1.9028-1.1455,2.85458,2.85458,0,0,0,.5874-1.1221c-.0664.0098-.1333.0176-.2002.0245-1.5986.1611-3.2026-.5254-4.9111-2.1045-1.1738-1.085-1.6299-1.833-1.478-2.4258a.90705.90705,0,0,1,.7187-.6533c1.3833-.3438,4.7974,1.1113,6.1934,2.6416a2.79135,2.79135,0,0,1,.6416,1.1836c1.3047-.6133,2.685-1.9883,4.3188-4.2715a.50013.50013,0,0,1,.8135.582c-1.8892,2.6397-3.4644,4.1358-5.0464,4.7461a3.71707,3.71707,0,0,1-.8691,2.04,4.52906,4.52906,0,0,1-2.1812,1.4112,1.84156,1.84156,0,0,1-.2798,1.3916C171.7759,222.9375,169.3579,223.9971,166.6982,223.9971Zm-.8881-6.9356c.3364.2481.8178.5762,1.5063,1.0069a8.07922,8.07922,0,0,0,3.6001,1.3222A24.82,24.82,0,0,0,165.8101,217.0615Zm3.4902-4.249a4.30271,4.30271,0,0,0,1.166,1.3877c1.4863,1.374,2.8379,1.9853,4.1309,1.8437.1064-.0107.2133-.0263.3203-.0478a1.84486,1.84486,0,0,0-.4341-.8252C173.0757,213.6289,169.9834,212.6523,169.3003,212.8125Z" transform="translate(0 -77.40821)"/><path class="cls-6" d="M179.942,222.6251l-15.5819,2.8302L150.2135,148.243l-30.0638,5.4613L71.161,240.703l5.26,28.7078,62.837-11.4141,4.3023,23.4811,30.0638-5.4614-4.3023-23.4804,15.5818-2.8309Zm-78.8482,14.3227,25.9589-45.5673,7.2437,39.5361Z" transform="translate(0 -77.40821)"/><path class="cls-6" d="M305.4304,142.9915a58.80755,58.80755,0,0,0-3.1972-14.2181,46.06458,46.06458,0,0,0-6.9898-12.189,40.39565,40.39565,0,0,0-12.704-10.3665q-8.04045-4.39215-21.2226-6.1123-27.4383-3.5748-42.7817,9.7404-15.3477,13.3155-20.1977,51.0111a139.26748,139.26748,0,0,0-.9768,28.3449q.99435,13.0128,4.7777,20.9325a43.76127,43.76127,0,0,0,14.6491,17.7721q9.46905,6.643,25.9496,8.7912,29.39505,3.8295,43.5693-11.2873,14.1723-15.11595,18.8051-51.1007A129.37153,129.37153,0,0,0,305.4304,142.9915Z" transform="translate(0 -77.40821)"/><path class="cls-5" d="M251.7657,226.4331c-2.4049-.0824-4.9644-.2991-7.6074-.6437-9.1545-1.1921-16.2375-3.5092-21.0534-6.888a32.64425,32.64425,0,0,1-10.9922-13.4057l-.0492-.1033c-1.9225-4.0233-3.1787-9.7533-3.7346-17.0285a128.958,128.958,0,0,1,.9183-26.1021c3.569-27.7212,10.941-39.287,16.497-44.1074,6.478-5.6204,15.221-8.1604,26.7299-7.7661,2.358.0808,4.8551.2915,7.4214.6256,7.3864.9615,13.2304,2.5962,17.3702,4.8574a29.74323,29.74323,0,0,1,9.3097,7.4853,35.3081,35.3081,0,0,1,5.3537,9.2688,48.14837,48.14837,0,0,1,2.5657,11.5576,119.05525,119.05525,0,0,1-.2932,28.7216c-2.7728,21.5388-8.1292,36.6729-15.9197,44.9813-5.7789,6.1651-14.452,8.9606-26.5143,8.5473Z" transform="translate(0 -77.40821)"/><path class="cls-6" d="M271.3362,143.2869l.1297-3.7878-2.3254-.7598a22.56635,22.56635,0,0,0-.6201-3.8037l1.9711-1.4534-1.339-3.5577-2.438.1964a22.32769,22.32769,0,0,0-2.0293-3.2716l1.2628-2.1079-2.5966-2.7702-2.1796,1.116a23.7916,23.7916,0,0,0-3.1245-2.2582l.3531-2.4195-3.4583-1.5696-1.5845,1.857a23.392,23.392,0,0,0-3.7519-.879l-.5893-2.3716-3.7978-.1302-.75,2.3258a23.39448,23.39448,0,0,0-3.8035.6201l-1.4638-1.9614-3.5576,1.3292.1967,2.4383a23.19656,23.19656,0,0,0-3.2717,2.0391l-2.0979-1.2625-2.7804,2.586,1.1159,2.1894a22.32345,22.32345,0,0,0-2.2485,3.125l-2.4189-.3628-1.5793,3.4577,1.8668,1.5848a22.58936,22.58936,0,0,0-.879,3.7524l-2.382.5985-.1298,3.7878,2.3354.7606a22.383,22.383,0,0,0,.6202,3.8033l-1.9709,1.4533,1.3389,3.5582,2.4381-.1969a22.3224,22.3224,0,0,0,2.0293,3.2716l-1.2631,2.1079,2.5969,2.7707,2.1794-1.1164a23.21265,23.21265,0,0,0,3.1244,2.2587l-.3631,2.4187,3.4583,1.5695,1.5946-1.8567a23.38689,23.38689,0,0,0,3.7521.879l.5891,2.3717,3.7978.1301.7502-2.3258a23.39916,23.39916,0,0,0,3.8033-.6201l1.4537,1.9611,3.5576-1.3292-.1867-2.4375a23.79486,23.79486,0,0,0,3.2718-2.0395l2.0981,1.263,2.7801-2.5865-1.1156-2.1894a22.31465,22.31465,0,0,0,2.2484-3.125l2.419.3633,1.5793-3.4582-1.867-1.5849a22.37185,22.37185,0,0,0,.879-3.7519Zm-25.5951,12.2709a15.03492,15.03492,0,1,1,15.5358-14.5068A15.03115,15.03115,0,0,1,245.7411,155.5578Z" transform="translate(0 -77.40821)"/><path class="cls-7" d="M287.1225,212.8651l.2747-2.5533-1.5348-.6258a15.818,15.818,0,0,0-.2272-2.594l1.3996-.8886-.7114-2.47-1.6621.0134a14.84879,14.84879,0,0,0-1.1962-2.3112l.9477-1.3601-1.6052-1.9978-1.5315.6378a15.22732,15.22732,0,0,0-1.9907-1.671l.3717-1.6261-2.2513-1.2354-1.1759,1.1883a14.78905,14.78905,0,0,0-2.4772-.7872l-.2834-1.6359-2.5529-.2863-.6263,1.5345a15.981,15.981,0,0,0-2.5944.2391l-.8876-1.4116-2.4707.7228.0133,1.6621a16.08077,16.08077,0,0,0-2.3115,1.1968l-1.3597-.9597-1.9975,1.6052.6381,1.5315a16.27709,16.27709,0,0,0-1.6716,1.9907l-1.6145-.3599-1.2353,2.2514,1.1769,1.1637a16.09127,16.09127,0,0,0-.7873,2.4895l-1.6361.2714-.2746,2.5533,1.5344.6377a14.60447,14.60447,0,0,0,.2275,2.5826l-1.4112.8876.723,2.471,1.6617-.0019a15.32964,15.32964,0,0,0,1.1966,2.2998l-.9591,1.3597,1.6045,2.0092,1.5437-.6494a15.27777,15.27777,0,0,0,1.9906,1.6716l-.3716,1.6255,2.2513,1.236,1.1754-1.1769a15.8866,15.8866,0,0,0,2.4777.7752l.2833,1.6365,2.553.2863.6263-1.5351a16.08416,16.08416,0,0,0,2.5944-.2385l.8876,1.411,2.459-.7232-.0014-1.6617a16.08435,16.08435,0,0,0,2.3112-1.1962l1.348.9587,2.0092-1.6042-.6495-1.532a16.36465,16.36465,0,0,0,1.683-1.9902l1.6145.3593,1.2354-2.2514-1.1769-1.1637a16.268,16.268,0,0,0,.7754-2.4779Zm-12.8739-.9908a4.46165,4.46165,0,1,1-1.7703-6.0524A4.47113,4.47113,0,0,1,274.2486,211.8743Z" transform="translate(0 -77.40821)"/><path class="cls-8" d="M301.2896,169.6494l-2.9808-2.0586-.0016-.0071a16.38558,16.38558,0,0,0-1.1988-3.1049l.7636-2.9971-4.3235-4.6306-3.0435.5573a16.38859,16.38859,0,0,0-3.0134-1.4074l-.0075-.0024-1.8504-3.1158-6.3313-.217-2.0585,2.9809-.0117.0028a16.38381,16.38381,0,0,0-3.1016,1.1973l-2.9958-.7636-4.6303,4.3238.5561,3.0375-.0017.0026a16.05179,16.05179,0,0,0-1.408,3.0248l-3.1153,1.8497-.2169,6.3314,2.9834,2.0603a15.88343,15.88343,0,0,0,1.1954,3.1183l.0005.0011-.7614,2.988,4.3235,4.63,3.0247-.5535a16.51142,16.51142,0,0,0,3.0398,1.4104l.0027.0006,1.8474,3.1114,6.3312.217,2.0571-2.9788a16.49727,16.49727,0,0,0,3.1278-1.1985l.0009-.0005,2.9821.7599,4.6303-4.3233-.5561-3.038a16.05909,16.05909,0,0,0,1.408-3.0253l.0003-.0005,3.1164-1.8508Zm-19.731,9.6243a7.12378,7.12378,0,1,1,7.3636-6.8757A7.1262,7.1262,0,0,1,281.5586,179.2737Z" transform="translate(0 -77.40821)"/><path class="cls-6" d="M323.0425,119.1244l.5211-1.2567.0025-.0011a6.14857,6.14857,0,0,0,1.0456-.6848l1.1607.0444,1.3598-1.9523-.4444-1.0737a6.15066,6.15066,0,0,0,.2794-1.2173l.0003-.0029.9984-.9249-.419-2.3419-1.2567-.5211-.002-.004a6.14768,6.14768,0,0,0-.6839-1.0446l.0444-1.1602-1.9523-1.3596-1.0716.4434-.0011-.0004a6.03152,6.03152,0,0,0-1.2215-.2788l-.9246-.9982-2.3419.4191-.5215,1.2577a5.97227,5.97227,0,0,0-1.0509.6846l-.0003.0003-1.1572-.0443-1.3595,1.9523.4414,1.067a6.20914,6.20914,0,0,0-.2784,1.2273v.001l-.997.9234.419,2.3419,1.2558.5207a6.19324,6.19324,0,0,0,.6865,1.0541l.0002.0003-.0441,1.1548,1.9522,1.3597,1.0717-.4435a6.02649,6.02649,0,0,0,1.2217.2787l.0003.0001.925.9985Zm-5.0881-6.487a2.67532,2.67532,0,1,1,3.1047,2.1623A2.67623,2.67623,0,0,1,317.9544,112.6374Z" transform="translate(0 -77.40821)"/><path class="cls-6" d="M295.6074,112.4893l-.7637-.6446a19.9424,19.9424,0,0,1,6.0079-5.0293l.4638.8867A19.124,19.124,0,0,0,295.6074,112.4893Z" transform="translate(0 -77.40821)"/><path class="cls-6" d="M303.5908,106.8018l-.3945-.92a23.90519,23.90519,0,0,1,11.7388-1.8798l-.0928.996A22.772,22.772,0,0,0,303.5908,106.8018Z" transform="translate(0 -77.40821)"/><path class="cls-6" d="M301.7026,113.7197l-.8261-.5625a16.795,16.795,0,0,1,9.8711-6.3886l.1943.9804A15.72588,15.72588,0,0,0,301.7026,113.7197Z" transform="translate(0 -77.40821)"/><path class="cls-8" d="M235.3428,209.957a.49854.49854,0,0,1-.3589-.1523l-2.0967-2.1611a17.64382,17.64382,0,0,1-3.1455-.586l-3.2676,1.4414a.49684.49684,0,0,1-.478-.04l-5.4751-3.6299a.50062.50062,0,0,1-.2236-.4248l.0542-3.5635a17.31059,17.31059,0,0,1-1.7662-2.6767l-2.8051-1.0879a.50048.50048,0,0,1-.3096-.3662l-1.3052-6.4375a.5027.5027,0,0,1,.1421-.459l2.1611-2.0957a17.99651,17.99651,0,0,1,.584-3.1494l-1.4394-3.2637a.50167.50167,0,0,1,.0405-.4785l3.6289-5.4756a.46348.46348,0,0,1,.4248-.2236l3.5611.0546a17.58094,17.58094,0,0,1,2.6792-1.7646l1.0883-2.8066a.50107.50107,0,0,1,.3667-.3096l6.4375-1.3057a.50721.50721,0,0,1,.4585.1416l2.0943,2.1592a17.937,17.937,0,0,1,3.1528.585l3.2627-1.4385a.50208.50208,0,0,1,.478.041l5.4751,3.6289a.501.501,0,0,1,.2237.4248l-.0542,3.5654a17.25531,17.25531,0,0,1,1.7641,2.6748l2.8071,1.0889a.49928.49928,0,0,1,.3096.3662l1.3052,6.4375a.5027.5027,0,0,1-.1421.459l-2.1621,2.0967a17.94511,17.94511,0,0,1-.585,3.1435l1.4414,3.2686a.50119.50119,0,0,1-.0405.4785L250,203.5908a.52061.52061,0,0,1-.4243.2237l-3.563-.0538a17.57718,17.57718,0,0,1-2.6753,1.7588l-1.0908,2.8125a.5009.5009,0,0,1-.3667.3096l-6.4375,1.3057A.49447.49447,0,0,1,235.3428,209.957Zm-5.6367-3.9297a.49778.49778,0,0,1,.1411.0206,16.693,16.693,0,0,0,3.311.6162.49683.49683,0,0,1,.3174.1504l2.0356,2.0986,5.9019-1.1973,1.0596-2.7324a.49967.49967,0,0,1,.2353-.2627,16.56138,16.56138,0,0,0,2.8154-1.8506.42985.42985,0,0,1,.3233-.1123l3.4707.0527,3.3266-5.0195-1.4043-3.1836a.50252.50252,0,0,1-.0219-.3418,16.99029,16.99029,0,0,0,.6157-3.3105.50089.50089,0,0,1,.1499-.3184l2.0991-2.0361-1.1963-5.9014-2.727-1.0576a.49792.49792,0,0,1-.2666-.2422,16.25,16.25,0,0,0-1.8506-2.8056.501.501,0,0,1-.1138-.3252l.0532-3.4737-5.0195-3.3271-3.1758,1.4004a.513.513,0,0,1-.3413.0234,16.98652,16.98652,0,0,0-3.3227-.6162.50163.50163,0,0,1-.3174-.1494l-2.0332-2.0967-5.9019,1.1973-1.0571,2.7265a.4982.4982,0,0,1-.2358.2627,16.565,16.565,0,0,0-2.8164,1.8545.462.462,0,0,1-.3252.1143l-3.4698-.0537-3.3266,5.0205,1.4023,3.1787a.50154.50154,0,0,1-.0102.4258,17.42892,17.42892,0,0,0-.5826,3.2334.49926.49926,0,0,1-.1499.3173l-2.0981,2.0352,1.1963,5.9014,2.7256,1.0566a.49726.49726,0,0,1,.2734.2568,16.29968,16.29968,0,0,0,1.8438,2.7911.50721.50721,0,0,1,.1152.3271l-.0532,3.4717,5.0195,3.3281,3.1836-1.4043A.49936.49936,0,0,1,229.7061,206.0273Zm4.9179-3.2353a13.32264,13.32264,0,0,1-11.0918-20.6807h.0005A13.32621,13.32621,0,1,1,234.624,202.792Zm-10.2583-20.1279a12.32605,12.32605,0,1,0,17.0869-3.4688,12.23984,12.23984,0,0,0-17.0869,3.4688Z" transform="translate(0 -77.40821)"/><path class="cls-6" d="M425.8263,231.6496l-15.6946-2.1183,10.3803-77.8082-30.2813-4.0863-73.453,67.6263-3.8593,28.9294,63.2915,8.5416-3.1565,23.6624,30.2813,4.0863,3.1564-23.6618,15.6947,2.1177Zm-79.4186-10.7179,38.7579-35.3279-5.3151,39.8412Z" transform="translate(0 -77.40821)"/></g><g id="Character"><path class="cls-5" d="M222.4519,304.8413c1.3889-22.4028-1.1657-63.1266,40.9445-57.7361,45.1354,5.7778,32.2222,58.5555,32.2222,58.5555Z" transform="translate(0 -77.40821)"/><circle class="cls-8" cx="251.5136" cy="195.59179" r="18.3753"/><path class="cls-5" d="M253.9272,254.6538c-8.7035-1.4864-18.0105,4.9295-18.9272,11.4295l34.5068,3.1729C268.2911,261.8467,260.8333,255.8333,253.9272,254.6538Z" transform="translate(0 -77.40821)"/><path class="cls-5" d="M265.576,272.5427c-.2466,4.804-2.8647,8.5743-5.8477,8.4212s-5.2013-4.1716-4.9547-8.9757,2.8646-8.5743,5.8476-8.4212S265.8225,267.7386,265.576,272.5427Z" transform="translate(0 -77.40821)"/><path class="cls-6" d="M251.5137,292.375A19.375,19.375,0,1,1,270.8887,273,19.39713,19.39713,0,0,1,251.5137,292.375Zm0-36.75A17.375,17.375,0,1,0,268.8887,273,17.39447,17.39447,0,0,0,251.5137,255.625Z" transform="translate(0 -77.40821)"/><path class="cls-9" d="M290.4854,304.2773a.5397.5397,0,0,1-.1177-.0136.50084.50084,0,0,1-.3692-.6035c.0327-.1348,3.2193-13.6944-.0898-27.4034a.49977.49977,0,1,1,.9717-.2343c3.3681,13.9502.1235,27.7343.0903,27.872A.49934.49934,0,0,1,290.4854,304.2773Z" transform="translate(0 -77.40821)"/><path class="cls-9" d="M287.6982,268.7588a.49971.49971,0,0,1-.455-.292,35.33933,35.33933,0,0,0-4.7417-7.6572.5.5,0,0,1,.7744-.6328,36.32291,36.32291,0,0,1,4.8764,7.874.50052.50052,0,0,1-.4541.708Z" transform="translate(0 -77.40821)"/><path class="cls-5" d="M128.7349,409.918c-.1245,0-.2481-.001-.3721-.0049a4.99993,4.99993,0,0,1,.2744-9.9961c.0313.001.0635.001.0957.001,2.8892,0,9.8394-3.5098,24.3784-26.4297a5.00021,5.00021,0,0,1,7.5083-1.0899,206.95369,206.95369,0,0,0,37.1436,25.4766,4.99969,4.99969,0,0,1-4.5249,8.917,213.21859,213.21859,0,0,1-34.7984-23.1465C146.2544,401.9648,137.2114,409.918,128.7349,409.918Z" transform="translate(0 -77.40821)"/><path class="cls-5" d="M159.6704,371.5a3.03256,3.03256,0,0,1-.4282-.0303,3,3,0,0,1-2.5454-3.3945c.7109-4.9766-.1704-23.626-6.4746-38.126a3.00036,3.00036,0,0,1,1.0615-3.6758c13.6982-9.3349,42.8765-10.4511,44.1123-10.4941a2.99987,2.99987,0,0,1,.209,5.9961c-.2705.0098-25.7803.9883-38.8882,8.2021,5.584,14.4385,6.8496,32.4366,5.9194,38.9473A2.99984,2.99984,0,0,1,159.6704,371.5Z" transform="translate(0 -77.40821)"/><path class="cls-6" d="M164.7099,367.6158c-1.9955-4.706-10.9877-4.1714-16.2678-.1382-2.8218,2.1554-6.6414,8.6405-7.0426,10.9913a3.54036,3.54036,0,0,0,4.0231,4.238c3.4477-.2984,8.1811-5.3086,8.1811-5.3086-3.1489,3.0879.9144,5.2667,6.977.8014C163.9444,375.7222,166.9444,372.8857,164.7099,367.6158Z" transform="translate(0 -77.40821)"/><path class="cls-5" d="M336.7056,306.1611a.486.486,0,0,1-.1382-.0195.49993.49993,0,0,1-.3423-.6182c1.332-4.6396,2.7871-7.4746,4.6997-9.0507a5.197,5.197,0,0,1,.1528-3.2588,6.43859,6.43859,0,0,1,2.3619-3.0049,2.55825,2.55825,0,0,1-.5904-2.3819,6.17479,6.17479,0,0,1,2.1363-3.1562,2.2889,2.2889,0,0,1-.5669-1.5078c-.0254-2.9824,5.5073-7.5254,11.7622-8.3789a.48949.48949,0,0,1,.563.4277.49969.49969,0,0,1-.4283.5625c-5.9375.8106-10.9165,5.1094-10.8969,7.3799a1.29867,1.29867,0,0,0,.3618.9033,12.25632,12.25632,0,0,1,9.2822-1.8633c3.0693.587,4.3174,1.2354,4.1729,2.167-.272,1.753-6.8091,2.1153-11.19,1.5938a6.13946,6.13946,0,0,1-2.25-.6455,5.40292,5.40292,0,0,0-1.9692,2.7304,1.57687,1.57687,0,0,0,.4951,1.6358c1.8564-.957,4.4692-1.3574,7.916-.5947,4.5366,1.0009,4.7065,1.5537,4.8081,1.8828a.66173.66173,0,0,1-.1611.6621c-.9561,1.0127-7.9063.5322-11.398-.3233a4.99877,4.99877,0,0,1-1.2026-.4511,5.475,5.475,0,0,0-2.2676,2.708,4.32529,4.32529,0,0,0-.2256,2.3027c.1802-.1074.3638-.2051.5518-.2949,2.0688-.9815,4.5713-.8174,7.6538.501,2.0449.8759,3.0312,1.6504,3.103,2.4394a1.10642,1.10642,0,0,1-.5703,1.042c-1.5249,1.0127-6.8701.8594-9.6484-.6201a3.90783,3.90783,0,0,1-1.5381-1.4863c-1.6348,1.4931-2.9531,4.166-4.1563,8.3554A.49956.49956,0,0,1,336.7056,306.1611Zm5.4257-9.331a2.94954,2.94954,0,0,0,1.2193,1.2168c2.2568,1.2011,6.6963,1.4756,8.3618.8037.3403-.1377.3911-.252.3911-.2529,0-.003-.0547-.5625-2.501-1.6094-2.8027-1.1992-5.038-1.3672-6.831-.5176A5.529,5.529,0,0,0,342.1313,296.8301Zm3.334-6.5684c.0865.0254.1729.0488.2583.0703a32.918,32.918,0,0,0,9.9331.7432,22.60453,22.60453,0,0,0-3.6352-1.0176A11.33828,11.33828,0,0,0,345.4653,290.2617Zm1.2613-5.6221a6.35546,6.35546,0,0,0,1.437.3233c4.9829.5898,9.3823-.1074,10.04-.7285-.1699-.1543-.8408-.5821-3.3286-1.0576A11.26558,11.26558,0,0,0,346.7266,284.6396Z" transform="translate(0 -77.40821)"/><path class="cls-5" d="M206.5275,408.2483c.6585-.211.438-.8473-.2973-.8473H192.6911c-25.7808-2.7298-43.7937.9293-32.4435,1.7918,11.3503.8628-.7995.6817-9.0881,3.8174s61.6537,3.9263,68.0152,0C225.0414,409.3892,197.392,411.1757,206.5275,408.2483Z" transform="translate(0 -77.40821)"/><polygon class="cls-6" points="303.469 334.83 185.667 330.925 180.778 216.703 319.889 219.814 303.469 334.83"/><path class="cls-5" d="M222.4517,410.0527a.49969.49969,0,0,1-.4981-.4589L212.5103,294.873a.50018.50018,0,0,1,.997-.082l9.4434,114.7207a.49979.49979,0,0,1-.4575.5391C222.479,410.0518,222.4653,410.0527,222.4517,410.0527Z" transform="translate(0 -77.40821)"/><polygon class="cls-6" points="303.469 334.83 335.131 330.01 345.104 223.8 319.889 219.814 303.469 334.83"/><polygon class="cls-10" points="303.469 334.83 335.131 330.01 345.104 223.8 319.889 219.814 303.469 334.83"/><path class="cls-5" d="M195.7345,386.3159,192.83,318.4544a12.26891,12.26891,0,0,1,12.532-12.7905l88.0587,1.9693a12.26877,12.26877,0,0,1,11.8714,13.9997l-9.7634,68.3913a12.269,12.269,0,0,1-12.5523,10.5283l-75.3907-2.499A12.26887,12.26887,0,0,1,195.7345,386.3159Z" transform="translate(0 -77.40821)"/><path class="cls-8" d="M205.247,326.4883l13.624.4335-.1118,3.5126-8.5289-.2714-.0832,2.6148,7.9118.2518-.1068,3.3555-7.9118-.2517-.1032,3.2434,8.7759.2793-.1185,3.7257-13.871-.4414Z" transform="translate(0 -77.40821)"/><path class="cls-8" d="M221.4,343.471l.5235-16.4521,8.473.2696a12.30284,12.30284,0,0,1,3.5895.5189,3.83785,3.83785,0,0,1,1.961,1.5617,4.64772,4.64772,0,0,1-1.6377,6.5929,6.15406,6.15406,0,0,1-1.806.5942,5.09042,5.09042,0,0,1,1.3042.6483,5.153,5.153,0,0,1,.7853.891,6.47225,6.47225,0,0,1,.6797,1.0448l2.3102,4.8456-5.7443-.1827-2.5573-5.1143a3.84449,3.84449,0,0,0-.8799-1.2971,2.1347,2.1347,0,0,0-1.2338-.4215l-.4487-.0143-.2124,6.6775Zm5.4176-9.6233,2.1433.0682a7.69536,7.69536,0,0,0,1.354-.1815,1.3461,1.3461,0,0,0,.8414-.4902,1.66716,1.66716,0,0,0-.1161-2.1828,3.05618,3.05618,0,0,0-1.8832-.4871l-2.2329-.071Z" transform="translate(0 -77.40821)"/><path class="cls-8" d="M239.2771,344.0398l.5234-16.4521,8.4731.2696a12.3017,12.3017,0,0,1,3.5895.5189,3.83785,3.83785,0,0,1,1.961,1.5617,4.64707,4.64707,0,0,1-1.6377,6.5929,6.1488,6.1488,0,0,1-1.8061.5942,5.08355,5.08355,0,0,1,1.3042.6483,5.14643,5.14643,0,0,1,.7856.891,6.50743,6.50743,0,0,1,.6797,1.0449l2.3102,4.8456-5.7445-.1828-2.5574-5.1142a3.84127,3.84127,0,0,0-.8798-1.2972,2.13408,2.13408,0,0,0-1.2336-.4215l-.4489-.0143-.2125,6.6775Zm5.4176-9.6233,2.1435.0682a7.685,7.685,0,0,0,1.3538-.1815,1.34413,1.34413,0,0,0,.8413-.4902,1.66755,1.66755,0,0,0-.1158-2.1828,3.05626,3.05626,0,0,0-1.8832-.487l-2.2332-.0711Z" transform="translate(0 -77.40821)"/><path class="cls-8" d="M256.3161,336.3591a7.79183,7.79183,0,0,1,8.7663-8.2476,8.606,8.606,0,0,1,6.2591,2.4063,8.319,8.319,0,0,1,2.0257,6.2486,10.13666,10.13666,0,0,1-1.1212,4.6996,6.92706,6.92706,0,0,1-2.8971,2.7836,9.26566,9.26566,0,0,1-4.606.8812,10.52451,10.52451,0,0,1-4.5784-1.0331,6.93552,6.93552,0,0,1-2.8677-2.8996A9.31563,9.31563,0,0,1,256.3161,336.3591Zm5.0829.1842a5.51872,5.51872,0,0,0,.8119,3.6093,3.50649,3.50649,0,0,0,5.0551.1833,6.09073,6.09073,0,0,0,1.0195-3.7986,5.086,5.086,0,0,0-.829-3.4241,3.205,3.205,0,0,0-2.5078-1.153,3.08935,3.08935,0,0,0-2.5037,1.0104A5.53683,5.53683,0,0,0,261.399,336.5433Z" transform="translate(0 -77.40821)"/><path class="cls-8" d="M275.907,345.2053l.5235-16.4521,8.4731.2696a12.30206,12.30206,0,0,1,3.5894.5189,3.837,3.837,0,0,1,1.961,1.5617,4.64762,4.64762,0,0,1-1.6376,6.5929,6.15289,6.15289,0,0,1-1.8061.5942,5.087,5.087,0,0,1,1.3042.6483,5.15631,5.15631,0,0,1,.7854.891,6.4698,6.4698,0,0,1,.6796,1.0449l2.3102,4.8456-5.7443-.1828-2.5573-5.1142a3.84409,3.84409,0,0,0-.8799-1.2972,2.1347,2.1347,0,0,0-1.2338-.4215l-.4486-.0143-.2125,6.6775Zm5.4177-9.6233,2.1432.0682a7.6861,7.6861,0,0,0,1.3541-.1815,1.34569,1.34569,0,0,0,.8413-.4902,1.66716,1.66716,0,0,0-.1161-2.1828,3.05525,3.05525,0,0,0-1.8831-.487l-2.233-.0711Z" transform="translate(0 -77.40821)"/><path class="cls-8" d="M283.999,373.1582a1.31058,1.31058,0,0,1-.9697-.4268l-8.5606-9.3691-9.2368,8.4395a1.31256,1.31256,0,0,1-1.8545-.083l-8.5605-9.3692-9.2368,8.4395a1.31345,1.31345,0,0,1-1.8545-.083l-8.5606-9.3692-9.2368,8.4404a1.31213,1.31213,0,0,1-1.8545-.083l-8.5605-9.3691-9.2368,8.4394a1.31231,1.31231,0,1,1-1.7705-1.9375l10.2055-9.3251a1.31059,1.31059,0,0,1,1.8545.083l8.5606,9.3691,9.2368-8.4404a1.31213,1.31213,0,0,1,1.8545.083l8.5605,9.3691,9.2368-8.4394a1.31151,1.31151,0,0,1,1.8545.083l8.5606,9.3691,9.2368-8.4394a1.30981,1.30981,0,0,1,1.8545.083l9.4463,10.3379a1.313,1.313,0,0,1-.9688,2.1982Z" transform="translate(0 -77.40821)"/><polygon class="cls-11" points="125.75 337.258 119.492 334.274 113.909 307.107 116.939 303.77 125.75 337.258"/><polygon class="cls-11" points="125.75 337.258 134.055 332.407 126.935 310.023 116.939 303.77 125.75 337.258"/><polygon class="cls-10" points="125.75 337.258 134.055 332.407 126.935 310.023 116.939 303.77 125.75 337.258"/><path class="cls-5" d="M261.9492,419.6055c-.2363,0-.4668-.0039-.6914-.0098a4.99993,4.99993,0,0,1,.2744-9.9961c7.7027.252,24.0059-4.4805,33.3189-13.5205a5.00088,5.00088,0,0,1,2.0459-1.2012c15.7881-4.7383,21.6645,4.834,21.9067,5.2442l-8.6074,5.0898a1.26971,1.26971,0,0,0,.1152.1826c-.0957-.1318-2.3315-3.039-9.4516-1.2402C289.1733,414.8223,271.2329,419.6055,261.9492,419.6055Z" transform="translate(0 -77.40821)"/><polygon class="cls-6" points="261.395 348.844 243.182 347.696 241.745 314.12 266.222 315.035 261.395 348.844"/><polygon class="cls-11" points="261.395 348.844 265.652 344.607 268.291 323.671 266.222 315.035 261.395 348.844"/><polygon class="cls-10" points="261.395 348.844 265.652 344.607 268.291 323.671 266.222 315.035 261.395 348.844"/><path class="cls-5" d="M366.9102,413.5371a2.9892,2.9892,0,0,1-1.813-.6113c-10.3946-7.9004-24.4453-21.9258-29.8369-35.457a2.987,2.987,0,0,1-.1714-.6133c-2.6285-15.6328-5.1411-48.541-5.2466-49.9346a2.99977,2.99977,0,1,1,5.9824-.4531c.0259.3359,2.5625,33.5664,5.1279,49.0732,5.3775,13.1563,19.9571,26.666,27.7754,32.6074a3,3,0,0,1-1.8178,5.3887Z" transform="translate(0 -77.40821)"/><path class="cls-5" d="M380.7778,415.0527c-2.3193,0-4.9487-1.0517-7.8144-3.125a3.00024,3.00024,0,0,1,3.5176-4.8613c2.477,1.793,3.83,1.9863,4.2968,1.9863a3,3,0,0,1,0,6Z" transform="translate(0 -77.40821)"/><path class="cls-6" d="M373.8041,411.8425c3.2099-9.5354,16.3702-7.6515,20.9019-6.2354a48.10484,48.10484,0,0,1,11.0695,4.8027c2.4546,1.6049,2.4941,4.2853-.7789,5.8165-4.036,1.8882-14.1614.2126-14.1614.2126,5.2415,2.2947-.0103,5.9719-9.2051,2.3603C378.6372,417.6234,372.6712,415.3356,373.8041,411.8425Z" transform="translate(0 -77.40821)"/><path class="cls-5" d="M341.8616,331.0363c-1.1911,8.1017-7.8998,14.0762-13.3575,13.2739s-5.6846-8.038-4.4936-16.1397,3.3492-14.0014,8.8069-13.1991S343.0526,322.9346,341.8616,331.0363Z" transform="translate(0 -77.40821)"/><circle class="cls-5" cx="209.875" cy="220.46679" r="0.8194"/><path class="cls-5" d="M218.2083,303.7778a.81945.81945,0,1,1-.8194-.8195A.81939.81939,0,0,1,218.2083,303.7778Z" transform="translate(0 -77.40821)"/><path class="cls-5" d="M219.125,400.6828a.81945.81945,0,1,1-.8194-.8195A.81945.81945,0,0,1,219.125,400.6828Z" transform="translate(0 -77.40821)"/><path class="cls-5" d="M226.6389,406.5855a.81945.81945,0,1,1-.8195-.8194A.8195.8195,0,0,1,226.6389,406.5855Z" transform="translate(0 -77.40821)"/></g><g id="Robot_Parts" data-name="Robot Parts"><path class="cls-5" d="M82.5103,416.4189a9.64892,9.64892,0,0,1-7.3335-3.9492.49974.49974,0,1,1,.8222-.5683c1.8662,2.6943,5.979,4.1308,7.8052,3.2802a1.40776,1.40776,0,0,0,.4673-.3388,6.06717,6.06717,0,0,1-3.5259-4.4815c-.2266-1.2675-.4067-2.9804.6392-3.2168,1.434-.3222,3.3105,3.1465,4.0322,5.7754a3.57774,3.57774,0,0,1,.1304,1.3428,4.46906,4.46906,0,0,0,1.7866.1406,1.934,1.934,0,0,0,1.3745-.7451,5.84332,5.84332,0,0,1-2.3047-4.1894c-.3877-2.7344-.0972-3.211.2061-3.4444a.67146.67146,0,0,1,.688-.0781c1.0693.4551,2.3652,4.334,2.6127,6.5293a3.10584,3.10584,0,0,1,.0025.6933,3.82808,3.82808,0,0,0,1.3486.2618,4.35957,4.35957,0,0,0,2.4097-.6289,3.42451,3.42451,0,0,1-.4019-.295c-1.0376-.8867-1.456-2.3037-1.2802-4.331.1357-1.5674.4926-2.4238,1.123-2.6934a1.1363,1.1363,0,0,1,1.2075.2393,6.90929,6.90929,0,0,1,1.7256,5.5566,2.93052,2.93052,0,0,1-.5024,1.1514c1.8349.3164,4.417-.1992,6.6435-.749a.5.5,0,0,1,.2403.9707c-2.7095.6699-5.627,1.2148-7.6875.6172a5.68434,5.68434,0,0,1-3.4981,1.1621,4.86334,4.86334,0,0,1-1.6391-.3077,2.81556,2.81556,0,0,1-2.1241,1.2706,5.41432,5.41432,0,0,1-2.2378-.1915,2.27553,2.27553,0,0,1-1.0131.8858A4.10471,4.10471,0,0,1,82.5103,416.4189Zm-.8648-8.2773a4.43071,4.43071,0,0,0,.0845,2.0439,5.07689,5.07689,0,0,0,2.8393,3.7081,3.05341,3.05341,0,0,0-.1162-.7081C83.668,410.3271,82.1748,408.3574,81.6455,408.1416Zm5.5713-.8721a13.87444,13.87444,0,0,0,.1772,2.0586,5.15062,5.15062,0,0,0,1.5186,3.2227A15.79448,15.79448,0,0,0,87.2168,407.2695Zm6.291-.8681h-.0019c-.0025.0009-.3755.1904-.5205,1.8603-.146,1.6826.1596,2.8233.934,3.4844a2.56754,2.56754,0,0,0,.5992.3789,2.13526,2.13526,0,0,0,.5434-1.0283,6.25614,6.25614,0,0,0-1.1958-4.4297C93.665,406.4434,93.5356,406.4014,93.5078,406.4014Z" transform="translate(0 -77.40821)"/><polygon class="cls-5" points="228.873 346.57 231.583 341.87 228.873 337.17 225.972 337.17 227.611 341.87 225.972 346.57 228.873 346.57"/><path class="cls-5" d="M226.1632,421.728a2.4451,2.4451,0,1,1,0-4.8902l-4.6076-.9222-1.2223,3.7213,2.0556,3.1389Z" transform="translate(0 -77.40821)"/><path class="cls-6" d="M226.5568,414.5781h-5.4302l-2.7099,4.6997,2.7099,4.7002h5.4302l2.71-4.7002Zm-2.7102,7.1499a2.4451,2.4451,0,1,1,2.4402-2.4502A2.45415,2.45415,0,0,1,223.8466,421.728Z" transform="translate(0 -77.40821)"/><polygon class="cls-6" points="417.889 336.857 415.877 333.366 417.889 329.876 420.044 329.876 418.827 333.366 420.044 336.857 417.889 336.857"/><path class="cls-6" d="M419.9022,412.594a1.81585,1.81585,0,1,0,0-3.6317l3.4219-.6849.9077,2.7637-1.5266,2.3311Z" transform="translate(0 -77.40821)"/><path class="cls-5" d="M419.6099,407.2841h4.0327l2.0126,3.4903-2.0126,3.4906h-4.0327l-2.0126-3.4906Zm2.0127,5.3099a1.81585,1.81585,0,1,0-1.8122-1.8196A1.82258,1.82258,0,0,0,421.6226,412.594Z" transform="translate(0 -77.40821)"/><path class="cls-5" d="M342.9478,418.8981h4.5182a2.14527,2.14527,0,0,0,2.139-2.1389h0a2.14535,2.14535,0,0,0-2.139-2.139h-4.5182a2.14529,2.14529,0,0,0-2.139,2.139h0A2.1452,2.1452,0,0,0,342.9478,418.8981Z" transform="translate(0 -77.40821)"/><path class="cls-6" d="M335.7298,414.8631a4.455,4.455,0,1,1,2.0016,6.1803A4.5982,4.5982,0,0,1,335.7298,414.8631Z" transform="translate(0 -77.40821)"/><rect class="cls-5" x="339.06639" y="411.70837" width="1.36991" height="10.10166" transform="translate(469.33281 861.2014) rotate(-154.75747)"/></g></svg>