<svg id="Layer_1" data-name="Layer 1" xmlns="http://www.w3.org/2000/svg" xmlns:xlink="http://www.w3.org/1999/xlink" viewBox="0 0 1190.64952 506.93435"><defs><style>.cls-1,.cls-2{fill:#2e30b1;}.cls-2{font-size:314.67664px;font-family:Poppins-SemiBold, Poppins;font-weight:600;}.cls-3{fill:url(#linear-gradient);}.cls-4{fill:url(#linear-gradient-2);}.cls-5{fill:url(#linear-gradient-3);}</style><linearGradient id="linear-gradient" x1="1060.73034" y1="266.12386" x2="1060.73034" y2="99.93533" gradientUnits="userSpaceOnUse"><stop offset="0" stop-color="#4d4d4d"/><stop offset="0.99721" stop-color="#fff"/></linearGradient><linearGradient id="linear-gradient-2" x1="910.24563" y1="173.46033" x2="910.24563" y2="320.93533" gradientUnits="userSpaceOnUse"><stop offset="0" stop-color="#4d4d4d"/><stop offset="1" stop-color="#fff"/></linearGradient><linearGradient id="linear-gradient-3" x1="1051.50636" y1="225.01507" x2="924.79898" y2="444.47868" gradientUnits="userSpaceOnUse"><stop offset="0" stop-color="#fff"/><stop offset="0.19721" stop-color="#fdfdfd"/><stop offset="0.37151" stop-color="#fefefe"/><stop offset="1" stop-color="#ccc"/></linearGradient></defs><title>Logo01blue</title><path id="bg4" class="cls-1" d="M918.03754,149.95206h140.92929a107.66645,107.66645,0,0,1,107.66645,107.66645V403.939a108.171,108.171,0,0,1-108.171,108.171H886.042a81.50754,81.50754,0,0,1-81.50754-81.50754V263.45513A113.50307,113.50307,0,0,1,918.03754,149.95206Z" transform="matrix(0.90951, -0.41569, 0.41569, 0.90951, -48.13943, 313.58851)"/><text class="cls-2" transform="translate(0 320.33084)">ENSA</text><polygon class="cls-3" points="1110.339 99.935 1032.097 99.935 1011.122 262.488 1088.832 266.124 1110.339 99.935"/><polygon class="cls-4" points="951.553 249.96 943.167 320.935 863.643 320.935 883.31 173.46 956.849 173.46 951.553 249.96"/><path class="cls-5" d="M892.86581,226h78.66913l-9.40609,71.825h93.63336s38.05192-2.975,50.45086-41.225L1081.41519,447h-78.66913l9.83364-70.975H912.96065s-30.356,3.4-44.89271,35.7Z" transform="translate(0.27783 -126.06467)"/></svg>