<svg id="Layer_1" data-name="Layer 1" xmlns="http://www.w3.org/2000/svg" xmlns:xlink="http://www.w3.org/1999/xlink" viewBox="0 0 236.13 242.67"><defs><style>.cls-1{fill:#fff;}.cls-2{fill:url(#linear-gradient);}.cls-3{fill:url(#linear-gradient-2);}.cls-4{fill:url(#linear-gradient-3);}</style><linearGradient id="linear-gradient" x1="161.03" y1="154.47" x2="161.03" y2="57.27" gradientUnits="userSpaceOnUse"><stop offset="0" stop-color="#4d4d4d"/><stop offset="1" stop-color="#2e30b1"/></linearGradient><linearGradient id="linear-gradient-2" x1="73.54" y1="100.27" x2="73.54" y2="186.52" xlink:href="#linear-gradient"/><linearGradient id="linear-gradient-3" x1="173.16" y1="79.97" x2="99.27" y2="207.96" gradientUnits="userSpaceOnUse"><stop offset="0" stop-color="#302eb6"/><stop offset="1" stop-color="#2e30b1"/></linearGradient></defs><title>Logop2</title><path id="bg4" class="cls-1" d="M99,35.89h75a66.58,66.58,0,0,1,66.58,66.58v78.35a66.89,66.89,0,0,1-66.89,66.89H79.25a50.4,50.4,0,0,1-50.4-50.4V106.08A70.19,70.19,0,0,1,99,35.89Z" transform="matrix(0.91, -0.42, 0.42, 0.91, -63.97, 45.75)"/><polygon class="cls-2" points="189.87 57.27 144.38 57.27 132.19 152.34 177.37 154.47 189.87 57.27"/><polygon class="cls-3" points="97.56 145.01 92.68 186.52 46.45 186.52 57.88 100.27 100.64 100.27 97.56 145.01"/><path class="cls-4" d="M80.82,80.36h45.73l-5.47,42h54.44s22.12-1.74,29.33-24.11L190.43,209.61H144.7l5.71-41.51H92.5s-17.65,2-26.1,20.88Z" transform="translate(-17.22 -23.09)"/></svg>