<svg id="Layer_1" data-name="Layer 1" xmlns="http://www.w3.org/2000/svg" xmlns:xlink="http://www.w3.org/1999/xlink" viewBox="0 0 1500 1500"><defs><style>.cls-1{fill:url(#linear-gradient);}.cls-2{fill:url(#linear-gradient-2);}.cls-3{fill:url(#linear-gradient-3);}.cls-4{fill:url(#linear-gradient-4);}</style><linearGradient id="linear-gradient" y1="750" x2="1500" y2="750" gradientUnits="userSpaceOnUse"><stop offset="0" stop-color="#302eb6"/><stop offset="1" stop-color="#2e30b1"/></linearGradient><linearGradient id="linear-gradient-2" x1="1019.41572" y1="953.57157" x2="1019.41572" y2="358" gradientUnits="userSpaceOnUse"><stop offset="0" stop-color="#4d4d4d"/><stop offset="0.99721" stop-color="#fff"/></linearGradient><linearGradient id="linear-gradient-3" x1="470.87502" y1="621.49231" x2="470.87502" y2="1150" gradientUnits="userSpaceOnUse"><stop offset="0" stop-color="#4d4d4d"/><stop offset="1" stop-color="#fff"/></linearGradient><linearGradient id="linear-gradient-4" x1="984.67961" y1="351.30199" x2="526.93863" y2="1144.13263" gradientUnits="userSpaceOnUse"><stop offset="0" stop-color="#fff"/><stop offset="0.19721" stop-color="#fdfdfd"/><stop offset="0.37151" stop-color="#fefefe"/><stop offset="1" stop-color="#ccc"/></linearGradient></defs><title>Logoll</title><path id="bg4" class="cls-1" d="M1267.44075,1216.553l-576.75644,256.9347c-150.57919,67.08033-328.43913,2.4806-397.2613-144.28756L37.87826,784.23286c-95.83809-204.38154-3.544-445.79132,206.14453-539.20384L715.43994,35.0211c198.90586-88.609,433.84792-3.27672,524.75778,190.595l223.70344,477.06345C1555.237,897.45979,1467.27871,1127.52877,1267.44075,1216.553Z" transform="translate(0 0)"/><polygon class="cls-2" points="1200.247 358 915.044 358 838.585 940.541 1121.85 953.572 1200.247 358"/><polygon class="cls-3" points="621.446 895.646 590.878 1150 301 1150 372.69 621.492 640.75 621.492 621.446 895.646"/><path class="cls-4" d="M408.53556,358H695.29705l-34.2867,257.4h341.30852s138.70529-10.66154,183.9014-147.73846L1095.82806,1150H809.06656l35.84519-254.35385H481.78442s-110.65253,12.18462-163.64107,127.93847Z" transform="translate(0 0)"/></svg>