<svg id="Layer_1" data-name="Layer 1" xmlns="http://www.w3.org/2000/svg" xmlns:xlink="http://www.w3.org/1999/xlink" viewBox="0 0 1200 800"><defs><style>.cls-1{fill:none;}.cls-2{fill:#e5e7e6;}.cls-3{clip-path:url(#clip-path);}.cls-4{fill:#dee0df;}.cls-5{fill:#edefee;}</style><clipPath id="clip-path"><rect class="cls-1" x="12.34292" y="0.08483" width="1164.80061" height="776.53374"/></clipPath></defs><title>MessageBackground</title><rect class="cls-2" width="1200" height="802.5017"/><g class="cls-3"><rect class="cls-4" x="1123.15748" y="586.08918" width="80.56165" height="80.56165" rx="5.8539" transform="translate(2326.87661 1252.74001) rotate(180)"/><path class="cls-5" d="M973.25968,170.49718h68.85385a5.8539,5.8539,0,0,1,5.8539,5.8539v68.85375a5.854,5.854,0,0,1-5.854,5.854H973.25979a5.854,5.854,0,0,1-5.854-5.854V176.35108A5.8539,5.8539,0,0,1,973.25968,170.49718Z" transform="translate(2015.37322 421.556) rotate(180)"/><path class="cls-4" d="M994.85563,361.67575h93.49062a7.9486,7.9486,0,0,1,7.9486,7.9486v93.49072a7.9485,7.9485,0,0,1-7.9485,7.9485H994.85553a7.9485,7.9485,0,0,1-7.9485-7.9485V369.62435A7.9486,7.9486,0,0,1,994.85563,361.67575Z" transform="translate(2083.20188 832.73931) rotate(180)"/><path class="cls-4" d="M1135.18661,397.12311h93.49062a7.9486,7.9486,0,0,1,7.9486,7.9486v93.49072a7.9485,7.9485,0,0,1-7.9485,7.9485h-93.49082a7.9485,7.9485,0,0,1-7.9485-7.9485V405.07171a7.9486,7.9486,0,0,1,7.9486-7.9486Z" transform="translate(2363.86385 903.63405) rotate(180)"/><path class="cls-4" d="M1106.5013,9.31875h93.49057a7.9485,7.9485,0,0,1,7.9485,7.9485v93.49082a7.9485,7.9485,0,0,1-7.9485,7.9485H1106.5012a7.9485,7.9485,0,0,1-7.9485-7.9485V17.26735A7.9486,7.9486,0,0,1,1106.5013,9.31875Z" transform="translate(2306.49307 128.02531) rotate(180)"/><rect class="cls-4" x="609.20817" y="571.6761" width="109.38782" height="109.38782" rx="7.9486" transform="translate(1327.80417 1252.74001) rotate(180)"/><path class="cls-5" d="M-34.40249,592.27893H59.08823a7.9486,7.9486,0,0,1,7.9486,7.9486v93.49062a7.9486,7.9486,0,0,1-7.9486,7.9486H-34.40243A7.94856,7.94856,0,0,1-42.351,693.7182V600.22743a7.9485,7.9485,0,0,1,7.9485-7.9485Z" transform="translate(24.68585 1293.94569) rotate(180)"/><path class="cls-5" d="M1011.91468,805.56262h-117.983a18.4714,18.4714,0,0,1-18.45184-18.45168V669.12782A18.47144,18.47144,0,0,1,893.93172,650.676h117.983a18.47144,18.47144,0,0,1,18.45184,18.45184V787.11094A18.4714,18.4714,0,0,1,1011.91468,805.56262Zm-117.983-152.375a15.95872,15.95872,0,0,0-15.94022,15.94022V787.11094A15.95869,15.95869,0,0,0,893.93172,803.051h117.983a15.9587,15.9587,0,0,0,15.94024-15.94006V669.12782a15.95874,15.95874,0,0,0-15.94024-15.94022Z"/><path class="cls-4" d="M542.796,595.676H424.81291a18.47247,18.47247,0,0,1-18.45246-18.45184v-117.983a18.47247,18.47247,0,0,1,18.45246-18.45184H542.796a18.47247,18.47247,0,0,1,18.45246,18.45184v117.983A18.47247,18.47247,0,0,1,542.796,595.676ZM424.81291,443.301a15.95805,15.95805,0,0,0-15.93944,15.94022v117.983a15.95805,15.95805,0,0,0,15.93944,15.94022H542.796a15.95805,15.95805,0,0,0,15.93944-15.94022v-117.983A15.95805,15.95805,0,0,0,542.796,443.301Z"/><path class="cls-4" d="M965.55934,606.5743H890.2811a12.2414,12.2414,0,0,1-12.22748-12.22886V519.06718a12.24006,12.24006,0,0,1,12.22748-12.2273h75.27824a12.23992,12.23992,0,0,1,12.2273,12.2273v75.27826A12.24126,12.24126,0,0,1,965.55934,606.5743ZM890.2811,509.3515a9.72734,9.72734,0,0,0-9.71586,9.71568v75.27826a9.7278,9.7278,0,0,0,9.71586,9.71739h75.27824a9.72766,9.72766,0,0,0,9.71568-9.71739V519.06718a9.7272,9.7272,0,0,0-9.71568-9.71568Z"/><path class="cls-4" d="M1116.26606,384.03836h-75.27827a12.24133,12.24133,0,0,1-12.22743-12.22823V296.53186a12.24119,12.24119,0,0,1,12.22743-12.22807h75.27827a12.24108,12.24108,0,0,1,12.2273,12.22807v75.27827A12.24122,12.24122,0,0,1,1116.26606,384.03836Zm-75.27827-97.22155a9.7267,9.7267,0,0,0-9.71583,9.71505v75.27827a9.7267,9.7267,0,0,0,9.71583,9.71506h75.27827a9.72665,9.72665,0,0,0,9.71568-9.71506V296.53186a9.72665,9.72665,0,0,0-9.71568-9.71505Z"/><path class="cls-4" d="M1066.74976,47.03934H991.4715a12.24109,12.24109,0,0,1-12.2273-12.22808V-40.467a12.24122,12.24122,0,0,1,12.2273-12.22823h75.27826A12.24138,12.24138,0,0,1,1078.97725-40.467V34.81126A12.24125,12.24125,0,0,1,1066.74976,47.03934ZM991.4715-50.18207a9.72659,9.72659,0,0,0-9.71568,9.71506V34.81126a9.72655,9.72655,0,0,0,9.71568,9.7149h75.27826a9.72657,9.72657,0,0,0,9.71584-9.7149V-40.467a9.72661,9.72661,0,0,0-9.71584-9.71506Z"/><path class="cls-5" d="M909.49423,136.19737H596.81347A46.88177,46.88177,0,0,1,549.9849,89.36881V-223.312a46.88184,46.88184,0,0,1,46.82857-46.82934H909.49423A46.88191,46.88191,0,0,1,956.32279-223.312V89.36881A46.88185,46.88185,0,0,1,909.49423,136.19737ZM596.81347-267.62829A44.36576,44.36576,0,0,0,552.49792-223.312V89.36881a44.36542,44.36542,0,0,0,44.31555,44.31539H909.49423a44.36621,44.36621,0,0,0,44.31693-44.31539V-223.312a44.36655,44.36655,0,0,0-44.31693-44.31633Z"/><path class="cls-4" d="M1143.38246,803.50294h-75.27824a12.23991,12.23991,0,0,1-12.2273-12.2273V715.99738a12.23991,12.23991,0,0,1,12.2273-12.2273h75.27824a12.24005,12.24005,0,0,1,12.22745,12.2273v75.27826A12.24005,12.24005,0,0,1,1143.38246,803.50294Zm-75.27824-97.2214a9.72735,9.72735,0,0,0-9.71571,9.71584v75.27826a9.72735,9.72735,0,0,0,9.71571,9.71584h75.27824a9.72747,9.72747,0,0,0,9.71583-9.71584V715.99738a9.72747,9.72747,0,0,0-9.71583-9.71584Z"/><path class="cls-4" d="M744.863,788.50932H725.09325a4.1427,4.1427,0,0,1-4.13753-4.13753V764.602a4.1426,4.1426,0,0,1,4.13753-4.13753H744.863a4.14257,4.14257,0,0,1,4.13738,4.13753v19.76977A4.14267,4.14267,0,0,1,744.863,788.50932Zm-19.76977-25.53321a1.62787,1.62787,0,0,0-1.6259,1.62591v19.76977a1.628,1.628,0,0,0,1.6259,1.62591H744.863a1.628,1.628,0,0,0,1.62577-1.62591V764.602a1.62786,1.62786,0,0,0-1.62577-1.62591Z"/><path class="cls-4" d="M684.03911,745.53734h21.82252a1.85529,1.85529,0,0,1,1.85529,1.85529V769.2153a1.8554,1.8554,0,0,1-1.8554,1.8554H684.039a1.8553,1.8553,0,0,1-1.8553-1.8553V747.39274A1.8554,1.8554,0,0,1,684.03911,745.53734Z" transform="translate(1389.90062 1516.60804) rotate(180)"/><path class="cls-5" d="M989.23146,480.26115H1011.054a1.8553,1.8553,0,0,1,1.8553,1.8553v21.82276a1.8553,1.8553,0,0,1-1.8553,1.8553H989.23136a1.8553,1.8553,0,0,1-1.8553-1.8553V482.11655A1.8554,1.8554,0,0,1,989.23146,480.26115Z" transform="translate(2000.28532 986.05565) rotate(180)"/><rect class="cls-5" x="891.14194" y="393.67282" width="25.53336" height="25.53336" rx="1.8554" transform="translate(1807.81725 812.879) rotate(180)"/><path class="cls-4" d="M949.79457,664.04028h21.82256a1.8554,1.8554,0,0,1,1.8554,1.8554v21.82266a1.8553,1.8553,0,0,1-1.8553,1.8553H949.79447a1.8553,1.8553,0,0,1-1.8553-1.8553V665.89568A1.8554,1.8554,0,0,1,949.79457,664.04028Z" transform="translate(1921.4117 1353.61392) rotate(180)"/><path class="cls-4" d="M875.57042,413.16708h11.17a.9497.9497,0,0,1,.9497.9497v11.17007a.9496.9496,0,0,1-.9496.9496H875.57032a.9496.9496,0,0,1-.9496-.9496V414.11678A.9497.9497,0,0,1,875.57042,413.16708Z" transform="translate(1762.31082 839.40353) rotate(180)"/><path class="cls-4" d="M924.9238,682.78394h11.17007a.9496.9496,0,0,1,.9496.9496v11.17023a.9497.9497,0,0,1-.9497.9497h-11.17a.9497.9497,0,0,1-.9497-.9497V683.73364A.9497.9497,0,0,1,924.9238,682.78394Z" transform="translate(1861.01757 1378.63741) rotate(180)"/><path class="cls-4" d="M855.01977,763.56131H866.1899a.9497.9497,0,0,1,.9497.9497v11.17007a.9496.9496,0,0,1-.9496.9496H855.01977a.9497.9497,0,0,1-.9497-.9497v-11.17A.9497.9497,0,0,1,855.01977,763.56131Z" transform="translate(1721.20966 1540.19199) rotate(180)"/><rect class="cls-4" x="1001.15192" y="327.63623" width="13.06937" height="13.06937" rx="0.9497" transform="translate(2015.37322 668.34184) rotate(180)"/><path class="cls-4" d="M738.75972,722.33358H783.3408a3.79021,3.79021,0,0,1,3.79021,3.79021v44.581a3.7903,3.7903,0,0,1-3.7903,3.7903h-44.5809a3.7903,3.7903,0,0,1-3.7903-3.7903v-44.581A3.7902,3.7902,0,0,1,738.75972,722.33358Z" transform="translate(1522.10054 1496.82864) rotate(180)"/><path class="cls-4" d="M755.09589,546.3611H735.3247a4.14256,4.14256,0,0,1-4.13752-4.13738V522.454a4.1426,4.1426,0,0,1,4.13752-4.13753h19.77119a4.14259,4.14259,0,0,1,4.13751,4.13753v19.76977A4.14256,4.14256,0,0,1,755.09589,546.3611ZM735.3247,520.828a1.62787,1.62787,0,0,0-1.6259,1.62591v19.76977a1.62783,1.62783,0,0,0,1.6259,1.62575h19.77119a1.62784,1.62784,0,0,0,1.62589-1.62575V522.454a1.62788,1.62788,0,0,0-1.62589-1.62591Z"/><rect class="cls-4" x="719.67693" y="409.36594" width="25.53336" height="25.53336" rx="1.8554" transform="translate(1464.88722 844.26525) rotate(180)"/><path class="cls-4" d="M1043.45634,64.95972h21.82256a1.8554,1.8554,0,0,1,1.8554,1.8554V88.63778a1.8553,1.8553,0,0,1-1.8553,1.8553h-21.82276a1.8553,1.8553,0,0,1-1.8553-1.8553V66.81512A1.8554,1.8554,0,0,1,1043.45634,64.95972Z" transform="translate(2108.73524 155.4528) rotate(180)"/><rect class="cls-4" x="745.20159" y="480.18598" width="52.16148" height="52.16148" rx="3.7903" transform="translate(1542.56466 1012.53343) rotate(180)"/></g><rect class="cls-4" x="44.07893" y="178.98347" width="80.56165" height="80.56165" rx="5.8539" transform="translate(-1.93442 0.75408) rotate(-0.50635)"/><path class="cls-5" d="M209.35118,593.18281H278.205a5.8539,5.8539,0,0,1,5.8539,5.8539v68.85375a5.854,5.854,0,0,1-5.854,5.854H209.35128a5.854,5.854,0,0,1-5.854-5.854V599.03671a5.8539,5.8539,0,0,1,5.8539-5.8539Z" transform="translate(-5.58862 2.17909) rotate(-0.50635)"/><path class="cls-4" d="M161.3029,373.48581h93.49062a7.9486,7.9486,0,0,1,7.9486,7.9486v93.49072a7.9485,7.9485,0,0,1-7.9485,7.9485H161.3028a7.9485,7.9485,0,0,1-7.9485-7.9485V381.43441a7.9486,7.9486,0,0,1,7.9486-7.9486Z" transform="translate(-3.77585 1.85532) rotate(-0.50635)"/><path class="cls-4" d="M20.66414,339.28h93.49062a7.9486,7.9486,0,0,1,7.9486,7.9486V440.7193a7.9485,7.9485,0,0,1-7.9485,7.9485H20.664a7.9485,7.9485,0,0,1-7.9485-7.9485V347.22858a7.9486,7.9486,0,0,1,7.9486-7.9486Z" transform="translate(-3.47905 0.61111) rotate(-0.50635)"/><path class="cls-4" d="M52.77565,726.8157h93.49057a7.9485,7.9485,0,0,1,7.9485,7.9485V828.255a7.9485,7.9485,0,0,1-7.9485,7.9485H52.77555a7.9485,7.9485,0,0,1-7.9485-7.9485V734.7643a7.9486,7.9486,0,0,1,7.9486-7.9486Z" transform="translate(-6.90259 0.91002) rotate(-0.50635)"/><rect class="cls-4" x="529.18256" y="160.1558" width="109.38782" height="109.38782" rx="7.9486" transform="matrix(0.99996, -0.00884, 0.00884, 0.99996, -1.8759, 5.16831)"/><path class="cls-5" d="M234.29388,38.7396,352.27223,37.697a18.4714,18.4714,0,0,1,18.61418,18.2879l1.04266,117.97851a18.47143,18.47143,0,0,1-18.288,18.61418L235.66266,193.6202a18.47143,18.47143,0,0,1-18.61418-18.288L216.00582,57.35363A18.47142,18.47142,0,0,1,234.29388,38.7396ZM353.61882,190.066a15.95872,15.95872,0,0,0,15.79873-16.08047L368.37489,56.007a15.95869,15.95869,0,0,0-16.08046-15.79857L234.31607,41.25113a15.95871,15.95871,0,0,0-15.79875,16.08031L219.56,175.30995a15.95874,15.95874,0,0,0,16.08049,15.79873Z"/><path class="cls-4" d="M743.1,1.12822,861.07852.08556a18.47247,18.47247,0,0,1,18.6148,18.288L880.736,136.352a18.47247,18.47247,0,0,1-18.28867,18.61419L744.4688,156.00881a18.47247,18.47247,0,0,1-18.61481-18.288L724.81133,19.74241A18.47248,18.47248,0,0,1,743.1,1.12822Zm119.3251,151.32641a15.95805,15.95805,0,0,0,15.798-16.08046L877.1804,18.39582A15.95806,15.95806,0,0,0,861.10071,2.59708L743.12221,3.63974a15.958,15.958,0,0,0-15.798,16.08046l1.04265,117.97836a15.95805,15.95805,0,0,0,16.07969,15.79873Z"/><path class="cls-4" d="M282.40593,237.3105l75.27531-.66526a12.24139,12.24139,0,0,1,12.33507,12.12032l.66526,75.27532a12.24008,12.24008,0,0,1-12.119,12.33489l-75.2753.66526a12.23992,12.23992,0,0,1-12.33488-12.11877l-.66526-75.27533A12.24125,12.24125,0,0,1,282.40593,237.3105Zm76.1345,96.55374a9.72733,9.72733,0,0,0,9.62961-9.80116l-.66526-75.27533a9.7278,9.7278,0,0,0-9.80135-9.63114l-75.2753.66526a9.72767,9.72767,0,0,0-9.62943,9.80287l.66526,75.27532a9.7272,9.7272,0,0,0,9.80116,9.62944Z"/><path class="cls-4" d="M133.67173,461.16959l75.27533-.66526a12.24133,12.24133,0,0,1,12.335,12.1197l.66526,75.27533A12.24119,12.24119,0,0,1,209.82845,560.235l-75.27533.66526a12.24109,12.24109,0,0,1-12.33489-12.11954L121.553,473.5054A12.24123,12.24123,0,0,1,133.67173,461.16959Zm76.13451,96.5525a9.7267,9.7267,0,0,0,9.6296-9.80054l-.66526-75.27533a9.7267,9.7267,0,0,0-9.80131-9.62881l-75.27533.66526a9.72665,9.72665,0,0,0-9.62944,9.80054l.66526,75.27533a9.72664,9.72664,0,0,0,9.80115,9.62881Z"/><path class="cls-4" d="M186.16427,797.71787l75.27533-.66527a12.24109,12.24109,0,0,1,12.33488,12.11955l.66526,75.27533A12.24122,12.24122,0,0,1,262.321,896.78329l-75.27533.66526a12.24138,12.24138,0,0,1-12.33507-12.1197l-.66526-75.27533A12.24123,12.24123,0,0,1,186.16427,797.71787Zm76.13451,96.55234a9.72659,9.72659,0,0,0,9.62944-9.80054l-.66526-75.27533a9.72655,9.72655,0,0,0-9.80115-9.62866l-75.27533.66526a9.72657,9.72657,0,0,0-9.6296,9.80039l.66526,75.27533a9.7266,9.7266,0,0,0,9.80131,9.62881Z"/><path class="cls-5" d="M312.47433,685.47158,625.142,682.70832a46.882,46.882,0,0,1,47.2415,46.41288l2.76326,312.6678a46.882,46.882,0,0,1-46.41382,47.24057l-312.66763,2.76326A46.882,46.882,0,0,1,268.82376,1045.38l-2.76326-312.6678A46.882,46.882,0,0,1,312.47433,685.47158ZM628.7107,1086.51665a44.36622,44.36622,0,0,0,43.923-44.70544l-2.76327-312.6678a44.36691,44.36691,0,0,0-44.70623-43.92357L312.49653,687.9831A44.36642,44.36642,0,0,0,268.57359,732.69l2.76326,312.6678a44.36571,44.36571,0,0,0,44.70622,43.92216Z"/><path class="cls-4" d="M102.84943,41.961l75.2753-.66526a12.23991,12.23991,0,0,1,12.33488,12.11876l.66526,75.27533a12.2399,12.2399,0,0,1-12.11877,12.33488l-75.27529.66526a12.24006,12.24006,0,0,1-12.335-12.11876l-.66526-75.27533A12.24006,12.24006,0,0,1,102.84943,41.961Zm76.13448,96.55235a9.72735,9.72735,0,0,0,9.62947-9.80132l-.66527-75.27533a9.72734,9.72734,0,0,0-9.80119-9.62959l-75.27529.66526a9.72747,9.72747,0,0,0-9.6296,9.80131l.66526,75.27533a9.72748,9.72748,0,0,0,9.80132,9.6296Z"/><path class="cls-4" d="M501.48581,53.43221l19.769-.17471a4.14269,4.14269,0,0,1,4.17393,4.1008l.17471,19.769a4.14259,4.14259,0,0,1-4.1008,4.17393l-19.769.17471a4.14255,4.14255,0,0,1-4.17377-4.1008l-.17472-19.769A4.14267,4.14267,0,0,1,501.48581,53.43221Zm19.99465,25.3575a1.62788,1.62788,0,0,0,1.61147-1.64021l-.17471-19.769A1.628,1.628,0,0,0,521.277,55.769l-19.769.17471a1.628,1.628,0,0,0-1.61134,1.64021l.17471,19.769a1.62785,1.62785,0,0,0,1.64008,1.61148Z"/><path class="cls-4" d="M540.75231,70.42855h21.82252a1.85529,1.85529,0,0,1,1.85529,1.85529V94.10651a1.8554,1.8554,0,0,1-1.8554,1.8554H540.75231a1.8554,1.8554,0,0,1-1.8554-1.8554V72.284a1.8554,1.8554,0,0,1,1.8554-1.8554Z" transform="translate(-0.71368 4.87849) rotate(-0.50635)"/><path class="cls-5" d="M237.91621,338.39148h21.82251a1.8553,1.8553,0,0,1,1.8553,1.8553v21.82276a1.8553,1.8553,0,0,1-1.8553,1.8553H237.91611a1.8553,1.8553,0,0,1-1.8553-1.8553V340.24688A1.8554,1.8554,0,0,1,237.91621,338.39148Z" transform="matrix(0.99996, -0.00884, 0.00884, 0.99996, -3.09359, 2.21269)"/><rect class="cls-5" x="333.05623" y="424.12597" width="25.53336" height="25.53336" rx="1.8554" transform="translate(-3.84747 3.07322) rotate(-0.50635)"/><path class="cls-4" d="M275.72728,154.271h21.82256a1.8554,1.8554,0,0,1,1.8554,1.8554v21.82266a1.8553,1.8553,0,0,1-1.8553,1.8553H275.72718a1.8553,1.8553,0,0,1-1.8553-1.8553V156.12641A1.8554,1.8554,0,0,1,275.72728,154.271Z" transform="translate(-1.46498 2.53965) rotate(-0.50635)"/><path class="cls-4" d="M362.873,416.89514h11.17a.9497.9497,0,0,1,.9497.9497v11.17007a.9496.9496,0,0,1-.9496.9496H362.87294a.9496.9496,0,0,1-.9496-.9496V417.84484A.9497.9497,0,0,1,362.873,416.89514Z" transform="translate(-3.72761 3.27273) rotate(-0.50635)"/><path class="cls-4" d="M311.13889,147.72481H322.309a.9496.9496,0,0,1,.9496.9496v11.17023a.9497.9497,0,0,1-.9497.9497h-11.17a.9497.9497,0,0,1-.9497-.9497V148.67451a.9497.9497,0,0,1,.9497-.9497Z" transform="translate(-1.35088 2.80502) rotate(-0.50635)"/><path class="cls-4" d="M380.32618,66.333h11.17013a.9497.9497,0,0,1,.9497.9497V78.45275a.9496.9496,0,0,1-.9496.9496H380.32608a.9496.9496,0,0,1-.9496-.9496V67.28268A.9497.9497,0,0,1,380.32618,66.333Z" transform="translate(-0.62889 3.41328) rotate(-0.50635)"/><rect class="cls-4" x="236.15295" y="503.54085" width="13.06937" height="13.06937" rx="0.9497" transform="translate(-4.49824 2.16463) rotate(-0.50635)"/><path class="cls-4" d="M463.363,67.588h44.58109a3.79021,3.79021,0,0,1,3.79021,3.79021v44.58105a3.79021,3.79021,0,0,1-3.79021,3.79021h-44.581a3.7903,3.7903,0,0,1-3.7903-3.7903v-44.581a3.7902,3.7902,0,0,1,3.7902-3.7902Z" transform="translate(-0.80882 4.29555) rotate(-0.50635)"/><path class="cls-4" d="M493.39329,295.66141l19.77041-.17472a4.14255,4.14255,0,0,1,4.17393,4.10064l.17472,19.769a4.14259,4.14259,0,0,1-4.1008,4.17393l-19.77042.17473a4.14259,4.14259,0,0,1-4.17391-4.1008l-.17471-19.769A4.14255,4.14255,0,0,1,493.39329,295.66141Zm19.99606,25.35733a1.62786,1.62786,0,0,0,1.61147-1.64021l-.17471-19.769a1.62784,1.62784,0,0,0-1.64021-1.61132l-19.77042.17472A1.62784,1.62784,0,0,0,491.804,299.813l.17471,19.769a1.62786,1.62786,0,0,0,1.64019,1.61147Z"/><rect class="cls-4" x="504.37586" y="406.91816" width="25.53336" height="25.53336" rx="1.8554" transform="translate(-3.68871 4.58656) rotate(-0.50635)"/><path class="cls-4" d="M187.36346,754.1559H209.186a1.8554,1.8554,0,0,1,1.8554,1.8554V777.834a1.8553,1.8553,0,0,1-1.8553,1.8553H187.36336a1.8553,1.8553,0,0,1-1.8553-1.8553V756.0113a1.8554,1.8554,0,0,1,1.8554-1.8554Z" transform="translate(-6.76982 1.78217) rotate(-0.50635)"/><rect class="cls-4" x="451.48107" y="309.81653" width="52.16148" height="52.16148" rx="3.7903" transform="translate(-2.94979 4.2335) rotate(-0.50635)"/><path class="cls-4" d="M764.23117,265.65234h48.49894a7.9485,7.9485,0,0,1,7.9485,7.9485V322.1a7.9485,7.9485,0,0,1-7.9485,7.9485h-48.499a7.9485,7.9485,0,0,1-7.9485-7.9485v-48.499A7.9486,7.9486,0,0,1,764.23117,265.65234Z" transform="translate(-2.60142 6.97971) rotate(-0.50635)"/></svg>