<svg xmlns="http://www.w3.org/2000/svg" viewBox="0 0 500 372.6088"><defs><style>.cls-1,.cls-6{fill:#ebebeb;}.cls-2{fill:#e6e6e6;}.cls-3{fill:#f0f0f0;}.cls-4{fill:#fafafa;}.cls-10,.cls-5{fill:#fff;}.cls-6{opacity:0.6;}.cls-7{fill:#f5f5f5;}.cls-8{fill:#e0e0e0;}.cls-9{fill:#407bff;}.cls-10{opacity:0.5;}</style></defs><title>nodata</title><g id="Background_Complete" data-name="Background Complete"><rect class="cls-1" y="327.4458" width="500" height="0.25"/><rect class="cls-1" x="416.7791" y="343.5418" width="33.1221" height="0.25"/><rect class="cls-1" x="322.5269" y="346.2554" width="8.6933" height="0.25"/><rect class="cls-1" x="396.5858" y="334.2557" width="19.1924" height="0.25"/><rect class="cls-1" x="52.459" y="335.9359" width="43.1934" height="0.25"/><rect class="cls-1" x="104.5557" y="335.9359" width="6.333" height="0.25"/><rect class="cls-1" x="131.4713" y="340.1581" width="93.6758" height="0.25"/><path class="cls-1" d="M237.0137,337.7998H43.915a5.7144,5.7144,0,0,1-5.708-5.708V60.6602a5.71438,5.71438,0,0,1,5.708-5.7076H237.0137a5.71411,5.71411,0,0,1,5.707,5.7076V332.0918A5.71413,5.71413,0,0,1,237.0137,337.7998ZM43.915,55.2026a5.46391,5.46391,0,0,0-5.458,5.4576V332.0918a5.46393,5.46393,0,0,0,5.458,5.458H237.0137a5.46365,5.46365,0,0,0,5.457-5.458V60.6602a5.46363,5.46363,0,0,0-5.457-5.4576Z" transform="translate(0 -54.9526)"/><path class="cls-1" d="M453.3105,337.7998H260.2119a5.71413,5.71413,0,0,1-5.707-5.708V60.6602a5.71411,5.71411,0,0,1,5.707-5.7076H453.3105a5.7144,5.7144,0,0,1,5.7081,5.7076V332.0918A5.71442,5.71442,0,0,1,453.3105,337.7998ZM260.2119,55.2026a5.46363,5.46363,0,0,0-5.457,5.4576V332.0918a5.46365,5.46365,0,0,0,5.457,5.458H453.3105a5.464,5.464,0,0,0,5.4581-5.458V60.6602a5.46393,5.46393,0,0,0-5.4581-5.4576Z" transform="translate(0 -54.9526)"/><rect class="cls-2" x="289.6907" y="83.8317" width="137.7809" height="90.2268" transform="translate(717.1623 202.9376) rotate(180)"/><rect class="cls-3" x="285.4867" y="83.8317" width="140.0205" height="90.2268" transform="translate(710.9939 202.9376) rotate(180)"/><rect class="cls-2" x="289.6907" y="174.0585" width="137.7809" height="17.7076" transform="translate(717.1623 310.872) rotate(180)"/><rect class="cls-3" x="278.4831" y="174.0585" width="140.0205" height="17.7076" transform="translate(696.9867 310.872) rotate(180)"/><rect class="cls-4" x="316.2691" y="64.8204" width="78.4558" height="128.2494" transform="translate(484.4421 -281.5045) rotate(90)"/><polygon class="cls-5" points="390.702 113.221 374.322 34.765 348.761 34.765 365.141 113.221 390.702 113.221"/><path class="cls-3" d="M416.8968,162.3153a.42046.42046,0,0,0,.4205-.4204V93.5465a.4205.4205,0,0,0-.841,0v68.3484A.42046.42046,0,0,0,416.8968,162.3153Z" transform="translate(0 -54.9526)"/><polygon class="cls-5" points="359.65 113.221 343.27 34.765 333.304 34.765 349.685 113.221 359.65 113.221"/><rect class="cls-2" x="252.5181" y="128.5714" width="78.4558" height="0.7474" transform="translate(420.6911 -217.7535) rotate(90)"/><polygon class="cls-6" points="284.095 43.639 421.876 43.639 422.417 37.052 284.636 37.052 284.095 43.639"/><polygon class="cls-6" points="284.095 54.441 421.876 54.441 422.417 47.855 284.636 47.855 284.095 54.441"/><polygon class="cls-6" points="284.095 65.243 421.876 65.243 422.417 58.657 284.636 58.657 284.095 65.243"/><polygon class="cls-6" points="284.095 76.045 421.876 76.045 422.417 69.458 284.636 69.458 284.095 76.045"/><polygon class="cls-6" points="284.095 86.847 421.876 86.847 422.417 80.261 284.636 80.261 284.095 86.847"/><polygon class="cls-6" points="284.095 97.649 421.876 97.649 422.417 91.063 284.636 91.063 284.095 97.649"/><rect class="cls-2" x="378.799" y="261.8287" width="28.8889" height="5.6957"/><rect class="cls-2" x="324.3075" y="251.3333" width="5.3334" height="131.0651" transform="translate(653.9484 578.7791) rotate(180)"/><rect class="cls-7" x="305.8356" y="316.7813" width="72.9634" height="5.6957" transform="translate(684.6346 584.3057) rotate(180)"/><rect class="cls-2" x="378.799" y="292.9953" width="28.8889" height="5.6957"/><rect class="cls-7" x="305.8356" y="347.9479" width="72.9634" height="5.6957" transform="translate(684.6346 646.6389) rotate(180)"/><rect class="cls-2" x="378.799" y="199.4953" width="28.8889" height="5.6957"/><rect class="cls-7" x="305.8356" y="254.4479" width="72.9634" height="5.6957" transform="translate(684.6346 459.6389) rotate(180)"/><rect class="cls-2" x="378.799" y="230.662" width="28.8889" height="5.6957"/><rect class="cls-7" x="305.8356" y="285.6146" width="72.9634" height="5.6957" transform="translate(684.6346 521.9723) rotate(180)"/><rect class="cls-2" x="397.2709" y="251.3333" width="5.3333" height="131.0651" transform="translate(799.8751 578.7791) rotate(180)"/><rect class="cls-7" x="373.4656" y="251.3333" width="5.3334" height="131.0651" transform="translate(752.2646 578.7791) rotate(180)"/><rect class="cls-7" x="305.8356" y="251.3333" width="5.3333" height="131.0651" transform="translate(617.0045 578.7791) rotate(180)"/><rect class="cls-2" x="65.3738" y="276.5069" width="54.5778" height="105.8923" transform="translate(185.3254 603.9535) rotate(180)"/><polygon class="cls-4" points="79.948 327.447 65.374 327.447 65.374 312.829 95.228 312.829 79.948 327.447"/><rect class="cls-2" x="214.1835" y="276.5069" width="54.5778" height="105.8923" transform="translate(482.9448 603.9535) rotate(180)"/><rect class="cls-4" x="65.3738" y="276.5069" width="161.5288" height="100.8608" transform="translate(292.2764 598.922) rotate(180)"/><polygon class="cls-4" points="212.329 327.447 226.903 327.447 226.903 312.829 197.048 312.829 212.329 327.447"/><rect class="cls-3" x="76.6796" y="314.0908" width="138.9172" height="25.2409" transform="translate(292.2764 598.4699) rotate(180)"/><rect class="cls-3" x="76.6796" y="344.7265" width="138.9172" height="25.2408" transform="translate(292.2764 659.7412) rotate(180)"/><path class="cls-4" d="M103.0841,311.9048h86.1082a4.5765,4.5765,0,0,1,4.5765,4.5765v.3083a0,0,0,0,1,0,0H98.5076a0,0,0,0,1,0,0v-.3083A4.5765,4.5765,0,0,1,103.0841,311.9048Z" transform="translate(292.2764 573.7418) rotate(180)"/><rect class="cls-3" x="76.6796" y="283.4551" width="138.9172" height="25.2409" transform="translate(292.2764 537.1985) rotate(180)"/><path class="cls-4" d="M103.0841,281.2692h86.1082a4.5765,4.5765,0,0,1,4.5765,4.5765v.3082a0,0,0,0,1,0,0H98.5076a0,0,0,0,1,0,0v-.3082A4.5765,4.5765,0,0,1,103.0841,281.2692Z" transform="translate(292.2764 512.4705) rotate(180)"/><path class="cls-4" d="M103.084,342.5405h86.1084a4.5764,4.5764,0,0,1,4.5764,4.5764v.3083a0,0,0,0,1,0,0H98.5076a0,0,0,0,1,0,0v-.3083A4.5764,4.5764,0,0,1,103.084,342.5405Z" transform="translate(292.2764 635.0131) rotate(180)"/><rect class="cls-2" x="74.0681" y="83.8317" width="137.781" height="90.2268" transform="translate(285.9172 202.9376) rotate(180)"/><rect class="cls-3" x="69.8642" y="83.8317" width="140.0205" height="90.2268" transform="translate(279.7489 202.9376) rotate(180)"/><rect class="cls-2" x="74.0681" y="174.0585" width="137.781" height="17.7076" transform="translate(285.9172 310.872) rotate(180)"/><rect class="cls-3" x="62.8605" y="174.0585" width="140.0205" height="17.7076" transform="translate(265.7415 310.872) rotate(180)"/><rect class="cls-4" x="100.64655" y="64.82035" width="78.4558" height="128.2495" transform="translate(268.81955 -65.88195) rotate(90)"/><polygon class="cls-5" points="175.08 113.221 158.699 34.765 133.138 34.765 149.519 113.221 175.08 113.221"/><path class="cls-3" d="M201.2743,162.3153a.42038.42038,0,0,0,.4204-.4204V93.5465a.42045.42045,0,0,0-.8409,0v68.3484A.42046.42046,0,0,0,201.2743,162.3153Z" transform="translate(0 -54.9526)"/><polygon class="cls-5" points="144.028 113.221 127.647 34.765 117.682 34.765 134.063 113.221 144.028 113.221"/><rect class="cls-2" x="36.8955" y="128.5714" width="78.4558" height="0.7474" transform="translate(205.0685 -2.1309) rotate(90)"/><polygon class="cls-6" points="68.472 43.639 206.253 43.639 206.795 37.052 69.014 37.052 68.472 43.639"/><polygon class="cls-6" points="68.472 47.354 206.253 47.354 206.795 40.768 69.014 40.768 68.472 47.354"/><polygon class="cls-6" points="68.472 51.07 206.253 51.07 206.795 44.483 69.014 44.483 68.472 51.07"/><polygon class="cls-6" points="68.472 54.785 206.253 54.785 206.795 48.199 69.014 48.199 68.472 54.785"/><polygon class="cls-6" points="68.472 58.5 206.253 58.5 206.795 51.914 69.014 51.914 68.472 58.5"/><polygon class="cls-6" points="68.472 62.216 206.253 62.216 206.795 55.63 69.014 55.63 68.472 62.216"/><rect class="cls-7" x="96.0132" y="220.1789" width="4.7634" height="53.0922" transform="translate(196.7898 438.4974) rotate(180)"/><rect class="cls-4" x="96.6267" y="220.1421" width="1.3455" height="53.0922" transform="translate(194.5989 438.4238) rotate(180)"/><rect class="cls-4" x="98.5357" y="220.1422" width="0.5272" height="53.0922" transform="translate(197.5986 438.424) rotate(180)"/><path class="cls-3" d="M80.7629,272.0642h35.264a0,0,0,0,1,0,0v.0001a4.4426,4.4426,0,0,1-4.4426,4.4426H85.2055a4.4426,4.4426,0,0,1-4.4426-4.4426v-.0001A0,0,0,0,1,80.7629,272.0642Z" transform="translate(196.7898 493.6185) rotate(180)"/><path class="cls-3" d="M89.835,253.1384h0a1.37413,1.37413,0,0,0,1.3701-1.3701V216.9585a1.37413,1.37413,0,0,0-1.3701-1.3701h0a1.3742,1.3742,0,0,0-1.3701,1.3701v34.8098A1.3742,1.3742,0,0,0,89.835,253.1384Z" transform="translate(0 -54.9526)"/><polygon class="cls-8" points="77.074 177.846 119.716 177.846 114.811 148.047 81.979 148.047 77.074 177.846"/></g><g id="Shadow"><ellipse id="_Path_" data-name="&lt;Path&gt;" class="cls-7" cx="250.00028" cy="361.2854" rx="193.88918" ry="11.3234"/></g><g id="Window_No_Data" data-name="Window No Data"><rect class="cls-9" x="134.86182" y="242.174" width="0.98048" height="18.12629" transform="translate(-17.69815 -44.58039) rotate(-4.11944)"/><rect class="cls-9" x="136.42991" y="269.60379" width="0.98049" height="6.81887" transform="translate(-19.26397 -44.40817) rotate(-4.12065)"/><path class="cls-9" d="M364.19605,352.74844H154.24432a9.45819,9.45819,0,0,1-9.25568-8.63394L134.6727,200.85473a7.94848,7.94848,0,0,1,8.01229-8.63394H352.63663a9.45819,9.45819,0,0,1,9.25568,8.63394L372.20825,344.1145A7.94841,7.94841,0,0,1,364.19605,352.74844Z" transform="translate(0 -54.9526)"/><path class="cls-9" d="M365.001,352.74844H155.0493a9.45819,9.45819,0,0,1-9.25568-8.63394L135.47768,200.85473a7.94848,7.94848,0,0,1,8.01229-8.63394H353.4416a9.45819,9.45819,0,0,1,9.25568,8.63394L373.01322,344.1145A7.9484,7.9484,0,0,1,365.001,352.74844Z" transform="translate(0 -54.9526)"/><path class="cls-10" d="M365.001,352.74844H155.0493a9.45819,9.45819,0,0,1-9.25568-8.63394L135.47768,200.85473a7.94848,7.94848,0,0,1,8.01229-8.63394H353.4416a9.45819,9.45819,0,0,1,9.25568,8.63394L373.01322,344.1145A7.9484,7.9484,0,0,1,365.001,352.74844Z" transform="translate(0 -54.9526)"/><path class="cls-9" d="M353.75247,196.53771H143.80064q-.35616,0-.70341.02873c-5.36688.44185-4.27055,8.60521,1.14614,8.60521H354.55313c5.41669,0,5.33728-8.16336-.09323-8.60521Q354.10874,196.53791,353.75247,196.53771Z" transform="translate(0 -54.9526)"/><path class="cls-4" d="M149.2687,200.85463a1.81717,1.81717,0,0,1-1.8368,1.97945,2.16171,2.16171,0,0,1-2.1219-1.97945,1.81714,1.81714,0,0,1,1.83681-1.97935A2.16168,2.16168,0,0,1,149.2687,200.85463Z" transform="translate(0 -54.9526)"/><path class="cls-4" d="M156.00172,200.85463a1.81717,1.81717,0,0,1-1.83681,1.97945,2.16169,2.16169,0,0,1-2.12189-1.97945,1.81714,1.81714,0,0,1,1.8368-1.97935A2.1617,2.1617,0,0,1,156.00172,200.85463Z" transform="translate(0 -54.9526)"/><path class="cls-4" d="M162.73473,200.85463a1.81722,1.81722,0,0,1-1.8368,1.97945,2.16179,2.16179,0,0,1-2.122-1.97945,1.81721,1.81721,0,0,1,1.8369-1.97935A2.16168,2.16168,0,0,1,162.73473,200.85463Z" transform="translate(0 -54.9526)"/><path class="cls-5" d="M359.43474,338.45018H158.55614a3.41844,3.41844,0,0,1-3.35548-3.1301l-8.48354-117.81256a2.87366,2.87366,0,0,1,2.90471-3.13009H350.50042a3.41836,3.41836,0,0,1,3.35548,3.13009l8.48355,117.81256A2.87362,2.87362,0,0,1,359.43474,338.45018Z" transform="translate(0 -54.9526)"/><polygon class="cls-5" points="274.806 238.618 271.536 193.209 261.627 187.245 234.369 187.245 238.069 238.618 274.806 238.618"/><path class="cls-9" d="M274.80571,294.04593H238.06847a.47522.47522,0,0,1-.4739-.44087l-3.6993-51.37343a.4753.4753,0,0,1,.47391-.5093h27.25814a.47547.47547,0,0,1,.24509.06823l9.9084,5.96373a.47572.47572,0,0,1,.22882.37293l3.27,45.40941a.4753.4753,0,0,1-.47391.5093Zm-36.2951-.95017h35.78453l-3.21558-44.65434-9.5841-5.76893H234.87975Z" transform="translate(0 -54.9526)"/><polygon class="cls-1" points="271.536 193.209 261.627 187.245 265.265 195.146 271.536 193.209"/><path class="cls-9" d="M265.26514,250.57361a.47549.47549,0,0,1-.43155-.27646l-3.63783-7.90112a.47516.47516,0,0,1,.67665-.60576l9.9084,5.96431a.47495.47495,0,0,1-.1048.86066l-6.27058,1.937A.47382.47382,0,0,1,265.26514,250.57361Zm-2.56129-7.17369,2.81883,6.12176,4.85847-1.50073Z" transform="translate(0 -54.9526)"/><path class="cls-9" d="M249.747,265.34372a1.90535,1.90535,0,0,1-1.926,2.07542,2.26651,2.26651,0,0,1-2.22483-2.07542,1.90527,1.90527,0,0,1,1.92592-2.07542A2.26661,2.26661,0,0,1,249.747,265.34372Z" transform="translate(0 -54.9526)"/><path class="cls-9" d="M263.213,265.34372a1.90527,1.90527,0,0,1-1.92592,2.07542,2.2666,2.2666,0,0,1-2.22492-2.07542,1.90534,1.90534,0,0,1,1.926-2.07542A2.26644,2.26644,0,0,1,263.213,265.34372Z" transform="translate(0 -54.9526)"/><path class="cls-9" d="M267.01165,278.80368a.47538.47538,0,0,1-.47341-.44087c-.24029-3.337-5.47385-6.05167-11.66619-6.05167-4.10262,0-7.78642,1.21977-9.61362,3.18362a3.66553,3.66553,0,0,0-1.11751,2.79962.47514.47514,0,1,1-.94781.06843,4.63746,4.63746,0,0,1,1.36986-3.51528c2.00111-2.15052,5.95128-3.48655,10.30908-3.48655,6.79311,0,12.33391,3.04568,12.614,6.9334a.47538.47538,0,0,1-.43969.50812Z" transform="translate(0 -54.9526)"/><path class="cls-9" d="M242.09834,261.13905a.47513.47513,0,0,1-.34822-.7983l2.08179-2.24307a.47505.47505,0,1,1,.69655.64616l-2.0818,2.24316A.47346.47346,0,0,1,242.09834,261.13905Z" transform="translate(0 -54.9526)"/><path class="cls-9" d="M266.0358,261.13905a.474.474,0,0,1-.324-.12784l-2.405-2.24316a.475.475,0,0,1,.64822-.69458l2.40492,2.24316a.47512.47512,0,0,1-.32411.82242Z" transform="translate(0 -54.9526)"/><path class="cls-9" d="M231.40251,303.72209h2.21562l3.19734,4.24849-.306-4.24849h2.2366l.553,7.67887h-2.23669l-3.17921-4.21614.30361,4.21614h-2.2314Z" transform="translate(0 -54.9526)"/><path class="cls-9" d="M240.30105,307.56677a3.35542,3.35542,0,0,1,3.6789-3.97566,4.28251,4.28251,0,0,1,3.02833,1.02928,4.16744,4.16744,0,0,1,1.24476,2.88353,4.55949,4.55949,0,0,1-.2941,2.20778,2.90928,2.90928,0,0,1-1.21291,1.34093,4.12615,4.12615,0,0,1-2.1.4793,5.11364,5.11364,0,0,1-2.18-.41381,3.59451,3.59451,0,0,1-1.47447-1.30947A4.59117,4.59117,0,0,1,240.30105,307.56677Zm2.37355.01049a2.73185,2.73185,0,0,0,.55243,1.67092,1.57437,1.57437,0,0,0,1.21251.508,1.35871,1.35871,0,0,0,1.148-.49753,2.72018,2.72018,0,0,0,.29038-1.78622,2.52313,2.52313,0,0,0-.55145-1.58445,1.60728,1.60728,0,0,0-1.22241-.50028,1.33662,1.33662,0,0,0-1.11575.50812A2.464,2.464,0,0,0,242.6746,307.57726Z" transform="translate(0 -54.9526)"/><path class="cls-9" d="M252.8678,303.72209h3.52508a4.37773,4.37773,0,0,1,1.70445.28283,3.03,3.03,0,0,1,1.11908.81193,3.67041,3.67041,0,0,1,.69626,1.231,5.9071,5.9071,0,0,1,.29567,1.4875,5.03488,5.03488,0,0,1-.14274,1.90925,2.86834,2.86834,0,0,1-.696,1.13673,2.31565,2.31565,0,0,1-1.02457.61017,5.33675,5.33675,0,0,1-1.39917.20951h-3.52518Zm2.498,1.739.30215,4.19565h.58145a2.36023,2.36023,0,0,0,1.04615-.165,1.00993,1.00993,0,0,0,.45086-.57615,3.53553,3.53553,0,0,0,.08216-1.3331,2.73982,2.73982,0,0,0-.51842-1.67092,1.796,1.796,0,0,0-1.3524-.45048Z" transform="translate(0 -54.9526)"/><path class="cls-9" d="M265.90208,310.13335h-2.69383l-.283,1.26761h-2.42277l2.33316-7.67887h2.58825l3.43842,7.67887h-2.48472Zm-.61165-1.66044-1.04653-2.7604-.63988,2.7604Z" transform="translate(0 -54.9526)"/><path class="cls-9" d="M267.78555,303.72209h7.21271l.13656,1.89611h-2.42l.41646,5.78276h-2.37287l-.41636-5.78276h-2.41992Z" transform="translate(0 -54.9526)"/><path class="cls-9" d="M280.52661,310.13335h-2.69384l-.283,1.26761h-2.42286l2.33326-7.67887h2.58815l3.43852,7.67887H281.002Zm-.61175-1.66044-1.04643-2.7604-.64,2.7604Z" transform="translate(0 -54.9526)"/></g></svg>