<svg id="Capa_1" enable-background="new 0 0 512 512" height="512" viewBox="0 0 512 512" width="512" xmlns="http://www.w3.org/2000/svg"><g><g><path d="m416 310h-320c-52.383 0-95-42.617-95-95 0-23.825 8.863-46.609 24.955-64.156 13.656-14.891 31.507-24.94 51.057-28.909 13.658-36.927 48.918-61.935 88.988-61.935 3.798 0 7.615.239 11.43.714 5.914-15.229 15.74-28.858 28.508-39.301 16.884-13.809 38.215-21.413 60.062-21.413 22.226 0 43.179 7.556 60.1 21.484 15.567-7.54 32.61-11.484 49.9-11.484 63.411 0 115 51.589 115 115 0 9.284-1.147 18.546-3.418 27.638 15.167 17.294 23.418 39.11 23.418 62.362 0 52.383-42.617 95-95 95z" fill="#fff5f5"/></g><path d="m256 310h160c52.383 0 95-42.617 95-95 0-23.252-8.251-45.068-23.418-62.362 2.271-9.092 3.418-18.354 3.418-27.638 0-63.411-51.589-115-115-115-17.29 0-34.333 3.944-49.9 11.484-16.921-13.928-37.874-21.484-60.1-21.484-3.351 0-6.687.2-10 .553z" fill="#e2dff4"/><g><path d="m426.003 512c-3.904 0-7.74-1.523-10.61-4.394-22.961-22.96-53.49-35.606-85.962-35.606h-20.464c-4.614 0-8.972-2.124-11.815-5.758-2.843-3.635-3.855-8.376-2.744-12.854l24.436-98.492c1.875-7.56 9.227-12.426 16.919-11.201 29.056 4.63 55.679 19.489 74.967 41.839 19.52 22.619 30.27 51.551 30.27 81.466v30c0 6.067-3.655 11.536-9.26 13.858-1.855.769-3.804 1.142-5.737 1.142z" fill="#ff9100"/></g><g><path d="m85.997 512c-1.932 0-3.881-.373-5.737-1.142-5.605-2.322-9.26-7.791-9.26-13.858v-30c0-29.915 10.75-58.847 30.27-81.467 19.288-22.35 45.911-37.209 74.967-41.839 7.691-1.227 15.043 3.641 16.919 11.201l24.436 98.492c1.111 4.479.099 9.22-2.744 12.854s-7.201 5.758-11.815 5.758h-20.464c-32.472 0-63 12.646-85.962 35.606-2.87 2.872-6.707 4.395-10.61 4.395z" fill="#ffb454"/></g><g><path d="m192.192 190.468c-16.014 31.924-31.192 76.409-31.192 130.342 0 68.082 24.187 136.709 44.477 182.29 2.409 5.413 7.779 8.9 13.704 8.9h73.639c5.925 0 11.294-3.487 13.704-8.9 20.289-45.581 44.476-114.208 44.476-182.29 0-53.932-15.178-98.417-31.193-130.342z" fill="#0a789b"/><path d="m306.523 503.1c20.29-45.581 44.477-114.208 44.477-182.29 0-53.932-15.178-98.417-31.193-130.342h-63.807v321.532h36.819c5.925 0 11.295-3.487 13.704-8.9z" fill="#0a617d"/><path d="m256 217c24.939 0 47.507-10.146 63.807-26.532-3.665-7.305-7.373-13.955-10.954-19.907-20.909-34.76-41.921-53.9-42.806-54.698-5.708-5.15-14.387-5.148-20.096 0-.884.798-21.896 19.938-42.806 54.697-3.581 5.952-7.289 12.602-10.954 19.908 16.301 16.386 38.87 26.532 63.809 26.532z" fill="#ffb454"/><path d="m266.048 115.862c-2.854-2.575-6.451-3.862-10.048-3.862v105c24.939 0 47.507-10.146 63.807-26.532-3.665-7.305-7.373-13.955-10.954-19.907-20.909-34.76-41.921-53.901-42.805-54.699z" fill="#ff9100"/></g><path d="m271.403 331.899c-2.021-.714-4.082-1.457-6.143-2.226v-36.12c4.1 1.284 6.202 3.347 6.455 3.607 3.634 4.115 9.917 4.534 14.064.921 4.165-3.628 4.6-9.944.972-14.108-3.554-4.08-10.968-9.212-21.491-10.881v-6.092c0-5.522-4.477-10-10-10s-10 4.478-10 10v7.225c-.827.211-1.66.436-2.506.69-12.444 3.748-21.739 14.378-24.257 27.742-2.307 12.24 1.653 24.074 10.333 30.882 4.237 3.324 9.43 6.369 16.429 9.55v46.5c-5.338-.633-9.203-2.274-15.362-6.303-4.623-3.023-10.82-1.728-13.843 2.894s-1.728 10.819 2.894 13.843c10.283 6.727 17.476 8.983 26.311 9.665v7.312c0 5.522 4.477 10 10 10s10-4.478 10-10v-8.241c17.812-4.271 29.24-19.373 31.744-34.267 3.235-19.233-6.814-35.952-25.6-42.593zm-30.229-14.097c-2.741-2.149-3.927-6.641-3.022-11.441.717-3.805 2.946-8.263 7.109-10.83v25.054c-1.496-.906-2.875-1.832-4.087-2.783zm36.107 53.374c-1.065 6.334-5.148 13.013-12.021 16.441v-36.661c13.438 5.057 12.608 16.726 12.021 20.22z" fill="#fff16b"/><path d="m271.403 331.899c-2.021-.714-4.082-1.457-6.143-2.226v-36.12c4.1 1.284 6.202 3.347 6.455 3.607 3.634 4.115 9.917 4.534 14.064.921 4.165-3.628 4.6-9.944.972-14.108-3.554-4.08-10.968-9.212-21.491-10.881v-6.092c0-5.273-4.084-9.583-9.26-9.963v169.925c5.176-.38 9.26-4.69 9.26-9.963v-8.241c17.812-4.271 29.24-19.373 31.744-34.267 3.234-19.232-6.815-35.951-25.601-42.592zm5.878 39.277c-1.065 6.334-5.148 13.013-12.021 16.441v-36.661c13.438 5.057 12.608 16.726 12.021 20.22z" fill="#ffc178"/></g></svg>