<svg id="Layer_1" data-name="Layer 1" xmlns="http://www.w3.org/2000/svg" xmlns:xlink="http://www.w3.org/1999/xlink" viewBox="0 0 1500 1500"><defs><style>.cls-1{fill:url(#linear-gradient);}.cls-2{fill:url(#linear-gradient-2);}.cls-3{fill:url(#linear-gradient-3);}.cls-4{fill:url(#linear-gradient-4);}</style><linearGradient id="linear-gradient" y1="750" x2="1500" y2="750" gradientUnits="userSpaceOnUse"><stop offset="0" stop-color="#302eb6"/><stop offset="1" stop-color="#2e30b1"/></linearGradient><linearGradient id="linear-gradient-2" x1="987.87048" y1="926.141" x2="987.87048" y2="399" gradientUnits="userSpaceOnUse"><stop offset="0" stop-color="#4d4d4d"/><stop offset="0.99721" stop-color="#fff"/></linearGradient><linearGradient id="linear-gradient-3" x1="502.35655" y1="632.21731" x2="502.35655" y2="1100" gradientUnits="userSpaceOnUse"><stop offset="0" stop-color="#4d4d4d"/><stop offset="1" stop-color="#fff"/></linearGradient><linearGradient id="linear-gradient-4" x1="957.12552" y1="393.07158" x2="551.97851" y2="1094.80678" gradientUnits="userSpaceOnUse"><stop offset="0" stop-color="#fff"/><stop offset="0.19721" stop-color="#fdfdfd"/><stop offset="0.37151" stop-color="#fefefe"/><stop offset="1" stop-color="#ccc"/></linearGradient></defs><title>s</title><path id="bg4" class="cls-1" d="M1267.44075,1216.553l-576.75644,256.9347c-150.57919,67.08033-328.43913,2.4806-397.2613-144.28756L37.87826,784.23286c-95.83809-204.38154-3.544-445.79132,206.14453-539.20384L715.43994,35.0211c198.90586-88.609,433.84792-3.27672,524.75778,190.595l223.70344,477.06345C1555.237,897.45979,1467.27871,1127.52877,1267.44075,1216.553Z" transform="translate(0 0)"/><polygon class="cls-2" points="1147.924 399 895.491 399 827.817 914.608 1078.535 926.141 1147.924 399"/><polygon class="cls-3" points="635.627 874.871 608.572 1100 352 1100 415.453 632.217 652.713 632.217 635.627 874.871"/><path class="cls-4" d="M447.17983,399H700.99272L670.64553,626.825H972.738s122.76819-9.43654,162.77131-130.76346L1055.50311,1100H801.69023l31.72661-225.12885H512.01247S414.0738,885.65577,367.1736,988.10962Z" transform="translate(0 0)"/></svg>