<svg id="Layer_1" data-name="Layer 1" xmlns="http://www.w3.org/2000/svg" viewBox="0 0 589.26 131.6"><title>Logop1</title><path d="M121.38,99.39H58.87V131.6h55.44V152H58.87v34.05h62.51v21H25.84V78.41h95.54Z" transform="translate(-25.84 -76.75)" style="fill:#fff"/><path d="M292.17,78.41V207.06h-33L184.37,118.9v88.16h-33V78.41h33l74.78,88.34V78.41Z" transform="translate(-25.84 -76.75)" style="fill:#fff"/><path d="M381.57,208.35c-34.2,0-60.62-14-61.1-38.29h35.39c.94,10.31,9.67,17.12,25,17.12,15.57,0,24.77-6.44,24.77-15.64,0-27.79-84.92-11-84.68-57.61,0-23.19,24.06-37.18,58-37.18,33.73,0,56.85,13.44,59,36.63H401.62c-.7-8.47-9.43-15.1-23.59-15.28-13-.37-22.64,4.6-22.64,15.09,0,25.77,84.45,11.41,84.45,56.69C439.84,190.13,419.08,208.35,381.57,208.35Z" transform="translate(-25.84 -76.75)" style="fill:#fff"/><path d="M569.34,182.58H503.76l-10.85,24.48H458.23L517.45,78.41H555.9l59.21,128.65H580.19Zm-32.79-74.36L512.73,162h47.65Z" transform="translate(-25.84 -76.75)" style="fill:#fff"/></svg>