<svg xmlns="http://www.w3.org/2000/svg" xmlns:xlink="http://www.w3.org/1999/xlink" viewBox="0 0 3710 3710"><defs><style>.cls-1,.cls-13,.cls-9{fill:#fff;}.cls-2{fill:url(#linear-gradient);}.cls-3{fill:url(#linear-gradient-2);}.cls-11,.cls-4{fill:#91b3fa;}.cls-4{opacity:0.21;}.cls-5{fill:url(#linear-gradient-3);}.cls-6{fill:#325ffa;}.cls-7{fill:url(#linear-gradient-4);}.cls-8{fill:url(#linear-gradient-5);}.cls-10,.cls-9{opacity:0.51;}.cls-12{fill:url(#linear-gradient-6);}.cls-13{opacity:0.7;}.cls-14{fill:url(#linear-gradient-7);}.cls-15{fill:url(#linear-gradient-8);}.cls-16{fill:url(#linear-gradient-9);}.cls-17{fill:url(#linear-gradient-10);}.cls-18{fill:#7d97f4;}.cls-19{fill:url(#linear-gradient-11);}.cls-20{fill:url(#linear-gradient-12);}.cls-21{fill:#2e30b2;}.cls-22{fill:url(#linear-gradient-13);}.cls-23{fill:url(#linear-gradient-14);}.cls-24{fill:url(#linear-gradient-15);}.cls-25{fill:url(#linear-gradient-16);}.cls-26{fill:url(#linear-gradient-17);}.cls-27{fill:url(#linear-gradient-18);}.cls-28{fill:url(#linear-gradient-19);}.cls-29{fill:#1f26a0;}</style><linearGradient id="linear-gradient" x1="3445.854" y1="3280.41744" x2="1434.67227" y2="1520.63478" gradientUnits="userSpaceOnUse"><stop offset="0" stop-color="#dae3fe"/><stop offset="1" stop-color="#e9effd"/></linearGradient><linearGradient id="linear-gradient-2" x1="1569.6445" y1="654.72537" x2="-583.6176" y2="3995.99815" gradientTransform="matrix(-1, 0, 0, 1, 2257.3283, 0)" gradientUnits="userSpaceOnUse"><stop offset="0" stop-color="#4f52ff"/><stop offset="1" stop-color="#4042e2"/></linearGradient><linearGradient id="linear-gradient-3" x1="-950.74151" y1="3008.2028" x2="-561.24953" y2="1839.72356" gradientTransform="matrix(-1, 0, 0, 1, 1155.7772, 0)" gradientUnits="userSpaceOnUse"><stop offset="0" stop-color="#09005d"/><stop offset="1" stop-color="#1a0f91"/></linearGradient><linearGradient id="linear-gradient-4" x1="-44.43411" y1="2938.34978" x2="-1778.88281" y2="3360.24248" gradientTransform="matrix(1, 0, 0, -1, 2722.56346, 6236.19296)" xlink:href="#linear-gradient-3"/><linearGradient id="linear-gradient-5" x1="1167.4714" y1="2570.34347" x2="1857.4339" y2="2570.34347" gradientTransform="matrix(1, 0, 0, 1, 0, 0)" xlink:href="#linear-gradient-2"/><linearGradient id="linear-gradient-6" x1="2147.3761" y1="950.01326" x2="2854.28518" y2="950.01326" gradientTransform="translate(545.87349 -942.32857) rotate(21.98072)" xlink:href="#linear-gradient-2"/><linearGradient id="linear-gradient-7" x1="2903.202" y1="1168.73754" x2="3266.32793" y2="1168.73754" gradientTransform="translate(545.87349 -942.32857) rotate(21.98072)" xlink:href="#linear-gradient-2"/><linearGradient id="linear-gradient-8" x1="1162.07659" y1="1363.72948" x2="1449.45948" y2="1363.72948" gradientTransform="translate(545.87349 -942.32857) rotate(21.98072)" xlink:href="#linear-gradient-2"/><linearGradient id="linear-gradient-9" x1="1110.28287" y1="1595.52402" x2="1272.28768" y2="1595.52402" gradientTransform="translate(545.87349 -942.32857) rotate(21.98072)" xlink:href="#linear-gradient-2"/><linearGradient id="linear-gradient-10" x1="1693.73087" y1="1879.64643" x2="1819.18928" y2="2010.68093" gradientTransform="matrix(-1, 0, 0, 1, 2478.4575, 0)" xlink:href="#linear-gradient-3"/><linearGradient id="linear-gradient-11" x1="1860.15895" y1="2208.54303" x2="2097.46806" y2="2382.71473" gradientTransform="matrix(-1, 0, 0, 1, 2478.4575, 0)" xlink:href="#linear-gradient-3"/><linearGradient id="linear-gradient-12" x1="1476.75929" y1="1564.84044" x2="1315.65048" y2="1756.42919" gradientTransform="matrix(-1, 0, 0, 1, 2478.4575, 0)" gradientUnits="userSpaceOnUse"><stop offset="0" stop-color="#febbba"/><stop offset="1" stop-color="#ff928e"/></linearGradient><linearGradient id="linear-gradient-13" x1="1288.89984" y1="1739.16383" x2="1610.93121" y2="1298.6074" xlink:href="#linear-gradient-12"/><linearGradient id="linear-gradient-14" x1="1091.90442" y1="1374.07551" x2="1103.76626" y2="1267.31914" xlink:href="#linear-gradient-12"/><linearGradient id="linear-gradient-15" x1="1155.17166" y1="1280.95216" x2="1102.88868" y2="1108.51049" xlink:href="#linear-gradient-12"/><linearGradient id="linear-gradient-16" x1="1107.99167" y1="964.32025" x2="1156.60096" y2="1241.57307" gradientTransform="matrix(-1, 0, 0, 1, 2478.4575, 0)" xlink:href="#linear-gradient-3"/><linearGradient id="linear-gradient-17" x1="1101.01721" y1="1297.37147" x2="1048.73414" y2="1124.92951" xlink:href="#linear-gradient-12"/><linearGradient id="linear-gradient-18" x1="1528.3632" y1="1639.48862" x2="1773.41256" y2="1639.48862" gradientTransform="matrix(-1, 0, 0, 1, 2478.4575, 0)" xlink:href="#linear-gradient-3"/><linearGradient id="linear-gradient-19" x1="1558.10508" y1="1746.60636" x2="1362.16198" y2="1800.30922" gradientTransform="matrix(-1, 0, 0, 1, 2478.4575, 0)" xlink:href="#linear-gradient-3"/></defs><title>20945597 [Converted]</title><g id="Background"><rect class="cls-1" width="3710" height="3710"/></g><g id="Illustration"><path class="cls-2" d="M3096.5246,2370.3949c-258.3021,617.092-946.3591,962.7911-1543.0437,869.5402-97.0925-15.1743-363.2745-60.3743-598.9421-273.6144C500.8633,2555.8176,403.8413,1742.968,769.8077,1170.1335c266.3592-416.923,743.8353-653.2626,1197.5313-641.4406,97.7261,2.5463,472.2535,18.2402,801.3978,293.6148,48.3448,40.4472,154.9742,136.5607,251.073,289.0385C3245.467,1469.392,3264.8632,1968.2283,3096.5246,2370.3949Z"/><path class="cls-3" d="M479.1438,2255.2458c44.1021-188.2353,188.316-336.0023,371.9082-381.1927,126.2211-31.0691,247.3192-14.397,349.6759,35.9471,33.9486,16.6974,74.2918-2.2049,83.6979-39.5877,90.4822-359.5997,408.9276-625.2613,787.9092-625.2613,449.3857,0,813.6847,373.5249,813.6847,834.2903,0,12.2315-.2409,28.9383-.4489,44.9721,1.5906,34.4563,16.264,49.0858,38.1659,52.7593,176.0675,18.7888,314.4376,167.6126,322.1156,351.1725,8.8162,210.7667-158.4901,385.3866-364.2398,385.3866H978.465C652.6733,2913.732,397.5862,2603.3453,479.1438,2255.2458Z"/><path class="cls-4" d="M626.5411,2325.7902c39.3774-168.0691,168.1415-300.0056,332.0652-340.3548,112.6989-27.7408,220.8237-12.8546,312.2146,32.0958,30.3117,14.9087,66.333-1.9684,74.7313-35.3464,80.7885-321.0755,365.1186-558.2763,703.4993-558.2763,401.2425,0,726.5137,333.5086,726.5137,744.9117,0,10.9212-.2151,25.8381-.4009,40.1541,1.4204,30.765,14.5217,43.8273,34.0774,47.1073,157.205,16.7758,280.7513,149.6559,287.6068,313.5509,7.8716,188.1868-141.5109,344.0995-325.2185,344.0995H1072.3693C781.4801,2913.732,553.7209,2636.5975,626.5411,2325.7902Z"/><path class="cls-5" d="M1100.81849,3050.59167a30.57188,30.57188,0,0,0,30.49687,30.46743H2780.45925a30.57187,30.57187,0,0,0,30.49687-30.46743l13.72243-947.7177c0-16.75663-19.7426-49.47106-55.92471-47.01275L1157.02849,2014.158a76.85069,76.85069,0,0,0-78.85764,78.60135Z"/><path class="cls-6" d="M1130.92686,3021.36187a28.93711,28.93711,0,0,0,28.852,28.85206H2740.6892a28.93713,28.93713,0,0,0,28.85206-28.85206l12.94923-860.3465c-1.52519-51.77368-46.91606-70.38143-74.43131-69.28286L1163.36709,2050.291a54.01127,54.01127,0,0,0-55.41313,55.271Z"/><path class="cls-1" d="M2752.45828,2612.637h-.04216a4.23015,4.23015,0,0,1-4.18676-4.29215l1.02349-69.77261a4.22789,4.22789,0,0,1,4.22469-4.16559h.04226a4.2302,4.2302,0,0,1,4.18666,4.29215l-1.0235,69.77261A4.22789,4.22789,0,0,1,2752.45828,2612.637Z"/><path class="cls-7" d="M972.6865,3076.46157H2905.65416a5.6538,5.6538,0,0,1,5.6538,5.6538v71.96233a5.6537,5.6537,0,0,1-5.6537,5.6537H972.6865a5.6538,5.6538,0,0,1-5.6538-5.6538v-71.96223a5.6538,5.6538,0,0,1,5.6538-5.6538Z" transform="translate(3878.34066 6236.19296) rotate(180)"/><path class="cls-8" d="M1816.79744,3008.24392H1208.108a40.63654,40.63654,0,0,1-40.63656-40.63646V2173.08017a40.63655,40.63655,0,0,1,42.19044-40.6068l608.68948,23.29328a40.63645,40.63645,0,0,1,39.08258,40.6068v771.234A40.63652,40.63652,0,0,1,1816.79744,3008.24392Z"/><path class="cls-9" d="M1292.07932,2444.15614h404.10922a5.3333,5.3333,0,0,1,5.3333,5.3333v42.91746a5.3333,5.3333,0,0,1-5.3333,5.3333H1292.07932a5.3334,5.3334,0,0,1-5.3334-5.3334v-42.91726A5.3334,5.3334,0,0,1,1292.07932,2444.15614Z"/><path class="cls-9" d="M1292.89488,2529.72512H1697.0041a5.3333,5.3333,0,0,1,5.3333,5.3333v42.91735a5.3333,5.3333,0,0,1-5.3333,5.3333H1292.89488a5.3334,5.3334,0,0,1-5.3334-5.3334v-42.91715A5.3334,5.3334,0,0,1,1292.89488,2529.72512Z"/><path class="cls-9" d="M1295.32494,2617.08633h404.10912a5.3334,5.3334,0,0,1,5.3334,5.3334V2665.337a5.3333,5.3333,0,0,1-5.3333,5.3333H1295.32484a5.3333,5.3333,0,0,1-5.3333-5.3333v-42.91725A5.3334,5.3334,0,0,1,1295.32494,2617.08633Z"/><rect class="cls-9" x="1290.8071" y="2702.65519" width="414.77592" height="53.58395" rx="5.3333"/><path class="cls-9" d="M2002.17719,2529.37323h662.75423a5.3333,5.3333,0,0,1,5.3333,5.3333v49.84489a5.3333,5.3333,0,0,1-5.3333,5.3333H2002.17729a5.3334,5.3334,0,0,1-5.3334-5.3334v-49.84479a5.3333,5.3333,0,0,1,5.3333-5.3333Z"/><rect class="cls-9" x="1998.92586" y="2626.07568" width="673.42071" height="60.51149" rx="5.3333"/><path class="cls-9" d="M2004.25926,2724.73127h388.3704a5.3333,5.3333,0,0,1,5.3333,5.3333v49.84489a5.3333,5.3333,0,0,1-5.3333,5.3333h-388.3704a5.3334,5.3334,0,0,1-5.3334-5.3334v-49.84469a5.3334,5.3334,0,0,1,5.3334-5.3334Z"/><g class="cls-10"><path class="cls-1" d="M2354.33064,2303.84943h-10.25785a9.22244,9.22244,0,0,1-9.22262-9.22262v-35.061a22.72421,22.72421,0,0,0-22.72428-22.724h-63.5601a22.724,22.724,0,0,0-22.72415,22.724v35.061a9.22245,9.22245,0,0,1-9.22263,9.22262h-10.25772a9.22271,9.22271,0,0,1-9.22275-9.22262v-35.061a51.42705,51.42705,0,0,1,51.42725-51.42688h63.5601a51.427,51.427,0,0,1,51.42738,51.42688v35.061A9.22261,9.22261,0,0,1,2354.33064,2303.84943Z"/><path class="cls-1" d="M2367.04477,2312.12444h-173.398a19.23928,19.23928,0,0,0-19.23927,19.23915v133.076a19.23986,19.23986,0,0,0,19.23927,19.24h173.398a19.23983,19.23983,0,0,0,19.23952-19.24v-133.076A19.23925,19.23925,0,0,0,2367.04477,2312.12444Zm-61.88962,128.61916a7.12812,7.12812,0,0,1-6.931,8.793h-35.75653a7.12843,7.12843,0,0,1-6.931-8.794l8.34359-34.73075a32.14124,32.14124,0,1,1,32.93121,0Z"/></g><path class="cls-11" d="M2796.64937,1237.33451a3.30354,3.30354,0,0,1-1.368-1.02847,3.55254,3.55254,0,0,1,.55362-4.91637q5.33572-4.41505,10.5198-8.97994a3.37467,3.37467,0,0,1,4.82993.32487,3.556,3.556,0,0,1-.40836,4.93064q-5.26669,4.63127-10.68184,9.114A3.39672,3.39672,0,0,1,2796.64937,1237.33451Z"/><path class="cls-11" d="M2335.98175,1311.72813q-2.80545-1.13238-5.59232-2.30162a3.5082,3.5082,0,0,1,2.66793-6.48513l.04325.01746c8.14281,3.41969,16.46857,6.61775,24.7959,9.53588a3.50732,3.50732,0,0,1-2.33776,6.611C2349.00827,1316.80886,2342.421,1314.32722,2335.98175,1311.72813Zm-44.78976-21.029a3.36326,3.36326,0,0,1-.33543-.15751c-7.89771-4.25855-15.75646-8.80056-23.35608-13.5037a3.50054,3.50054,0,0,1-1.08878-4.7928,3.41956,3.41956,0,0,1,4.72252-1.19918c7.48973,4.63677,15.23126,9.11294,23.01172,13.30574a3.48526,3.48526,0,0,1,1.3613,4.71446A3.45011,3.45011,0,0,1,2291.192,1290.69917Zm105.92363,40.7274a3.44509,3.44509,0,0,1-2.00251-4.06132,3.492,3.492,0,0,1,4.17534-2.58671c8.57538,2.09879,17.325,3.96152,26.00673,5.53832a3.43069,3.43069,0,0,1,2.70038,4.05123,3.50908,3.50908,0,0,1-4.02482,2.8285c-8.81264-1.6001-17.69357-3.49371-26.39717-5.62213A3.30161,3.30161,0,0,1,2397.11562,1331.42657Zm-164.97185-78.8102a3.26831,3.26831,0,0,1-.7743-.44181c-7.134-5.43825-14.19473-11.16457-20.99112-17.0206a3.52528,3.52528,0,0,1-.351-4.91955,3.3949,3.3949,0,0,1,4.83325-.44918c6.69558,5.76715,13.64987,11.41,20.67607,16.76788a3.51352,3.51352,0,0,1,.63533,4.883A3.42872,3.42872,0,0,1,2232.14377,1252.61637Zm234.36645,90.0753a3.427,3.427,0,0,1-2.09776-3.53114,3.52439,3.52439,0,0,1,3.748-3.20238c8.82827.724,17.77963,1.18748,26.61006,1.38057a3.39275,3.39275,0,0,1,3.28716,3.56816,3.53534,3.53534,0,0,1-3.56169,3.41785c-8.9628-.19485-18.05134-.66575-27.01117-1.40219A3.32493,3.32493,0,0,1,2466.51022,1342.69167Zm-286.836-137.03777a3.32374,3.32374,0,0,1-1.16211-.79027c-6.22039-6.51695-12.312-13.29953-18.11132-20.15617a3.55449,3.55449,0,0,1,.39786-4.93117,3.37747,3.37747,0,0,1,4.83066.31414c5.71109,6.75444,11.71145,13.4337,17.83787,19.85376a3.54312,3.54312,0,0,1-.11022,4.94024A3.41221,3.41221,0,0,1,2179.67426,1205.6539ZM2536.97493,1342.898a3.40857,3.40857,0,0,1-2.113-2.99452,3.55111,3.55111,0,0,1,3.23264-3.7426c8.83356-.66965,17.77679-1.61994,26.58212-2.82536a3.37,3.37,0,0,1,3.79749,2.99867,3.55865,3.55865,0,0,1-3.0125,3.92758c-8.93787,1.222-18.0168,2.18771-26.98774,2.86828A3.31158,3.31158,0,0,1,2536.97493,1342.898Zm-401.87819-192.00214a3.328,3.328,0,0,1-1.4988-1.20313c-5.13124-7.42515-10.10592-15.10461-14.7887-22.82134a3.56976,3.56976,0,0,1,1.13838-4.82421,3.361,3.361,0,0,1,4.7121,1.0711c4.60712,7.60129,9.51055,15.16337,14.5667,22.48061a3.56515,3.56515,0,0,1-.85821,4.87834A3.391,3.391,0,0,1,2135.09674,1150.89589Zm471.737,181.11576a3.386,3.386,0,0,1-2.0426-2.45655,3.5704,3.5704,0,0,1,2.63311-4.19887c8.66226-2.05325,17.38268-4.39312,25.92072-6.95811a3.35913,3.35913,0,0,1,4.21723,2.35946,3.57622,3.57622,0,0,1-2.39316,4.34368c-8.66642,2.59807-17.51656,4.9743-26.3072,7.06065A3.358,3.358,0,0,1,2606.83375,1332.01165Zm-507.36223-242.37758a3.35827,3.35827,0,0,1-1.76972-1.66323c-3.92149-8.13317-7.67156-16.522-11.13918-24.93351a3.57247,3.57247,0,0,1,1.84341-4.60253,3.35205,3.35205,0,0,1,4.4813,1.7941c3.4183,8.28451,7.11325,16.55142,10.97845,24.56585a3.576,3.576,0,0,1-1.58114,4.701A3.37493,3.37493,0,0,1,2099.47152,1089.63407ZM2674.46215,1310.37a3.37066,3.37066,0,0,1-1.89161-1.94884,3.57683,3.57683,0,0,1,1.98558-4.54514c8.28693-3.36783,16.57975-7.01764,24.64625-10.85472a3.36246,3.36246,0,0,1,4.53012,1.67341,3.57711,3.57711,0,0,1-1.72588,4.65c-8.189,3.89107-16.60558,7.598-25.01362,11.01664A3.36834,3.36834,0,0,1,2674.46215,1310.37Zm-600.946-287.03747a3.37751,3.37751,0,0,1-1.96306-2.1549c-2.66463-8.68179-5.11428-17.576-7.28348-26.43439a3.57568,3.57568,0,0,1,2.5012-4.28165,3.36273,3.36273,0,0,1,4.15431,2.47063c2.1347,8.73013,4.54677,17.49473,7.17265,26.05014a3.56983,3.56983,0,0,1-2.2561,4.41371A3.3431,3.3431,0,0,1,2073.51619,1023.33251Zm664.7176,255.27639a3.32874,3.32874,0,0,1-1.66459-1.46939,3.57208,3.57208,0,0,1,1.28827-4.78595c7.727-4.61675,15.39568-9.50793,22.79645-14.53691a3.36124,3.36124,0,0,1,4.74045.93857,3.569,3.569,0,0,1-1.00891,4.85075c-7.51543,5.10825-15.30062,10.07427-23.14461,14.75824A3.38126,3.38126,0,0,1,2738.23379,1278.6089ZM2057.79961,953.60166a3.39192,3.39192,0,0,1-2.08035-2.67484c-1.329-9.06958-2.40421-18.26929-3.19582-27.34343a3.55572,3.55572,0,0,1,3.11283-3.84643,3.37316,3.37316,0,0,1,3.716,3.10245c.779,8.93617,1.83842,17.99656,3.14614,26.932a3.56008,3.56008,0,0,1-2.88569,4.023A3.33314,3.33314,0,0,1,2057.79961,953.60166Zm-4.957-71.56536a3.417,3.417,0,0,1-2.11475-3.213c.066-9.18584.40168-18.46962.99624-27.59353a3.52934,3.52934,0,0,1,3.64812-3.32018,3.4003,3.4003,0,0,1,3.18986,3.65805c-.58479,8.98376-.91681,18.125-.98,27.17916a3.53962,3.53962,0,0,1-3.45319,3.53183A3.3301,3.3301,0,0,1,2052.84262,882.0363Z"/><path class="cls-11" d="M2058.823,810.15587a3.43323,3.43323,0,0,1-2.06648-3.75111q1.11986-6.96966,2.43375-13.89424a3.50083,3.50083,0,0,1,4.0169-2.8354,3.41276,3.41276,0,0,1,2.70722,4.043q-1.297,6.82065-2.394,13.68871a3.51239,3.51239,0,0,1-3.93633,2.95654A3.42073,3.42073,0,0,1,2058.823,810.15587Z"/><path class="cls-11" d="M2246.32366,500.26061a3.32875,3.32875,0,0,1-1.48228-1.18175,3.56093,3.56093,0,0,1,.8204-4.88247q5.61959-4.15644,11.38156-8.16692a3.355,3.355,0,0,1,4.75031.8873,3.56521,3.56521,0,0,1-.9586,4.85993q-5.68139,3.94872-11.21855,8.04808A3.3856,3.3856,0,0,1,2246.32366,500.26061Z"/><path class="cls-11" d="M2967.43037,917.9878a3.429,3.429,0,0,1-2.09556-3.56339c1.00309-9.45014,1.72533-19.05048,2.15349-28.53692a3.535,3.535,0,0,1,3.5814-3.39517,3.38652,3.38652,0,0,1,3.26453,3.58845c-.43053,9.62588-1.16817,19.37139-2.18367,28.96792a3.52209,3.52209,0,0,1-3.77739,3.16826A3.3405,3.3405,0,0,1,2967.43037,917.9878Zm1.95907-75.52706a3.40727,3.40727,0,0,1-2.113-2.99452c-.515-9.48315-1.32411-19.04807-2.412-28.43013a3.559,3.559,0,0,1,3.00444-3.93443,3.37551,3.37551,0,0,1,3.80447,2.99035c1.10038,9.52008,1.9258,19.23186,2.44776,28.85809a3.55211,3.55211,0,0,1-3.23268,3.74269A3.31123,3.31123,0,0,1,2969.38944,842.46074ZM2959.31,767.83082a3.38,3.38,0,0,1-2.03672-2.43564c-2.00893-9.211-4.3289-18.48855-6.89676-27.57074a3.57274,3.57274,0,0,1,2.34805-4.36549,3.349,3.349,0,0,1,4.23959,2.313c2.60458,9.22258,4.96274,18.63737,7.001,27.98951a3.566,3.566,0,0,1-2.60653,4.21319A3.32786,3.32786,0,0,1,2959.31,767.83082ZM2297.0983,467.54034a3.337,3.337,0,0,1-1.71613-1.5641,3.57309,3.57309,0,0,1,1.43373-4.74565c8.3285-4.62868,16.93249-9.076,25.56993-13.21438a3.351,3.351,0,0,1,4.53522,1.66076,3.57741,3.57741,0,0,1-1.71347,4.655c-8.51556,4.07676-16.992,8.45736-25.196,13.01815A3.37207,3.37207,0,0,1,2297.0983,467.54034Zm640.45292,228.50847a3.36186,3.36186,0,0,1-1.87354-1.90447c-3.41415-8.72231-7.15478-17.47284-11.1179-26.01051a3.57466,3.57466,0,0,1,1.6473-4.678,3.34369,3.34369,0,0,1,4.559,1.59278c4.02189,8.66841,7.818,17.5485,11.28336,26.4022a3.57282,3.57282,0,0,1-1.92371,4.57011A3.35569,3.35569,0,0,1,2937.55122,696.04881ZM2365.204,436.51338a3.37068,3.37068,0,0,1-1.935-2.07336,3.573,3.573,0,0,1,2.15173-4.467c8.97269-3.24984,18.13941-6.259,27.24741-8.94463a3.36472,3.36472,0,0,1,4.20516,2.38041,3.57706,3.57706,0,0,1-2.41353,4.33186c-8.97576,2.643-18.00895,5.60632-26.848,8.81036A3.3483,3.3483,0,0,1,2365.204,436.51338Zm539.60679,192.44475a3.35279,3.35279,0,0,1-1.62685-1.4025c-4.77371-8.05251-9.85888-16.04611-15.11572-23.76555a3.56224,3.56224,0,0,1,.89172-4.87222,3.35918,3.35918,0,0,1,4.76365.81877c5.3325,7.83489,10.49815,15.94958,15.34493,24.12391a3.57083,3.57083,0,0,1-1.18425,4.81322A3.38355,3.38355,0,0,1,2904.81081,628.95813ZM2437.1115,416.8463a3.3875,3.3875,0,0,1-2.07045-2.61917,3.55992,3.55992,0,0,1,2.8209-4.06759c9.31469-1.74567,18.81173-3.222,28.22107-4.38294a3.36494,3.36494,0,0,1,3.76019,3.04639,3.55708,3.55708,0,0,1-3.05863,3.89043c-9.2724,1.14245-18.62688,2.595-27.80516,4.31451A3.31989,3.31989,0,0,1,2437.1115,416.8463ZM2861.764,568.34142a3.29473,3.29473,0,0,1-1.3006-.94591c-6.00108-7.12261-12.30779-14.1471-18.74612-20.88129a3.53827,3.53827,0,0,1,.10593-4.93827,3.36648,3.36648,0,0,1,4.843.01637c6.53526,6.83238,12.93948,13.96261,19.02934,21.195a3.551,3.551,0,0,1-.40407,4.92867A3.40167,3.40167,0,0,1,2861.764,568.34142ZM2510.96467,409.21886a3.41488,3.41488,0,0,1-2.11579-3.18386,3.54509,3.54509,0,0,1,3.42554-3.56141c9.426-.18681,19.00181-.07685,28.4559.33473a3.39164,3.39164,0,0,1,3.21234,3.63758,3.53187,3.53187,0,0,1-3.62854,3.3429c-9.31367-.403-18.74535-.51382-28.03457-.32717A3.34845,3.34845,0,0,1,2510.96467,409.21886Zm298.55589,106.59468a3.33965,3.33965,0,0,1-.91277-.55306c-7.07214-6.01888-14.43307-11.8923-21.8718-17.45728a3.51682,3.51682,0,0,1-.68015-4.879,3.42361,3.42361,0,0,1,4.79946-.784c7.55128,5.65106,15.02359,11.61369,22.2027,17.72381a3.52713,3.52713,0,0,1,.38088,4.91688A3.42261,3.42261,0,0,1,2809.52056,515.81354ZM2584.81747,413.88329a3.43637,3.43637,0,0,1-2.06777-3.74792,3.51722,3.51722,0,0,1,3.93447-2.96089c9.34529,1.37574,18.747,3.06594,27.94039,5.02288a3.41427,3.41427,0,0,1,2.58261,4.12925,3.49436,3.49436,0,0,1-4.09915,2.70977c-9.05778-1.92793-18.31937-3.59121-27.52641-4.94428A3.4481,3.4481,0,0,1,2584.81747,413.88329Zm164.668,58.83736a3.36053,3.36053,0,0,1-.46687-.23281c-7.96031-4.77124-16.1729-9.34522-24.41295-13.60167a3.4834,3.4834,0,0,1-1.43928-4.69057,3.4175,3.4175,0,0,1,4.62868-1.55455c8.36165,4.32036,16.69952,8.967,24.7758,13.80721a3.49319,3.49319,0,0,1,1.15369,4.77475A3.44121,3.44121,0,0,1,2749.48548,472.72065Zm-92.738-42.07a3.50986,3.50986,0,0,1,2.40135-6.58162c8.94662,2.88,17.92828,6.09182,26.69825,9.54308l.02783.01123a3.50789,3.50789,0,0,1-2.59684,6.51383c-8.64322-3.40009-17.49254-6.56588-26.30111-9.4049C2656.89709,430.70735,2656.82161,430.68059,2656.74743,430.65065Z"/><path class="cls-11" d="M2957.12192,978.2a3.44569,3.44569,0,0,1-2.01552-4.0112q1.60574-6.75687,3.01211-13.57219a3.50561,3.50561,0,0,1,4.06328-2.77232,3.45042,3.45042,0,0,1,2.64455,4.09147q-1.43246,6.91559-3.05808,13.77522a3.43231,3.43231,0,0,1-4.64634,2.489Z"/><path class="cls-12" d="M2841.923,994.967a5.65089,5.65089,0,0,0-.94491-6.42307l-46.52838-48.22458a304.21256,304.21256,0,0,0,7.40373-96.18915l53.41792-42.11833a5.75177,5.75177,0,0,0,1.91691-6.24829l-24.86108-77.39381a5.389,5.389,0,0,0-5.13624-3.77588l-66.92395.07726a287.83751,287.83751,0,0,0-61.4485-72.04752l9.2596-67.78617a5.52323,5.52323,0,0,0-2.953-5.71744L2633.526,533.33429a5.46512,5.46512,0,0,0-6.31887,1.08347l-48.17771,48.33454a285.26783,285.26783,0,0,0-94.23459-5.763l-40.332-53.68443a5.366,5.366,0,0,0-6.09432-1.83893l-76.395,26.78648a5.731,5.731,0,0,0-3.799,5.3077l-1.16586,68.23423a301.59635,301.59635,0,0,0-71.82691,63.98884l-66.33492-8.1842a5.59435,5.59435,0,0,0-5.66413,3.1183l-36.43832,73.66654a5.64869,5.64869,0,0,0,.94581,6.423l46.52741,48.22429a304.21417,304.21417,0,0,0-7.40412,96.18957l-53.419,42.11843a5.7523,5.7523,0,0,0-1.91695,6.247l24.86237,77.39658a5.3855,5.3855,0,0,0,5.137,3.77371l66.92388-.07763a287.77886,287.77886,0,0,0,61.44892,72.04837l-9.26047,67.78537a5.52189,5.52189,0,0,0,2.954,5.71851l71.59862,35.78549a5.4686,5.4686,0,0,0,6.31923-1.08356l48.17735-48.33367a285.25891,285.25891,0,0,0,94.23459,5.76217l40.332,53.68569a5.36632,5.36632,0,0,0,6.0934,1.83743l76.39426-26.78609a5.73334,5.73334,0,0,0,3.80019-5.30664l1.16586-68.23424a301.68325,301.68325,0,0,0,71.82654-63.98955l66.334,8.183a5.59282,5.59282,0,0,0,5.66575-3.118Z"/><path class="cls-13" d="M2479.88941,947.19159a74.24979,74.24979,0,0,1-35.27262-29.76007c-22.46892-35.94607-11.71661-84.37016,23.96759-107.94671a75.483,75.483,0,0,1,57.69819-11.13872,74.17317,74.17317,0,0,1,47.765,33.57274,77.99874,77.99874,0,0,1,9.85882,58.61925,79.38869,79.38869,0,0,1-33.8264,49.32747,75.40255,75.40255,0,0,1-70.19054,7.326Zm54.92984-135.28635a65.30081,65.30081,0,0,0-60.75535,6.34161c-30.88837,20.40563-40.19717,62.32307-20.74885,93.43513a64.18293,64.18293,0,0,0,41.34912,29.06305,65.31789,65.31789,0,0,0,49.93613-9.64147,68.71464,68.71464,0,0,0,29.28347-42.69461,67.52288,67.52288,0,0,0-8.53453-50.74048h0A64.29159,64.29159,0,0,0,2534.81925,811.90524Z"/><path class="cls-13" d="M2431.83376,1062.98012q-7.25688-2.92912-14.33671-6.46615c-47.37435-23.67472-82.5212-64.91526-98.96754-116.12057a205.32487,205.32487,0,0,1,5.2633-140.24274q3.01045-7.45839,6.61271-14.74419c24.10847-48.73783,65.21929-85.34022,115.76724-103.06123,50.53732-17.72149,104.46195-14.44341,151.835,9.23437,47.37425,23.67469,82.5211,64.91523,98.96745,116.12053a204.99514,204.99514,0,0,1,8.78676,42.073l-10.22389,1.26423a194.43593,194.43593,0,0,0-8.33743-39.90878c-15.59707-48.5623-48.92961-87.67115-93.85284-110.12382-44.93606-22.42089-96.06264-25.55913-143.99593-8.75827-47.93268,16.80852-86.92154,51.52033-109.787,97.73956q-3.41373,6.90765-6.269,13.98186a194.741,194.741,0,0,0-4.99306,133.00028c15.59835,48.55911,48.93089,87.668,93.85413,110.12063,44.956,22.46949,96.06755,25.56482,143.99593,8.75827a193.1231,193.1231,0,0,0,83.86538-58.07454l7.7574,6.73493a203.665,203.665,0,0,1-88.44371,61.24085C2523.82481,1081.70445,2475.57317,1080.63487,2431.83376,1062.98012Z"/><path class="cls-11" d="M3110.62648,1488.1823a3.33618,3.33618,0,0,1-1.42735-1.10409,3.55882,3.55882,0,0,1,.68837-4.90264c3.616-2.831,7.17134-5.77881,10.56619-8.76546a3.3745,3.3745,0,0,1,4.82994.32487,3.55594,3.55594,0,0,1-.40837,4.93064c-3.49538,3.07533-7.15435,6.11057-10.87882,9.02336A3.39143,3.39143,0,0,1,3110.62648,1488.1823Z"/><path class="cls-11" d="M2862.39755,1514.53376q-.12523-.05055-.24657-.11053a235.20385,235.20385,0,0,1-24.17425-13.97062,3.50842,3.50842,0,0,1-.95291-4.82657,3.42591,3.42591,0,0,1,4.753-1.0613,227.17332,227.17332,0,0,0,23.4857,13.57455,3.51113,3.51113,0,0,1-2.865,6.39447Zm41.68036,16.02243a3.45061,3.45061,0,0,1-1.97758-4.15829,3.48781,3.48781,0,0,1,4.24526-2.46627,227.50768,227.50768,0,0,0,26.54113,5.63958,3.39925,3.39925,0,0,1,2.81887,3.96248,3.50772,3.50772,0,0,1-3.94,2.94766,233.68962,233.68962,0,0,1-27.32452-5.80069A3.65427,3.65427,0,0,1,2904.07791,1530.55619Zm-100.28211-57.99028a3.35788,3.35788,0,0,1-1.09718-.71981,235.81614,235.81614,0,0,1-18.74191-20.86488,3.55735,3.55735,0,0,1,.53691-4.91941,3.37245,3.37245,0,0,1,4.81644.45609,229.43931,229.43931,0,0,0,18.2075,20.26519,3.54468,3.54468,0,0,1,.02957,4.94119A3.41889,3.41889,0,0,1,2803.7958,1472.56591Zm171.9496,66.01153a3.41338,3.41338,0,0,1-2.11685-3.09209,3.54549,3.54549,0,0,1,3.33224-3.65073,228.5741,228.5741,0,0,0,27.11926-2.90021,3.36093,3.36093,0,0,1,3.88653,2.8759,3.55737,3.55737,0,0,1-2.89372,4.01608,235.11882,235.11882,0,0,1-27.92428,2.9888A3.31313,3.31313,0,0,1,2975.7454,1538.57744Zm-214.90158-124.37825a3.33786,3.33786,0,0,1-1.7199-1.57292,243.3549,243.3549,0,0,1-11.51809-25.80277,3.57666,3.57666,0,0,1,1.97317-4.55015,3.35622,3.35622,0,0,1,4.42759,1.92741,236.38447,236.38447,0,0,0,11.18787,25.07132,3.56923,3.56923,0,0,1-1.44617,4.74073A3.36275,3.36275,0,0,1,2760.84382,1414.19919Zm285.96169,109.723a3.37226,3.37226,0,0,1-1.92349-2.03919,3.572,3.572,0,0,1,2.10666-4.48886l2.55689-.9729a239.05321,239.05321,0,0,0,22.59249-10.12192,3.33528,3.33528,0,0,1,4.576,1.53324,3.56837,3.56837,0,0,1-1.58916,4.694,244.40943,244.40943,0,0,1-23.2536,10.4237l-2.62428.99735A3.36074,3.36074,0,0,1,3046.80551,1523.92223Zm-309.34118-178.95054a3.3824,3.3824,0,0,1-2.06285-2.57545,245.5636,245.5636,0,0,1-3.2941-28.30247,3.54693,3.54693,0,0,1,3.21854-3.7521,3.3753,3.3753,0,0,1,3.62151,3.212,239.49147,239.49147,0,0,0,3.19831,27.48842,3.5586,3.5586,0,0,1-2.77039,4.1028A3.31761,3.31761,0,0,1,2737.46433,1344.97169Z"/><path class="cls-11" d="M2735.914,1271.23678a3.43213,3.43213,0,0,1-2.08076-3.65344c.61453-4.6666,1.37577-9.38461,2.257-14.01736a3.49988,3.49988,0,0,1,4.01686-2.83531,3.40965,3.40965,0,0,1,2.70735,4.04292c-.853,4.50017-1.59069,9.08-2.18881,13.61654a3.51676,3.51676,0,0,1-3.855,3.06686A3.37385,3.37385,0,0,1,2735.914,1271.23678Z"/><path class="cls-11" d="M2833.2093,1105.31549a3.32887,3.32887,0,0,1-1.48228-1.18175,3.56021,3.56021,0,0,1,.82041-4.88247c3.769-2.79139,7.66686-5.50131,11.57973-8.0611a3.36064,3.36064,0,0,1,4.7194,1.02621,3.56248,3.56248,0,0,1-1.09432,4.831c-3.80077,2.48688-7.58517,5.12065-11.25009,7.83228A3.38541,3.38541,0,0,1,2833.2093,1105.31549Z"/><path class="cls-11" d="M3204.97806,1292.14668a3.41624,3.41624,0,0,1-2.11544-3.15789,237.8462,237.8462,0,0,0-1.78661-27.19186,3.56079,3.56079,0,0,1,2.97436-3.95769,3.36928,3.36928,0,0,1,3.82774,2.95921,246.57893,246.57893,0,0,1,1.84007,28.00352,3.54315,3.54315,0,0,1-3.39975,3.58665A3.34006,3.34006,0,0,1,3204.97806,1292.14668Zm-11.38656-71.30263a3.3724,3.3724,0,0,1-1.9499-2.11623q-1.2402-3.90135-2.62652-7.78769c-2.10975-5.9065-4.47319-11.78972-7.03278-17.49009a3.57723,3.57723,0,0,1,1.70732-4.65735,3.34827,3.34827,0,0,1,4.53783,1.65429c2.62963,5.86522,5.06369,11.921,7.23032,17.99817q1.42909,3.99412,2.70827,8.01263a3.57838,3.57838,0,0,1-2.20925,4.44015A3.35278,3.35278,0,0,1,3193.5915,1220.84405Zm-309.50416-144.319a3.35852,3.35852,0,0,1-1.88435-1.93107,3.57645,3.57645,0,0,1,1.96076-4.55516q2.68369-1.10445,5.39483-2.161c6.81727-2.63927,13.82105-4.99267,20.81935-6.99384a3.34387,3.34387,0,0,1,4.18184,2.41166,3.561,3.561,0,0,1-2.44368,4.30846c-6.7976,1.94932-13.60495,4.23432-20.22612,6.79764q-2.64183,1.02717-5.25437,2.10692A3.36321,3.36321,0,0,1,2884.08734,1076.52509Zm277.80381,80.06667a3.33972,3.33972,0,0,1-1.48539-1.183,229.28259,229.28259,0,0,0-16.65909-21.02845,3.54643,3.54643,0,0,1,.26679-4.93613,3.3602,3.3602,0,0,1,4.83794.18041,236.5288,236.5288,0,0,1,17.15605,21.65,3.56565,3.56565,0,0,1-.8248,4.88441A3.39359,3.39359,0,0,1,3161.89115,1156.59176Zm-208.42956-97.18941a3.40336,3.40336,0,0,1-2.10992-2.9489,3.55155,3.55155,0,0,1,3.18469-3.78418,235.499,235.499,0,0,1,27.56958-.80942,3.3911,3.3911,0,0,1,3.25894,3.59361,3.52862,3.52862,0,0,1-3.58318,3.39064,228.05308,228.05308,0,0,0-26.77642.78623A3.32265,3.32265,0,0,1,2953.46159,1059.40235Zm159.1609,45.93973a3.39928,3.39928,0,0,1-.77258-.4374,227.368,227.368,0,0,0-22.16987-14.87475,3.48861,3.48861,0,0,1-1.1905-4.76378,3.38257,3.38257,0,0,1,4.69586-1.30214,234.1085,234.1085,0,0,1,22.82814,15.31038,3.51966,3.51966,0,0,1,.64157,4.88542A3.43276,3.43276,0,0,1,3112.62249,1105.34208Zm-88.33809-41.18755a3.44165,3.44165,0,0,1-2.015-4.00348,3.48893,3.48893,0,0,1,4.13153-2.65616,234.269,234.269,0,0,1,26.385,7.62944,3.507,3.507,0,0,1-2.35633,6.60361,227.65021,227.65021,0,0,0-25.63081-7.41376A3.18155,3.18155,0,0,1,3024.2844,1064.15453Z"/><path class="cls-11" d="M3198.33507,1350.82165a3.4455,3.4455,0,0,1-2.01555-4.0111c1.05867-4.45769,2.00169-9.00271,2.80755-13.51077a3.50666,3.50666,0,0,1,3.98634-2.88458,3.40272,3.40272,0,0,1,2.75612,4.01094c-.82973,4.63871-1.80238,9.31945-2.88816,13.90658a3.43168,3.43168,0,0,1-4.6463,2.48893Z"/><path class="cls-14" d="M3139.7995,1357.85507a2.902,2.902,0,0,0-.48536-3.2989l-23.901-24.77194a156.26175,156.26175,0,0,0,3.80324-49.41081l27.43955-21.63573a2.954,2.954,0,0,0,.98519-3.20938l-12.77075-39.75606a2.76914,2.76914,0,0,0-2.63851-1.93921l-34.37771.03975a147.85962,147.85962,0,0,0-31.56472-37.00963l4.7565-34.82061a2.837,2.837,0,0,0-1.51731-2.93656l-36.779-18.38248a2.80646,2.80646,0,0,0-3.24562.55642l-24.74766,24.82841a146.53126,146.53126,0,0,0-48.407-2.95991l-20.71791-27.57711a2.75627,2.75627,0,0,0-3.1304-.94458l-39.24292,13.75984a2.94349,2.94349,0,0,0-1.95116,2.7266l-.59869,35.05028a154.92724,154.92724,0,0,0-36.89647,32.87039l-34.075-4.20442a2.87472,2.87472,0,0,0-2.9094,1.60161l-18.71779,37.84146a2.90135,2.90135,0,0,0,.48617,3.29934l23.90012,24.7716a156.28324,156.28324,0,0,0-3.8036,49.41088l-27.44039,21.6354a2.95509,2.95509,0,0,0-.98438,3.20925l12.77115,39.75724a2.76741,2.76741,0,0,0,2.63886,1.93834l34.37771-.03975a147.80222,147.80222,0,0,0,31.56518,37.00959l-4.75738,34.8198a2.838,2.838,0,0,0,1.51741,2.938l36.77938,18.3824a2.80893,2.80893,0,0,0,3.24563-.55642l24.7477-24.82851a146.5402,146.5402,0,0,0,48.407,2.96l20.71753,27.57752a2.7576,2.7576,0,0,0,3.13034.94365l39.24178-13.75918a2.94622,2.94622,0,0,0,1.95246-2.7263l.59852-35.05068a154.95649,154.95649,0,0,0,36.89648-32.87038l34.07423,4.20355a2.87258,2.87258,0,0,0,2.91062-1.60167Z"/><path class="cls-13" d="M2952.8676,1335.685a40.57413,40.57413,0,0,1-19.27064-16.25966c-12.27649-19.63976-6.4-46.098,13.09369-58.98084a41.23459,41.23459,0,0,1,31.52495-6.08442,40.49453,40.49453,0,0,1,26.09765,18.34334,42.60364,42.60364,0,0,1,5.38573,32.02678,43.36722,43.36722,0,0,1-18.48252,26.95281,41.19971,41.19971,0,0,1-38.34886,4.002Zm28.18707-69.48579a31.12065,31.12065,0,0,0-28.8845,3.00733c-14.69915,9.71518-19.13084,29.66351-9.875,44.46926a30.53809,30.53809,0,0,0,19.67565,13.831,31.086,31.086,0,0,0,23.76608-4.58588,32.71019,32.71019,0,0,0,13.93635-20.32115,32.12408,32.12408,0,0,0-4.05829-24.14685h0A30.63953,30.63953,0,0,0,2981.05467,1266.19924Z"/><path class="cls-13" d="M2928.19307,1395.16823q-3.82095-1.54228-7.54844-3.405a102.72849,102.72849,0,0,1-52.07988-61.10946,109.30679,109.30679,0,0,1,67.17124-135.79522c54.90739-19.25867,114.11683,10.33765,131.984,65.96775.14132.43361.277.87235.41389,1.30789a108.17339,108.17339,0,0,1,3.98843,18.84226c.00345.02722.00805.05132.00967.0741.01122.09684.02381.19053.0332.28294.01907.1665.03818.33291.05853.49622.00949.09244.01888.18485.02956.27406.03191.28613.05943.57419.08824.85907l-10.22386,1.26414a97.74113,97.74113,0,0,0-4.17089-19.97554h0a92.40571,92.40571,0,0,0-119.03154-59.49172,98.58174,98.58174,0,0,0-60.57722,122.46891c16.1168,50.16034,69.5121,76.856,119.03158,59.49162a96.63227,96.63227,0,0,0,41.96408-29.06156l7.75741,6.73494a107.16581,107.16581,0,0,1-46.54232,32.22788A101.93559,101.93559,0,0,1,2928.19307,1395.16823Z"/><path class="cls-11" d="M1358.40982,963.05823a2.64033,2.64033,0,0,1-1.12963-.8738,2.8165,2.8165,0,0,1,.54478-3.88c2.86176-2.2405,5.6755-4.57344,8.36224-6.93711a2.67063,2.67063,0,0,1,3.82248.25711,2.81422,2.81422,0,0,1-.32319,3.90217c-2.7663,2.43386-5.66206,4.836-8.60965,7.14122A2.684,2.684,0,0,1,1358.40982,963.05823Z"/><path class="cls-11" d="M1161.958,983.91314q-.09912-.04-.19514-.08748a186.14316,186.14316,0,0,1-19.13184-11.05654,2.77661,2.77661,0,0,1-.75414-3.81982,2.71132,2.71132,0,0,1,3.76162-.83992,179.78828,179.78828,0,0,0,18.58691,10.74309,2.77876,2.77876,0,0,1-2.26741,5.06067Zm32.98641,12.68037a2.73086,2.73086,0,0,1-1.56508-3.29092,2.76031,2.76031,0,0,1,3.35976-1.95185,180.05377,180.05377,0,0,0,21.005,4.46324,2.69022,2.69022,0,0,1,2.23089,3.136,2.77606,2.77606,0,0,1-3.11814,2.33282,184.94406,184.94406,0,0,1-21.625-4.59074A2.891,2.891,0,0,1,1194.94441,996.59351Zm-79.36465-45.89431a2.65755,2.65755,0,0,1-.86832-.56967,186.62658,186.62658,0,0,1-14.83261-16.51276,2.81534,2.81534,0,0,1,.42492-3.89329,2.669,2.669,0,0,1,3.8118.361,181.584,181.584,0,0,0,14.40966,16.03815,2.8053,2.8053,0,0,1,.02341,3.91052A2.70577,2.70577,0,0,1,1115.57976,950.6992Zm136.0833,52.24244a2.70141,2.70141,0,0,1-1.67531-2.44712,2.806,2.806,0,0,1,2.63718-2.88924A180.898,180.898,0,0,0,1274.0875,995.31a2.65988,2.65988,0,0,1,3.07584,2.276,2.81534,2.81534,0,0,1-2.29012,3.17838,186.07634,186.07634,0,0,1-22.09966,2.36538A2.62216,2.62216,0,0,1,1251.66306,1002.94164ZM1081.587,904.507a2.64164,2.64164,0,0,1-1.36115-1.24483,192.59179,192.59179,0,0,1-9.11558-20.42067,2.83063,2.83063,0,0,1,1.56159-3.601,2.65616,2.65616,0,0,1,3.50406,1.52537,187.07863,187.07863,0,0,0,8.85424,19.84179,2.82476,2.82476,0,0,1-1.14453,3.75189A2.66133,2.66133,0,0,1,1081.587,904.507Zm226.314,86.83633a2.66885,2.66885,0,0,1-1.52227-1.61384,2.827,2.827,0,0,1,1.66724-3.55255l2.02355-.77a189.191,189.191,0,0,0,17.88-8.01063,2.63958,2.63958,0,0,1,3.62149,1.21342,2.82406,2.82406,0,0,1-1.25768,3.71493,193.4262,193.4262,0,0,1-18.40322,8.24945l-2.07689.78933A2.65978,2.65978,0,0,1,1307.901,991.3433ZM1063.08412,849.71936a2.67686,2.67686,0,0,1-1.63257-2.03824,194.34391,194.34391,0,0,1-2.607-22.399,2.8071,2.8071,0,0,1,2.5472-2.96947,2.67127,2.67127,0,0,1,2.86611,2.542,189.53583,189.53583,0,0,0,2.53119,21.75472,2.81633,2.81633,0,0,1-2.19253,3.247A2.62558,2.62558,0,0,1,1063.08412,849.71936Z"/><path class="cls-11" d="M1061.85715,791.36454a2.71625,2.71625,0,0,1-1.64674-2.89138c.48635-3.69322,1.08881-7.42712,1.78622-11.09354a2.76984,2.76984,0,0,1,3.179-2.2439,2.69843,2.69843,0,0,1,2.14263,3.19962c-.67505,3.56149-1.2589,7.186-1.73225,10.77631a2.78321,2.78321,0,0,1-3.0509,2.42716A2.67,2.67,0,0,1,1061.85715,791.36454Z"/><path class="cls-11" d="M1138.858,660.05212a2.63435,2.63435,0,0,1-1.1731-.93525,2.81759,2.81759,0,0,1,.64928-3.864c2.98281-2.20915,6.06766-4.35382,9.16436-6.37967a2.65966,2.65966,0,0,1,3.735.81216,2.81939,2.81939,0,0,1-.86606,3.82331c-3.008,1.96815-6.003,4.05255-8.90348,6.19858A2.67923,2.67923,0,0,1,1138.858,660.05212Z"/><path class="cls-11" d="M1433.081,807.91292a2.70365,2.70365,0,0,1-1.67419-2.4992,188.23489,188.23489,0,0,0-1.414-21.52,2.81808,2.81808,0,0,1,2.354-3.13218,2.66651,2.66651,0,0,1,3.02933,2.342,195.14875,195.14875,0,0,1,1.45625,22.16238,2.80408,2.80408,0,0,1-2.69061,2.83852A2.64325,2.64325,0,0,1,1433.081,807.91292Zm-9.01149-56.42989a2.669,2.669,0,0,1-1.54318-1.67481q-.98149-3.0876-2.07866-6.16329c-1.66969-4.67449-3.54014-9.33054-5.56584-13.8419a2.83106,2.83106,0,0,1,1.35119-3.68589,2.64988,2.64988,0,0,1,3.59131,1.30923c2.08113,4.64181,4.00747,9.43447,5.72217,14.244q1.131,3.161,2.14337,6.34131a2.832,2.832,0,0,1-1.74843,3.514A2.6535,2.6535,0,0,1,1424.06948,751.483ZM1179.1236,637.267a2.658,2.658,0,0,1-1.4913-1.52828,2.83045,2.83045,0,0,1,1.55178-3.605q2.1239-.87406,4.26953-1.71022c5.39528-2.08875,10.93818-3.95127,16.47673-5.535a2.64638,2.64638,0,0,1,3.30956,1.90862,2.81827,2.81827,0,0,1-1.934,3.40978c-5.37972,1.54271-10.76715,3.3511-16.00723,5.37974q-2.09079.81291-4.15838,1.66745A2.66174,2.66174,0,0,1,1179.1236,637.267Zm219.85778,63.36586a2.643,2.643,0,0,1-1.17555-.93624,181.46094,181.46094,0,0,0-13.18424-16.64221,2.80669,2.80669,0,0,1,.21114-3.90651,2.6593,2.6593,0,0,1,3.82882.14278,187.19,187.19,0,0,1,13.57753,17.13409,2.82191,2.82191,0,0,1-.65275,3.86559A2.68574,2.68574,0,0,1,1398.98138,700.63287Zm-164.954-76.917a2.69348,2.69348,0,0,1-1.66982-2.3338,2.81076,2.81076,0,0,1,2.52041-2.99486,186.37751,186.37751,0,0,1,21.81895-.64058,2.68377,2.68377,0,0,1,2.57917,2.844,2.7926,2.7926,0,0,1-2.83578,2.68339,180.48489,180.48489,0,0,0-21.19123.62224A2.62967,2.62967,0,0,1,1234.02734,623.71583Zm125.96215,36.35734a2.69018,2.69018,0,0,1-.61143-.34616,179.94183,179.94183,0,0,0-17.54555-11.77209,2.76094,2.76094,0,0,1-.94218-3.77012,2.677,2.677,0,0,1,3.71637-1.03053,185.27741,185.27741,0,0,1,18.06651,12.11684,2.78552,2.78552,0,0,1,.50775,3.8664A2.71674,2.71674,0,0,1,1359.98949,660.07317Zm-69.912-32.5964a2.72377,2.72377,0,0,1-1.59472-3.16841,2.76119,2.76119,0,0,1,3.26975-2.10212,185.40062,185.40062,0,0,1,20.88142,6.038,2.77545,2.77545,0,0,1-1.86483,5.22618,180.16811,180.16811,0,0,0-20.28457-5.86735A2.51753,2.51753,0,0,1,1290.0775,627.47677Z"/><path class="cls-11" d="M1427.82361,854.3491a2.72682,2.72682,0,0,1-1.59514-3.17444c.83785-3.52787,1.58417-7.12486,2.22194-10.69261a2.77523,2.77523,0,0,1,3.15484-2.2829,2.693,2.693,0,0,1,2.18123,3.17432c-.65665,3.67114-1.42643,7.37554-2.28572,11.00586a2.71587,2.71587,0,0,1-3.67715,1.96977Z"/><path class="cls-15" d="M1381.49775,859.91545a2.29668,2.29668,0,0,0-.38412-2.61079l-18.91556-19.60486a123.66783,123.66783,0,0,0,3.00994-39.1044l21.716-17.12282a2.33779,2.33779,0,0,0,.7797-2.53994l-10.10695-31.4635a2.19153,2.19153,0,0,0-2.08815-1.53472l-27.207.03145a117.01822,117.01822,0,0,0-24.98076-29.28993l3.76437-27.55751a2.24523,2.24523,0,0,0-1.20083-2.324L1296.777,672.24625a2.22107,2.22107,0,0,0-2.56863.44036l-19.58564,19.64954a115.967,115.967,0,0,0-38.31-2.34251l-16.39644-21.82491a2.18136,2.18136,0,0,0-2.47745-.74755l-31.05739,10.88973a2.32953,2.32953,0,0,0-1.54417,2.15787l-.47381,27.73928a122.61141,122.61141,0,0,0-29.20038,26.01407l-26.96741-3.32743a2.27509,2.27509,0,0,0-2.30254,1.26753l-14.81352,29.94826a2.29617,2.29617,0,0,0,.38476,2.61114l18.91489,19.60459a123.68464,123.68464,0,0,0-3.01022,39.10446l-21.71671,17.12255a2.33869,2.33869,0,0,0-.779,2.53985l10.10727,31.46443a2.19017,2.19017,0,0,0,2.08843,1.534l27.207-.03146a116.97266,116.97266,0,0,0,24.98112,29.2899l-3.76506,27.55688a2.246,2.246,0,0,0,1.2009,2.32513l29.10772,14.54808a2.223,2.223,0,0,0,2.56863-.44036l19.58568-19.64962a115.974,115.974,0,0,0,38.31,2.34259l16.39614,21.82523a2.1824,2.1824,0,0,0,2.47739.74683l31.05649-10.88921a2.33168,2.33168,0,0,0,1.5452-2.15763l.47368-27.7396a122.63457,122.63457,0,0,0,29.20038-26.01408L1364.381,891.131a2.27341,2.27341,0,0,0,2.30351-1.26759Z"/><path class="cls-13" d="M1233.55725,842.36978a32.111,32.111,0,0,1-15.25105-12.86813c-9.71579-15.54318-5.065-36.4826,10.36253-46.67825a32.63364,32.63364,0,0,1,24.94928-4.8153,32.04794,32.04794,0,0,1,20.654,14.51718,33.71705,33.71705,0,0,1,4.26234,25.34643,34.32133,34.32133,0,0,1-14.62732,21.33083,32.60617,32.60617,0,0,1-30.34982,3.16724Zm22.30764-54.992a24.62931,24.62931,0,0,0-22.8596,2.38,25.98676,25.98676,0,0,0-7.81517,35.19359,24.1683,24.1683,0,0,0,15.57158,10.94608,24.602,24.602,0,0,0,18.8088-3.62933,25.88735,25.88735,0,0,0,11.02943-16.08244,25.42347,25.42347,0,0,0-3.2118-19.11016h0A24.24852,24.24852,0,0,0,1255.86489,787.37776Z"/><path class="cls-13" d="M1214.02949,889.4456q-3.024-1.22058-5.97394-2.69474a81.3007,81.3007,0,0,1-41.21674-48.36287,86.50691,86.50691,0,0,1,53.16025-107.47022A81.14191,81.14191,0,0,1,1324.453,783.12556c.11184.34317.21919.69039.32756,1.03509a85.61061,85.61061,0,0,1,3.1565,14.912c.00272.02154.00636.04061.00765.05864.00888.07664.01884.15079.02627.22392.01509.13178.03022.26347.04633.39272.0075.07316.01494.14629.02339.2169.02525.22644.047.45442.06983.67987l-8.0913,1.00046a77.35412,77.35412,0,0,0-3.3009-15.80892h0a73.13119,73.13119,0,0,0-94.20321-47.08257,78.019,78.019,0,0,0-47.94166,96.92359,73.1877,73.1877,0,0,0,94.20325,47.08249,76.47607,76.47607,0,0,0,33.211-22.99971l6.13931,5.33012a84.81241,84.81241,0,0,1-36.83423,25.50559A80.67324,80.67324,0,0,1,1214.02949,889.4456Z"/><path class="cls-11" d="M1116.57368,1068.81976a1.4884,1.4884,0,0,1-.6368-.49258,1.58773,1.58773,0,0,1,.30711-2.18726c1.61324-1.263,3.19942-2.57816,4.714-3.91061a1.50549,1.50549,0,0,1,2.15482.14493,1.58644,1.58644,0,0,1-.18219,2.19975c-1.55943,1.372-3.19184,2.72617-4.85347,4.02568A1.513,1.513,0,0,1,1116.57368,1068.81976Z"/><path class="cls-11" d="M1005.829,1080.57619q-.05588-.02256-.11-.04931a104.93588,104.93588,0,0,1-10.78509-6.23285,1.56525,1.56525,0,0,1-.42513-2.15332,1.52844,1.52844,0,0,1,2.12052-.47349,101.352,101.352,0,0,0,10.4779,6.05614,1.56646,1.56646,0,0,1-1.27819,2.85283Zm18.59525,7.14824a1.53946,1.53946,0,0,1-.88228-1.85518,1.55606,1.55606,0,0,1,1.894-1.1003,101.50139,101.50139,0,0,0,11.841,2.516,1.51654,1.51654,0,0,1,1.25761,1.76782,1.56493,1.56493,0,0,1-1.75777,1.31506,104.25858,104.25858,0,0,1-12.19055-2.58791A1.63157,1.63157,0,0,1,1024.42421,1087.72443Zm-44.73981-25.87176a1.49816,1.49816,0,0,1-.48949-.32113,105.2084,105.2084,0,0,1-8.36151-9.30865,1.58707,1.58707,0,0,1,.23954-2.19474,1.50457,1.50457,0,0,1,2.1488.20348,102.36363,102.36363,0,0,0,8.12309,9.0411,1.58142,1.58142,0,0,1,.01319,2.20446A1.5253,1.5253,0,0,1,979.6844,1061.85267Zm76.71351,29.45035a1.52282,1.52282,0,0,1-.94441-1.3795,1.58178,1.58178,0,0,1,1.48664-1.62874,101.97641,101.97641,0,0,0,12.099-1.29389,1.49943,1.49943,0,0,1,1.73393,1.28305,1.58707,1.58707,0,0,1-1.291,1.79173,104.89444,104.89444,0,0,1-12.45812,1.33342A1.478,1.478,0,0,1,1056.39791,1091.303Zm-95.87608-55.49a1.48914,1.48914,0,0,1-.76731-.70175,108.56833,108.56833,0,0,1-5.13868-11.51163,1.59569,1.59569,0,0,1,.88031-2.03,1.49734,1.49734,0,0,1,1.97532.85989,105.4605,105.4605,0,0,0,4.99135,11.18531,1.59238,1.59238,0,0,1-.64519,2.115A1.50028,1.50028,0,0,1,960.52183,1035.813Zm127.57879,48.95177a1.50449,1.50449,0,0,1-.85814-.90976,1.59363,1.59363,0,0,1,.93986-2.00266l1.14073-.434a106.65291,106.65291,0,0,0,10.07941-4.51579,1.488,1.488,0,0,1,2.04152.684,1.592,1.592,0,0,1-.709,2.0942,109.04353,109.04353,0,0,1-10.37434,4.65042l-1.1708.445A1.49934,1.49934,0,0,1,1088.10062,1084.76475Zm-138.0093-79.83689a1.509,1.509,0,0,1-.92032-1.149,109.555,109.555,0,0,1-1.46963-12.62685,1.58242,1.58242,0,0,1,1.43592-1.674,1.50586,1.50586,0,0,1,1.6157,1.433,106.84528,106.84528,0,0,0,1.42689,12.26367,1.58763,1.58763,0,0,1-1.236,1.83042A1.48015,1.48015,0,0,1,950.09132,1004.92786Z"/><path class="cls-11" d="M949.39965,972.0318a1.5312,1.5312,0,0,1-.92831-1.62994c.27416-2.082.61378-4.18685,1.00693-6.2537a1.56143,1.56143,0,0,1,1.79208-1.26494,1.52117,1.52117,0,0,1,1.20786,1.8037c-.38055,2.00771-.70967,4.05094-.97652,6.07488a1.569,1.569,0,0,1-1.71986,1.36825A1.50507,1.50507,0,0,1,949.39965,972.0318Z"/><path class="cls-11" d="M992.80693,898.00777a1.48515,1.48515,0,0,1-.66131-.52723,1.58835,1.58835,0,0,1,.366-2.17826c1.68148-1.24535,3.42049-2.45435,5.16617-3.59637a1.49931,1.49931,0,0,1,2.10551.45783,1.58934,1.58934,0,0,1-.48821,2.15529c-1.69568,1.1095-3.38405,2.28452-5.01911,3.49429A1.51038,1.51038,0,0,1,992.80693,898.00777Z"/><path class="cls-11" d="M1158.66764,981.36053a1.52412,1.52412,0,0,1-.94378-1.40886,106.10924,106.10924,0,0,0-.79708-12.13136,1.58861,1.58861,0,0,1,1.327-1.76568,1.50317,1.50317,0,0,1,1.70771,1.32022,110.00855,110.00855,0,0,1,.82093,12.49348,1.58073,1.58073,0,0,1-1.51677,1.60014A1.49,1.49,0,0,1,1158.66764,981.36053Zm-5.08-31.81091a1.50455,1.50455,0,0,1-.86993-.94413q-.55329-1.74056-1.17179-3.4744c-.94125-2.63512-1.99567-5.25986-3.1376-7.803a1.59594,1.59594,0,0,1,.7617-2.07783,1.49379,1.49379,0,0,1,2.0245.73805c1.17319,2.6167,2.25912,5.31844,3.22573,8.02969q.63759,1.78194,1.20827,3.57475a1.59646,1.59646,0,0,1-.98563,1.98093A1.49583,1.49583,0,0,1,1153.58765,949.54962Zm-138.082-64.38638a1.49841,1.49841,0,0,1-.84068-.86153,1.59559,1.59559,0,0,1,.87477-2.03224q1.1973-.49274,2.40684-.96409c3.04146-1.17748,6.16612-2.22743,9.28834-3.12023a1.49183,1.49183,0,0,1,1.86568,1.07593,1.58873,1.58873,0,0,1-1.09022,1.92218c-3.03268.86967-6.06971,1.8891-9.02367,3.0327q-1.17863.45825-2.34418.94A1.5005,1.5005,0,0,1,1015.50563,885.16324Zm123.93924,35.72089a1.49,1.49,0,0,1-.66269-.52778,102.29167,102.29167,0,0,0-7.43228-9.38162,1.5822,1.5822,0,0,1,.119-2.2022,1.49911,1.49911,0,0,1,2.15839.08049,105.52369,105.52369,0,0,1,7.654,9.65891,1.59077,1.59077,0,0,1-.368,2.17912A1.514,1.514,0,0,1,1139.44487,920.88413Zm-92.98865-43.36a1.51836,1.51836,0,0,1-.94132-1.31562,1.58449,1.58449,0,0,1,1.42082-1.68827,105.06635,105.06635,0,0,1,12.29987-.36111,1.5129,1.5129,0,0,1,1.454,1.60325,1.57427,1.57427,0,0,1-1.5986,1.5127,101.74151,101.74151,0,0,0-11.946.35077A1.4824,1.4824,0,0,1,1046.45622,877.5241Zm71.008,20.49553a1.51606,1.51606,0,0,1-.34468-.19514,101.43728,101.43728,0,0,0-9.89086-6.63621,1.5564,1.5564,0,0,1-.53112-2.12531,1.50908,1.50908,0,0,1,2.095-.58094,104.44562,104.44562,0,0,1,10.18454,6.83056,1.57026,1.57026,0,0,1,.28623,2.17958A1.53149,1.53149,0,0,1,1117.46418,898.01963Zm-39.41111-18.37539a1.53545,1.53545,0,0,1-.899-1.78611,1.55655,1.55655,0,0,1,1.84324-1.185,104.51553,104.51553,0,0,1,11.77137,3.4038,1.56459,1.56459,0,0,1-1.05125,2.94613,101.56342,101.56342,0,0,0-11.43492-3.30758A1.41988,1.41988,0,0,1,1078.05307,879.64424Z"/><path class="cls-11" d="M1155.70394,1007.53775a1.53719,1.53719,0,0,1-.89922-1.78951c.47232-1.98875.893-4.01646,1.25257-6.02769a1.56445,1.56445,0,0,1,1.77846-1.28692,1.51808,1.51808,0,0,1,1.22961,1.78944c-.37017,2.06951-.80411,4.15777-1.28852,6.20428a1.531,1.531,0,0,1-2.0729,1.1104Z"/><path class="cls-16" d="M1129.58891,1010.67564a1.29472,1.29472,0,0,0-.21653-1.47177l-10.66317-11.05174A69.71481,69.71481,0,0,0,1120.406,976.108l12.24186-9.65256a1.31787,1.31787,0,0,0,.43954-1.43182l-5.69754-17.73675a1.23543,1.23543,0,0,0-1.17714-.86516l-15.33726.01773a65.96578,65.96578,0,0,0-14.08227-16.51145l2.12207-15.53485a1.26569,1.26569,0,0,0-.67694-1.31012l-16.40857-8.20115a1.25207,1.25207,0,0,0-1.448.24825l-11.04091,11.07693a65.373,65.373,0,0,0-21.59629-1.32053l-9.24308-12.30324a1.2297,1.2297,0,0,0-1.3966-.42142l-17.50781,6.13881a1.31321,1.31321,0,0,0-.87049,1.21645l-.2671,15.63731a69.11907,69.11907,0,0,0-16.461,14.66477l-15.20219-1.87575a1.28251,1.28251,0,0,0-1.298.71454l-8.35075,16.88257a1.29442,1.29442,0,0,0,.2169,1.472l10.66279,11.05159a69.72428,69.72428,0,0,0-1.69694,22.04415l-12.24224,9.6524a1.3184,1.3184,0,0,0-.43917,1.43178l5.69772,17.73727a1.23464,1.23464,0,0,0,1.17729.86477l15.33726-.01773a65.94047,65.94047,0,0,0,14.08247,16.51143l-2.12246,15.53449a1.26615,1.26615,0,0,0,.677,1.31074l16.40874,8.20111a1.25317,1.25317,0,0,0,1.448-.24824l11.04092-11.077a65.37748,65.37748,0,0,0,21.59628,1.32058l9.2429,12.30342a1.23029,1.23029,0,0,0,1.39657.421l17.50731-6.13851a1.31444,1.31444,0,0,0,.87107-1.21631l.267-15.6375a69.13219,69.13219,0,0,0,16.461-14.66477l15.20185,1.87537a1.28159,1.28159,0,0,0,1.29855-.71457Z"/><path class="cls-13" d="M1046.19122,1000.78471a18.1017,18.1017,0,0,1-8.5974-7.25408,19.42984,19.42984,0,0,1,5.84162-26.31368,18.39642,18.39642,0,0,1,14.06452-2.7145,18.06623,18.06623,0,0,1,11.64319,8.18369,19.00716,19.00716,0,0,1,2.40279,14.28841,19.34781,19.34781,0,0,1-8.24578,12.02471,18.38084,18.38084,0,0,1-17.10894,1.78545Zm12.57536-31.00035a13.88411,13.88411,0,0,0-12.88651,1.34169,14.64937,14.64937,0,0,0-4.40561,19.83949,13.62427,13.62427,0,0,0,8.77808,6.17057,13.86873,13.86873,0,0,0,10.603-2.04594,14.59335,14.59335,0,0,0,6.21755-9.06607,14.33181,14.33181,0,0,0-1.81056-10.77286h0A13.66947,13.66947,0,0,0,1058.76658,969.78436Z"/><path class="cls-13" d="M1035.18294,1027.32251q-1.70469-.68806-3.36766-1.51909a45.8312,45.8312,0,0,1-23.23489-27.26334,48.76607,48.76607,0,0,1,29.96774-60.58361,45.7417,45.7417,0,0,1,58.88326,29.43082c.063.19345.12357.38919.18466.5835a48.26052,48.26052,0,0,1,1.77939,8.40628l.00432.03306c.005.0432.01062.085.01481.12623.0085.07428.017.14852.02611.22138.00423.04124.00842.08247.01319.12227.01423.12765.02651.25617.03936.38326l-4.56126.564a43.60715,43.60715,0,0,0-1.8608-8.91188h0a41.22584,41.22584,0,0,0-53.10467-26.5416,43.9812,43.9812,0,0,0-27.02589,54.63821,41.2577,41.2577,0,0,0,53.10469,26.54156,43.11142,43.11142,0,0,0,18.72183-12.96551l3.46089,3.00472a47.81084,47.81084,0,0,1-20.76437,14.37813A45.47743,45.47743,0,0,1,1035.18294,1027.32251Z"/><path class="cls-17" d="M819.6957,1811.9724s34.6072,1.8309,38.8509,73.0292c0,0-80.2481,71.9384-188.6468,89.0605-8.1384,1.2856,11.3769-55.552,14.3104-63.2505C698.1693,1874.1781,742.1301,1850.5853,819.6957,1811.9724Z"/><path class="cls-18" d="M1209.4437,1728.2555h-73.0296s-224.1474-247.549-371.1586-272.5239c0,0-102.3346,130.629,5.4504,374.7049,8.6706,19.6343,32.9209,28.3568,51.0101,16.8036a29.20878,29.20878,0,0,0,11.6549-13.8928l-8.6673-208.4012s191.1981,167.2237,224.4316,199.4947C1082.3683,1856.7118,1251.2973,1837.0422,1209.4437,1728.2555Z"/><path class="cls-19" d="M503.4033,2247.9981c30.6028-26.8156,79.3644-56.9076,149.757-65.5349l23.8062,14.5614s-15.1806,22.3915-42.9127,46.0432c-25.4874,14.8039-64.8444,34.8545-97.4727,39.2001C504.858,2286.4934,500.1796,2267.324,503.4033,2247.9981Z"/><path class="cls-11" d="M684.2102,1910.8116c18.8531,6.102,27.1455,32.813,74.9855,15.1494a423.46918,423.46918,0,0,0,98.3942-51.8365c.3948,3.4443.7276,7.0413.9567,10.8779,0,0-84.6132,80.4809-193.0123,97.603a10.78818,10.78818,0,0,1-11.6531-14.5369A272.22037,272.22037,0,0,1,684.2102,1910.8116Z"/><path class="cls-11" d="M480.3484,2270.8978a252.50094,252.50094,0,0,1,23.0549-22.8997c-3.2237,19.3259,1.4547,38.4953,33.1778,34.2698,32.6283-4.3456,71.9853-24.3962,97.4727-39.2001-31.945,27.245-80.5501,56.1619-141.8971,54.4638C478.5305,2297.1541,471.344,2281.1316,480.3484,2270.8978Z"/><path class="cls-18" d="M1206.7712,1781.0962l-341.9906,3.7029s-195.3025,161.584-230.7268,407.9743c0,0-5.8798,18.1217,29.4226,21.2223,0,0,118.0778-77.1201,195.0702-213.4673,94.4037-167.1811,281.4299-91.9257,281.4299-91.9257,89.8522,19.8295,161.3672,12.452,213.703-68.0859Z"/><path class="cls-20" d="M1198.6957,1505.605s-36.8166,184.5061-217.2043,257.4977l-64.1658-7.5618-15.1405,24.1419,150.5125,4.7957s128.6571-50.9583,196.8231-189.8129C1251.7731,1590.0778,1289.3096,1512.573,1198.6957,1505.605Z"/><path class="cls-21" d="M1178.9666,1778.0804s41.8654-113.803,50.8634-224.3823c0,0-30.6282-26.3225-49.7723-37.6791a13.84272,13.84272,0,0,1-5.406-17.9479c14.075-29.157,99.1918-143.6441,105.5671-145.2355,34.6558-8.6492,176.7853-76.2272,276.8856,60.6953,42.9604,58.763-8.5247,239.6531-203.4249,426.9851C1290.9652,1850.7258,1232.3316,1832.656,1178.9666,1778.0804Z"/><path class="cls-22" d="M1340.2878,1578.6347s-116.3165,137.7259-265.0287,157.8591c0,0-38.4329-35.0383-67.012-22.5289-28.5791,12.5098-67.7657,67.7273-67.7657,67.7273h190.9463s180.5467-6.3614,270.7659-115.8445C1394.9338,1627.5372,1373.1935,1604.6531,1340.2878,1578.6347Z"/><path class="cls-23" d="M1408.1442,1256.236l25.4502,84.8832a9.33168,9.33168,0,0,1-3.624,10.3953c-12.2529,8.3915-44.278,25.0812-88.2102,8.8622a13.83757,13.83757,0,0,1-8.9026-11.8855l-6.0337-73.947Z"/><path class="cls-24" d="M1259.1172,1187.4931s12.5132,87.9908,46.314,115.0502c33.8004,27.0594,99.6554,6.6849,121.8984-59.6497l-44.3194-113.4192Z"/><path class="cls-25" d="M1388.0034,1202.8685a4.3547,4.3547,0,0,1-5.6638-3.4899c-1.2207-8.1228-4.2663-24.1975-10.4329-35.1467,0,0,3.2258-11.5439-29.1751,5.8953-32.4005,17.4388-81.0655,43.057-109.7176,27.8021-27.9337-14.873-56.2302-89.7239,17.5962-75.8564a4.3552,4.3552,0,0,0,5.1816-4.5608c-.9068-12.3018.3134-40.6042,28.9739-49.6879,26.8202-8.5015,41.5036,3.6059,47.5541,10.9138a4.32931,4.32931,0,0,0,6.7806-.1088c8.0347-10.489,29.8542-32.8143,61.9746-18.6591,26.4562,11.6595,30.5708,27.9553,30.1346,38.1102a4.34193,4.34193,0,0,0,6.1885,4.142c8.1022-3.732,21.1354-5.6705,33.6203,9.9719,17.2596,21.6251-7.4049,40.3782-14.8039,45.295a4.36135,4.36135,0,0,0-1.9753,3.5966c-.0696,11.2465-1.8208,60.3034-26.4081,87.9752a4.39377,4.39377,0,0,1-7.3045-1.2616l-18.9307-45.1064a4.37545,4.37545,0,0,0-5.3773-2.4712Z"/><path class="cls-26" d="M1387.6035,1212.0263s11.5604-47.085,29.1211-31.7977-4.5777,48.935-24.6949,55.3478Z"/><path class="cls-27" d="M950.0943,1792.3795l-85.7342-285.9157a29.23608,29.23608,0,0,0-26.0083-20.7705l-115.7525-7.9199a16.417,16.417,0,0,0-16.6113,21.8161l95.8429,273.0465a24.03235,24.03235,0,0,0,20.2605,15.9499l113.9861,12.6579Z"/><path class="cls-11" d="M791.9766,1603.3679c6.4015,12.9206,17.4553,20.4896,24.6898,16.9052,7.2349-3.5839,7.9106-16.9634,1.51-29.8836-6.4011-12.9207-17.454-20.4896-24.6889-16.9053C786.253,1577.0681,785.5764,1590.4477,791.9766,1603.3679Z"/><path class="cls-28" d="M936.0775,1801.2438c.1856,0,.3716-.0043.5593-.0152l242.8789-12.2762a10.88459,10.88459,0,1,0-1.0996-21.7414l-242.8789,12.2761a10.88528,10.88528,0,0,0,.5403,21.7567Z"/><path class="cls-29" d="M1229.8293,1555.3811a1.68307,1.68307,0,0,1-1.6833-1.6767c-.1693-51.2716,19.5602-119.1263,19.7591-119.8068a1.68382,1.68382,0,0,1,3.2318.9468c-.1989.674-19.7919,68.0717-19.6243,118.8468a1.68367,1.68367,0,0,1-1.6783,1.6899Z"/><path class="cls-29" d="M1340.286,1580.3183a1.68241,1.68241,0,0,1-1.32-2.7255c.5309-.674,53.3231-67.7857,71.3922-113.5734a1.66686,1.66686,0,0,1,2.1847-.9469,1.68408,1.68408,0,0,1,.9485,2.1831c-18.2533,46.248-71.3479,113.7476-71.8821,114.4216A1.68191,1.68191,0,0,1,1340.286,1580.3183Z"/><path class="cls-29" d="M1415.1237,1683.5091l-9.605-13.5815a1.684,1.684,0,0,1,2.7486-1.9463l8.0302,11.3557c74.91-32.8408,121.2862-122.4567,121.7482-123.3641a1.68353,1.68353,0,0,1,2.9983,1.5321c-.4701.9205-47.8934,92.5946-124.6693,125.4682Z"/></g></svg>